<svg version="1.1" xmlns="http://www.w3.org/2000/svg" width="32" height="32" viewBox="0 0 32 32">
  <title>address</title>
  <path
    d="M15.191 0h1.624c3.812 0.75 6.688 3.208 6.688 7.5 0 4.156-2.819 6.569-6.439 7.375v4.314c4.883 0.259 10.003 1.094 13.003 3.316 0.663 0.321 1.533 1.351 1.93 2.592l0.010 0.971c-0.823 2.453-3.203 3.614-5.639 4.438-1.572 0.62-4.927 1.317-8.419 1.496l-3.834 0.003c-2.084 0.011-5.543-0.543-8.805-1.545-2.151-0.744-4.474-1.968-5.308-4.37v-0.936c0.84-2.656 3.947-3.998 6.874-4.816 1.708-0.523 4.805-1.022 8.003-1.126l0.061-4.315c-3.665-0.806-6.451-3.254-6.439-7.438 0.011-4.297 2.915-6.705 6.693-7.46zM11.317 4.878c-0.419 0.745-0.667 1.636-0.667 2.585 0 2.952 2.393 5.346 5.346 5.346 2.784 0 5.072-2.129 5.323-4.848 0.023-0.197 0.035-0.401 0.035-0.608 0-2.865-2.323-5.188-5.188-5.188-0.171 0-0.339 0.008-0.505 0.024-1.837 0.032-3.481 1.097-4.336 2.656zM6.806 22.442c-1.562 0.406-4.708 1.387-4.686 3.186 0 1.128 1.297 1.788 2.255 2.256 5.041 2.425 13.702 2.521 19.815 1.128 1.799-0.412 5.729-1.342 5.689-3.44 0-1.043-1.207-1.754-2.064-2.188-2.989-1.511-6.699-1.799-10.753-2.002v4.252c-0.194 0.010-0.422 0.015-0.651 0.015-0.519 0-1.032-0.028-1.537-0.083l0.063-4.184c-2.802 0.002-5.648 0.387-8.356 1.107z"></path>
</svg>
