<svg version="1.1" xmlns="http://www.w3.org/2000/svg" width="32" height="32" viewBox="0 0 32 32">
  <title>approved</title>
  <path
    d="M29.856 8l-3.713-2.144-2.143-3.712h-4.287l-3.713-2.144-3.713 2.144h-4.287l-2.144 3.713-3.712 2.143v4.287l-2.144 3.713 2.144 3.713v4.287l3.713 2.144 2.144 3.713h4.287l3.712 2.143 3.713-2.144h4.287l2.144-3.713 3.713-2.144v-4.287l2.144-3.713-2.144-3.713v-4.287zM14.556 22.548c-0.299 0.299-0.692 0.443-1.083 0.437-0.392 0.005-0.784-0.14-1.083-0.437l-4.68-4.68c-0.587-0.587-0.587-1.537 0-2.123l1.239-1.239c0.587-0.587 1.537-0.587 2.123 0l2.4 2.4 7.453-7.453c0.587-0.587 1.537-0.587 2.123 0l1.239 1.239c0.587 0.587 0.587 1.537 0 2.123l-9.732 9.733z"></path>
</svg>
