<svg version="1.1" xmlns="http://www.w3.org/2000/svg" width="1024" height="1024" viewBox="0 0 1024 1024">
<path d="M870.402 102.4h-214.017c-21.504-59.392-77.824-102.4-144.384-102.4s-122.88 43.008-144.384 102.4h-214.017c-56.32 0-102.4 46.080-102.4 102.4v716.801c0 56.32 46.080 102.4 102.4 102.4h716.801c56.32 0 102.4-46.080 102.4-102.4v-716.801c0-56.32-46.080-102.4-102.4-102.4zM512.001 102.4c28.16 0 51.2 23.040 51.2 51.2s-23.040 51.2-51.2 51.2-51.2-23.040-51.2-51.2 23.040-51.2 51.2-51.2zM614.401 819.2h-358.401v-102.4h358.401v102.4zM768.001 614.401h-512.001v-102.4h512.001v102.4zM768.001 409.6h-512.001v-102.4h512.001v102.4z"></path>
</svg>
