<svg version="1.1" xmlns="http://www.w3.org/2000/svg" width="32" height="32" viewBox="0 0 32 32">
  <title>balloon</title>
  <path
    d="M9.399 24.711h13.216v2.501h-13.216v-2.501zM28.726 22.406c-0.035-0.89-0.069-1.802-0.069-2.64 0-0.959 0.035-1.906 0.064-2.825 0.040-0.604 0.063-1.31 0.063-2.021 0-1.009-0.046-2.007-0.136-2.992-0.303-2.357-2.186-3.252-4.034-3.847v-8.087h-7.821l0.029 0.474c0.069 1.097 0.087 2.27-0.323 2.709-0.112 0.115-0.269 0.187-0.443 0.187-0.019 0-0.038-0.001-0.056-0.002h-0.055c-0.751-0.035-0.809-0.872-0.757-2.634 0-0.092 0-0.179 0-0.271v-0.462h-7.318c-0.277 0.046-0.485 0.284-0.485 0.57 0 0.050 0.006 0.098 0.018 0.144l-0.001 7.459c-1.779 0.456-3.72 1.363-4.043 3.916-0.086 0.888-0.135 1.919-0.135 2.962 0 0.728 0.024 1.45 0.071 2.166 0.024 0.786 0.058 1.693 0.058 2.583s-0.035 1.733-0.075 2.628c-0.092 2.339-0.191 4.76 0.352 6.198 0.336 1.165 1.444 2.299 2.856 2.758 1.228 0.381 2.603 0.595 4.029 0.595 0.173 0 0.345-0.003 0.516-0.009 0.749 0.001 1.535 0.001 2.372-0.046s1.733-0.052 2.599-0.052c0.959 0 1.947 0.035 2.888 0.069s1.866 0.069 2.749 0.069c0.067 0.001 0.146 0.001 0.225 0.001 0.825 0 1.637-0.053 2.434-0.156 1.637-0.205 3.264-1.461 4.033-3.184 0.58-1.485 0.488-3.807 0.395-6.262zM26.271 14.522c0 0.404-0.040 0.82-0.040 1.207v8.087q0 0.289 0 0.578c0 3.298-0.092 4.898-2.553 5.199-0.626 0.078-1.351 0.122-2.085 0.122-0.065 0-0.13 0-0.194-0.001-0.787 0-1.631 0-2.514-0.058s-1.906-0.064-2.888-0.064-1.929 0.035-2.859 0.064-1.733 0.058-2.518 0.058c-0.053 0.001-0.116 0.001-0.179 0.001-0.751 0-1.492-0.044-2.22-0.131-0.998-0.101-1.972-0.868-2.388-1.917-0.102-0.526-0.156-1.106-0.156-1.699 0-0.324 0.016-0.645 0.048-0.961-0.003-0.37 0.031-0.792 0.031-1.196v-8.087c0-0.387 0-0.809-0.040-1.213-0.034-0.289-0.053-0.624-0.053-0.964 0-0.585 0.057-1.156 0.166-1.709 0.193-0.637 0.776-1.556 3.457-1.556h0.514v-8.087h2.923c-0.006 0.070-0.009 0.151-0.009 0.234 0 0.734 0.261 1.407 0.695 1.932 0.612 0.685 1.504 1.117 2.497 1.117 0.030 0 0.061 0 0.091-0.001h-0.004c0.025 0.001 0.055 0.001 0.084 0.001 0.997 0 1.892-0.434 2.506-1.124 0.433-0.522 0.694-1.195 0.694-1.928 0-0.083-0.003-0.165-0.010-0.246l2.964 0.011v7.965h0.416c2.183 0.144 3.246 0.653 3.552 1.698 0.091 0.474 0.144 1.019 0.144 1.577 0 0.385-0.025 0.764-0.073 1.136z"></path>
</svg>
