<svg version="1.1" xmlns="http://www.w3.org/2000/svg" width="448" height="448" viewBox="0 0 448 448">
  <title></title>
  <g id="icomoon-ignore">
  </g>
  <path
    d="M142.75 147.25c-3.25-8.25-12.5-12-20.75-8.75-36 14.5-65 43.5-79.5 79.5-3.25 8.25 0.5 17.5 8.75 20.75 2 0.75 4 1.25 6 1.25 6.5 0 12.25-3.75 15-10 11.25-28 33.75-50.5 61.75-61.75 8.25-3.5 12.25-12.75 8.75-21zM378.25 58.25l11.5 11.5-61 60.75 17 17c6.25 6.25 6.25 16.5 0 22.75l-16 16c14 25.25 22.25 54.5 22.25 85.75 0 97.25-78.75 176-176 176s-176-78.75-176-176 78.75-176 176-176c31.25 0 60.5 8.25 85.75 22.25l16-16c6.25-6.25 16.5-6.25 22.75 0l17 17zM380.25 44.25c-1.5 1.5-3.5 2.5-5.5 2.5-2.25 0-4.25-1-5.75-2.5l-22.75-22.5c-3-3.25-3-8.25 0-11.5 3.25-3 8.25-3 11.5 0l22.5 22.75c3.25 3 3.25 8.25 0 11.25zM437.75 101.75c-1.75 1.5-3.75 2.25-5.75 2.25s-4-0.75-5.75-2.25l-22.5-22.75c-3.25-3-3.25-8.25 0-11.25 3-3.25 8.25-3.25 11.25 0l22.75 22.5c3 3.25 3 8.25 0 11.5zM448 56c0 4.5-3.5 8-8 8h-24c-4.5 0-8-3.5-8-8s3.5-8 8-8h24c4.5 0 8 3.5 8 8zM400 8v24c0 4.5-3.5 8-8 8s-8-3.5-8-8v-24c0-4.5 3.5-8 8-8s8 3.5 8 8zM437.75 21.75l-22.75 22.5c-1.5 1.5-3.5 2.5-5.5 2.5-2.25 0-4.25-1-5.75-2.5-3.25-3-3.25-8.25 0-11.25l22.5-22.75c3.25-3 8.25-3 11.5 0 3 3.25 3 8.25 0 11.5z"></path>
</svg>
