<?xml version="1.0" encoding="UTF-8" ?>
<!DOCTYPE svg PUBLIC "-//W3C//DTD SVG 1.1//EN" "http://www.w3.org/Graphics/SVG/1.1/DTD/svg11.dtd">
<svg width="200pt" height="200pt" viewBox="0 0 200 200" version="1.1" xmlns="http://www.w3.org/2000/svg">
<g id="#1c9cd3ff">
<path opacity="1.00" d=" M 82.71 9.73 C 84.01 9.02 85.54 9.13 86.97 9.09 C 95.68 9.13 104.39 9.13 113.10 9.09 C 114.51 9.13 116.01 9.03 117.27 9.77 C 117.95 11.09 117.79 12.60 117.84 14.02 C 117.77 22.62 117.84 31.22 117.80 39.82 C 121.23 39.99 124.93 39.17 128.15 40.68 C 130.47 42.31 131.08 45.85 129.06 47.96 C 120.81 58.08 112.48 68.13 104.17 78.19 C 102.26 81.07 97.71 81.08 95.82 78.19 C 87.51 68.12 79.16 58.09 70.94 47.95 C 68.76 45.74 69.61 41.76 72.37 40.46 C 75.49 39.24 78.94 39.99 82.20 39.82 C 82.17 31.19 82.21 22.56 82.16 13.93 C 82.21 12.52 82.07 11.04 82.71 9.73 Z" />
<path opacity="1.00" d=" M 31.36 88.46 C 39.95 85.74 48.80 83.70 57.54 81.46 C 49.69 94.16 41.73 106.81 33.80 119.46 C 25.53 122.34 17.16 124.91 8.87 127.70 C 7.24 128.35 5.50 128.55 3.76 128.45 C 3.07 126.72 3.38 124.94 4.72 123.62 C 13.66 111.95 22.27 100.00 31.36 88.46 Z" />
<path opacity="1.00" d=" M 40.51 114.52 C 47.34 103.58 54.16 92.62 60.94 81.65 C 65.48 81.67 70.01 81.65 74.55 81.67 C 76.42 84.04 78.37 86.36 80.30 88.69 C 75.09 88.82 69.87 88.75 64.66 88.74 C 60.55 96.23 56.60 103.81 52.43 111.27 C 84.14 111.27 115.84 111.27 147.54 111.27 C 143.27 103.81 139.13 96.27 134.94 88.77 C 129.86 88.73 124.78 88.82 119.71 88.69 C 121.64 86.36 123.59 84.04 125.48 81.66 C 129.86 81.65 134.24 81.67 138.62 81.65 C 145.56 92.63 152.48 103.63 159.48 114.57 C 160.47 116.23 161.97 117.84 161.67 119.94 C 161.65 140.32 161.66 160.71 161.66 181.09 C 161.85 183.81 160.50 186.82 157.74 187.67 C 155.51 188.03 153.24 187.86 151.00 187.89 C 115.31 187.84 79.61 187.92 43.92 187.85 C 40.72 188.09 38.23 184.95 38.37 181.91 C 38.30 161.26 38.38 140.60 38.33 119.95 C 38.03 117.84 39.53 116.21 40.51 114.52 Z" />
<path opacity="1.00" d=" M 142.56 81.38 C 149.80 83.20 156.97 85.22 164.21 87.04 C 166.27 87.65 168.80 87.86 169.96 89.96 C 178.68 101.66 187.55 113.24 196.20 124.98 C 197.62 126.37 196.00 129.15 194.05 128.54 C 185.29 125.92 176.63 122.91 167.92 120.08 C 166.06 119.78 165.27 118.01 164.36 116.60 C 157.15 104.82 149.73 93.18 142.56 81.38 Z" />
</g>
</svg>
