<svg version="1.1" xmlns="http://www.w3.org/2000/svg" width="1024" height="1024" viewBox="0 0 1024 1024">
  <path
    d="M967.111 711.111c-71.111 0-139.377-11.377-203.093-32.427-19.911-6.257-42.097-1.707-58.027 13.653l-125.156 125.156c-160.996-81.92-292.977-213.333-374.897-374.329l125.156-125.724c15.929-15.36 20.48-37.547 14.223-57.457-21.049-63.716-32.427-131.983-32.427-203.093 0-31.289-25.6-56.889-56.889-56.889h-199.111c-31.289 0-56.889 25.6-56.889 56.889 0 534.187 432.924 967.111 967.111 967.111 31.289 0 56.889-25.6 56.889-56.889v-199.111c0-31.289-25.6-56.889-56.889-56.889zM512 0v568.889l170.667-170.667h341.333v-398.223h-512z"></path>
</svg>
