<svg version="1.1" xmlns="http://www.w3.org/2000/svg" width="1024" height="1024" viewBox="0 0 1024 1024">
<path d="M992.736 268.231h-41.671c-17.429 0-31.515 14.106-31.515 31.515v7.879h-24.765l-51.452-243.257c-3.072-14.566-15.925-24.994-30.846-24.994h-600.724c-14.901 0-27.732 10.428-30.846 24.994l-51.473 243.299h-24.744v-7.879c0-17.408-14.127-31.515-31.536-31.515h-41.671c-17.408-0.021-31.494 14.106-31.494 31.494v99.832c0 17.408 14.065 31.515 31.494 31.515h41.671c17.408 0 31.536-14.106 31.536-31.515v-49.926h18.056v515.208c0 17.408 14.086 31.557 31.515 31.557h13.626v37.763c0 27.858 22.591 50.449 50.428 50.449h46.165c27.899 0 50.449-22.591 50.449-50.449v-37.763h394.018v37.763c0 27.858 22.612 50.449 50.449 50.449h46.227c27.858 0 50.47-22.591 50.47-50.449v-37.763h13.605c17.387 0 31.515-14.148 31.515-31.557v-515.187h18.014v49.926c0 17.408 14.148 31.515 31.577 31.515h41.609c17.45 0 31.577-14.106 31.577-31.515v-99.832c0.23-17.45-13.897-31.557-31.264-31.557zM239.6 783.167c-31.891 0-57.805-25.872-57.805-57.826s25.893-57.868 57.805-57.868c31.975 0 57.847 25.914 57.847 57.868s-25.851 57.826-57.847 57.826zM664.485 830.397h-304.719v-26.29h304.719v26.29zM664.485 777.942h-304.719v-26.332h304.719v26.332zM664.485 725.341h-304.719v-26.29h304.719v26.29zM664.485 672.803h-304.719v-26.29h304.719v26.29zM512.115 550.798c-116.446 0-228.566-15.13-326.286-43.469v-161.524l51.473-243.403h549.607l51.494 243.383v161.524c-97.742 28.38-209.862 43.49-326.286 43.49zM784.63 783.167c-31.87 0-57.847-25.872-57.847-57.826s25.914-57.868 57.847-57.868c31.954 0 57.847 25.914 57.847 57.868-0.042 31.954-25.914 57.826-57.847 57.826z"></path>
</svg>
