<svg width="18" height="19" viewBox="0 0 18 19" xmlns="http://www.w3.org/2000/svg">
<path d="M5.4 14.9365C4.41 14.9365 3.6 15.7342 3.6 16.7092C3.6 17.6842 4.41 18.4819 5.4 18.4819C6.39 18.4819 7.2 17.6842 7.2 16.7092C7.2 15.7342 6.39 14.9365 5.4 14.9365ZM0 0.754852V2.52755H1.8L5.04 9.26382L3.78 11.3911C3.69 11.657 3.6 12.0115 3.6 12.2774C3.6 13.2524 4.41 14.0501 5.4 14.0501H16.2V12.2774H5.76C5.67 12.2774 5.58 12.1888 5.58 12.1001V12.0115L6.39 10.5047H13.05C13.77 10.5047 14.31 10.1501 14.58 9.61833L17.82 3.85708C18 3.67981 18 3.59118 18 3.41391C18 2.88209 17.64 2.52755 17.1 2.52755H3.78L2.97 0.754852H0ZM14.4 14.9365C13.41 14.9365 12.6 15.7342 12.6 16.7092C12.6 17.6842 13.41 18.4819 14.4 18.4819C15.39 18.4819 16.2 17.6842 16.2 16.7092C16.2 15.7342 15.39 14.9365 14.4 14.9365Z"/>
</svg>
