<svg version="1.1" xmlns="http://www.w3.org/2000/svg" width="32" height="32" viewBox="0 0 32 32">
  <title>cart-2</title>
  <path d="M14.667 28c0 1.473-1.193 2.667-2.667 2.667s-2.667-1.193-2.667-2.667c0-1.473 1.193-2.667 2.667-2.667s2.667 1.193 2.667 2.667z"></path>
  <path d="M29.333 28c0 1.473-1.193 2.667-2.667 2.667s-2.667-1.193-2.667-2.667c0-1.473 1.193-2.667 2.667-2.667s2.667 1.193 2.667 2.667z"></path>
  <path
    d="M31.733 7.2c-0.267-0.4-0.667-0.533-1.067-0.533h-21.6l-1.067-5.6c-0.133-0.667-0.667-1.067-1.333-1.067h-5.333c-0.8 0-1.333 0.533-1.333 1.333s0.533 1.333 1.333 1.333h4.267l1.067 5.6c0 0 0 0.133 0 0.133l2.267 11.067c0.4 1.867 2 3.2 3.867 3.2 0 0 0 0 0.133 0h12.933c2 0 3.6-1.333 4-3.2l2.133-11.2c0-0.4 0-0.8-0.267-1.067zM27.2 18.933c-0.133 0.667-0.667 1.067-1.333 1.067h-12.933c-0.667 0-1.2-0.4-1.333-1.067l-2-9.6h19.467l-1.867 9.6z"></path>
</svg>
