<svg version="1.1" xmlns="http://www.w3.org/2000/svg" width="1024" height="1024" viewBox="0 0 1024 1024">
  <title></title>
  <g id="icomoon-ignore">
  </g>
  <path
    d="M418.805 8h1.876c1.752 0.528 3.52 0.992 5.32 1.412 0.913 3.102 1.628 6.25 1.876 9.49 4.172 32.55 8.854 65.040 12.886 97.606 2.528-0.512 5.056-1.178 7.398-2.358 13.274-6.28 26.642-12.406 39.994-18.548 7.242 39.296 11.32 79.104 17.416 118.588 4.064 22.424 5.258 46.182-2.73 67.924-4.436 14.144-14.081 25.866-18.594 39.964-3.752 11.15-7.336 23.526-3.148 35.094 3.752 10.732 14.236 17.090 24.362 20.888 22.284 8.468 44.554 16.98 66.31 26.736 23.742 10.84 46.198 24.348 67.505 39.358 15.678 11.444 30.596 24.3 42.228 39.948 49.252 68.45 94.008 141.384 120.928 221.744 5.83 17.446 10.39 35.264 14.996 53.068 6.080 24.858 10.856 50.974 5.506 76.422-5.506 26.766-14.996 52.788-28.612 76.5-7.212 12.438-14.888 24.968-25.852 34.504-19.198 16.95-45.066 23.556-70.032 25.588-30.364 2.296-60.884-0.17-91.046-3.846-64.28-9.94-129.8-11.91-194.544-5.614-28.224 2.806-57.162 5.072-83.602 16.19-14.934 6.032-28.674 15.166-39.514 27.121-3.846 4.358-8.808 7.46-13.864 10.22h-11.444c8.948-24.27 25.432-45.236 45.066-61.83 19.942-16.546 43.050-28.674 66.42-39.606-0.388-1.908-0.79-3.83-1.798-5.52-28.319 5.428-57.114 7.832-85.726 11.104-4.512 0.388-9.18 1.132-13.632-0.046-6.838-2.202-11.724-7.738-17.198-12.080-10.576-8.994-22.098-17.912-28.426-30.612-3.614-9.94-0.558-20.78 2.31-30.534 1.736-6.714 6.342-12.314 12.127-16.004 8.234-5.878 19.416-3.644 27.758-9.382 12.546-6.854 16.732-21.772 18.424-34.954 1.21-13.848 6.776-26.766 9.103-40.398 3.986-21.4 6.56-43.406 3.566-65.102-3.396-34.164-20.065-66.016-43.236-90.938-21.85-23.416-34.116-53.548-46.136-82.718-7.49-17.602-12.080-36.66-11.492-55.858 0.294-27.154 12.158-53.082 29.372-73.708 7.614-9.428 16.95-17.368 23.928-27.324 7.288-9.662 13.135-21.586 11.554-33.992-2.124-13.182-12.562-22.842-22.89-30.256-11.568-8.654-26.502-13.12-35.28-25.216-8.746-11.568-7.784-26.906-7.94-40.63-0.156-15.198-4.094-30.876 1.194-45.654 2.714-8.142 10.716-14.298 19.416-14.158 8.11-0.016 16.562 0.698 24.052-3.102 10.7-3.97 16.67-14.236 24.642-21.696 19.338-19.88 44.104-34.768 71.288-40.816 8.73-2.358 17.788-2.838 26.674-4.342 7.908-2.358 13.786-9.026 17.554-16.128 11.91-21.82 22.828-44.15 33.682-66.497z"></path>
</svg>
