<svg version="1.1" xmlns="http://www.w3.org/2000/svg" width="448" height="448" viewBox="0 0 448 448">
  <path
    d="M438.625 132.612c0 6.923-2.769 13.846-7.754 18.832l-238.165 238.165c-4.985 4.985-11.908 7.754-18.832 7.754s-13.846-2.769-18.832-7.754l-137.914-137.914c-4.985-4.985-7.754-11.908-7.754-18.832s2.769-13.846 7.754-18.832l37.663-37.663c4.985-4.985 11.908-7.754 18.832-7.754s13.846 2.769 18.832 7.754l81.419 81.696 181.67-181.947c4.985-4.985 11.908-7.754 18.832-7.754s13.846 2.769 18.832 7.754l37.663 37.663c4.985 4.985 7.754 11.908 7.754 18.832z"></path>
</svg>
