<?xml version="1.0" encoding="UTF-8" ?>
<!DOCTYPE svg PUBLIC "-//W3C//DTD SVG 1.1//EN" "http://www.w3.org/Graphics/SVG/1.1/DTD/svg11.dtd">
<svg width="512pt" height="512pt" viewBox="0 0 512 512" version="1.1" xmlns="http://www.w3.org/2000/svg">
<g id="#000000ff">
<path opacity="1.00" d=" M 315.98 0.00 L 320.29 0.00 C 353.78 0.64 387.22 9.64 416.03 26.82 C 458.84 51.79 491.43 93.78 504.65 141.58 C 509.13 157.59 511.58 174.18 512.00 190.80 L 512.00 195.76 C 511.49 238.37 496.75 280.73 470.07 314.03 C 446.69 343.89 414.23 366.33 378.28 378.28 C 366.40 414.00 344.18 446.29 314.58 469.63 C 281.27 496.53 238.75 511.44 195.99 512.00 L 190.94 512.00 C 161.87 511.27 132.84 504.41 106.90 491.16 C 62.28 468.83 26.92 428.58 10.78 381.34 C 3.95 361.79 0.46 341.08 0.00 320.39 L 0.00 316.26 C 0.50 273.39 15.43 230.76 42.41 197.38 C 65.74 167.80 98.01 145.59 133.72 133.73 C 148.58 88.58 180.43 49.26 221.80 25.78 C 250.28 9.21 283.09 0.56 315.98 0.00 M 253.58 61.48 C 225.94 74.89 202.88 97.23 188.23 124.20 C 214.17 123.57 240.26 128.06 264.41 137.55 C 314.21 156.81 355.09 197.69 374.40 247.46 C 383.91 271.65 388.43 297.79 387.80 323.77 C 411.69 310.75 432.03 291.21 445.61 267.60 C 457.40 247.41 464.13 224.34 465.23 201.00 C 466.52 172.28 459.43 143.15 444.49 118.55 C 426.99 88.94 398.69 65.93 366.18 54.76 C 329.74 41.97 288.22 44.34 253.58 61.48 M 53.97 272.03 C 42.41 306.77 44.60 345.84 59.93 379.07 C 70.45 402.17 87.05 422.49 107.66 437.32 C 137.03 458.88 174.65 468.65 210.82 464.42 C 237.00 461.51 262.27 451.23 283.17 435.22 C 299.89 422.54 313.70 406.18 323.77 387.80 C 268.22 389.49 212.41 366.06 175.24 324.67 C 141.22 288.19 122.79 238.02 124.20 188.23 C 91.34 205.99 65.54 236.47 53.97 272.03 Z" />
</g>
</svg>
