<svg version="1.1" xmlns="http://www.w3.org/2000/svg" width="1024" height="1024" viewBox="0 0 1024 1024">
<path d="M960.012 0q27.506 0 45.747 18.241t18.241 45.747q0 27.026-18.481 45.507l-403.033 402.505 403.033 402.505q18.481 18.481 18.481 45.507 0 27.506-18.241 45.747t-45.747 18.241q-27.026 0-45.507-18.481l-402.505-403.033-402.505 403.033q-18.481 18.481-45.507 18.481-27.506 0-45.747-18.241t-18.241-45.747q0-27.026 18.481-45.507l403.033-402.505-403.033-402.505q-18.481-18.481-18.481-45.507 0-27.506 18.241-45.747t45.747-18.241q27.026 0 45.507 18.481l402.505 403.033 402.505-403.033q18.481-18.481 45.507-18.481z"></path>
</svg>
