<svg version="1.1" xmlns="http://www.w3.org/2000/svg" width="1024" height="1024" viewBox="0 0 1024 1024">
  <path
    d="M698.182 465.454c77.266 0 139.171-62.371 139.171-139.636s-61.906-139.636-139.171-139.636c-77.266 0-139.636 62.371-139.636 139.636s62.371 139.636 139.636 139.636zM325.818 465.454c77.266 0 139.171-62.371 139.171-139.636s-61.906-139.636-139.171-139.636c-77.266 0-139.636 62.371-139.636 139.636s62.371 139.636 139.636 139.636zM325.818 558.546c-108.451 0-325.818 54.458-325.818 162.909v116.364h651.636v-116.364c0-108.451-217.367-162.909-325.818-162.909zM698.182 558.546c-13.498 0-28.858 0.931-45.149 2.327 53.992 39.098 91.694 91.694 91.694 160.582v116.364h279.273v-116.364c0-108.451-217.367-162.909-325.818-162.909z"></path>
</svg>
