<svg version="1.1" xmlns="http://www.w3.org/2000/svg" width="32" height="32" viewBox="0 0 32 32">
  <title>delivery</title>
  <path
    d="M29.434 19.067v-3.999h-8.469v-1.694h3.891v-5.091c-2.018-0.028-5.034-0.047-8.356-0.057-0.63-3.265-2.639-5.175-5.961-5.73h-1.346q-5.020 0.847-5.98 5.744c-1.331 0-2.080 0-3.194 0.038v17.878c0.668-0.099 5.73 0.137 6.239 0s1.063-1.016 1.346-1.299c0.122-0.122 0.395-0.23 0.301-0.4h-6.117v-14.482h1.412c0.786 4.314 4.366 5.83 6.615 8.681h0.099c2.23-2.879 5.89-4.328 6.648-8.68h6.587c0.008 0.151 0.012 0.327 0.012 0.505 0 0.418-0.023 0.832-0.067 1.239l-3.835-0.050v12.769h-7.777c0.391 0.273 1.078 1.534 1.746 1.694 0.494 0.117 3.171 0 3.891 0h4.188c0.767 0 1.623 0.127 2.093 0s1.068-1.016 1.346-1.299c0.117-0.117 0.395-0.235 0.301-0.4h-4.088c0.033-1.115-0.066-2.352 0.052-3.392h7.132c0.758 0 1.586-0.15 2.146 0.25-0.033 1.030 0.066 2.192-0.052 3.143h-1.595c0.433 0.311 1.063 1.529 1.746 1.694 0.471 0.113 0.941-0.080 1.595 0v-5.674c-0.866-0.447-1.736-0.917-2.546-1.388zM9.882 16.376c-1.045-0.88-2.037-1.986-3.091-3.044s-2.037-2.141-2.046-4.088c-0.002-0.053-0.003-0.116-0.003-0.179 0-2.824 2.29-5.114 5.114-5.114s5.114 2.29 5.114 5.114c0 0.045-0.001 0.089-0.002 0.133 0.009 3.668-3.542 4.943-5.085 7.164zM23.451 19.317h-2.493v-2.493h2.493v2.493zM27.741 19.317h-2.546v-2.493h2.546v2.493zM9.383 26.186c-0.802 0.155-1.399 0.851-1.399 1.688 0 0.256 0.057 0.5 0.157 0.718 0.668 1.49 3.143 1.019 3.289-0.561 0.010-0.068 0.015-0.147 0.015-0.227 0-0.92-0.746-1.666-1.666-1.666-0.141 0-0.278 0.018-0.408 0.051zM26.541 26.186c-0.802 0.137-1.405 0.826-1.405 1.657 0 0.211 0.039 0.413 0.11 0.599 0.547 1.79 3.652 1.197 3.336-0.911-0.164-0.794-0.857-1.382-1.689-1.382-0.125 0-0.247 0.014-0.365 0.039zM9.482 6.689c-1.23 0.118-2.185 1.144-2.192 2.394-0.155 3.444 5.175 3.491 5.138 0.1-0.012-1.397-1.147-2.526-2.545-2.526-0.141 0-0.28 0.012-0.415 0.034zM8.936 9.512c-0.026-0.084-0.042-0.182-0.042-0.284 0-0.541 0.438-0.979 0.979-0.979 0.408 0 0.759 0.251 0.905 0.606 0.364 1.432-1.532 1.677-1.846 0.675z"></path>
</svg>
