<?xml version="1.0" encoding="UTF-8"?>
<!DOCTYPE svg PUBLIC "-//W3C//DTD SVG 1.1//EN" "http://www.w3.org/Graphics/SVG/1.1/DTD/svg11.dtd">
<!-- Creator: CorelDRAW X7 -->
<svg xmlns="http://www.w3.org/2000/svg" xml:space="preserve" width="201px" height="203px" version="1.1" style="shape-rendering:geometricPrecision; text-rendering:geometricPrecision; image-rendering:optimizeQuality; fill-rule:evenodd; clip-rule:evenodd"
viewBox="0 0 201 203"
 xmlns:xlink="http://www.w3.org/1999/xlink">
 <defs>
  <style type="text/css">
   <![CDATA[
    .str4 {stroke:black;stroke-width:3.99926}
    .str2 {stroke:#000066;stroke-width:7.9997}
    .str3 {stroke:#663333;stroke-width:7.9997}
    .str0 {stroke:#6666CC;stroke-width:7.9997}
    .str7 {stroke:#929597;stroke-width:7.9997}
    .str6 {stroke:black;stroke-width:4.99967}
    .str5 {stroke:black;stroke-width:2.99885}
    .str1 {stroke:#003399;stroke-width:7.9997;stroke-linejoin:round}
    .fil0 {fill:none}
    .fil1 {fill:#929597}
   ]]>
  </style>
 </defs>
 <g id="Слой_x0020_1">
  <metadata id="CorelCorpID_0Corel-Layer"/>
  <path class="fil0 str0" d="M-52 757l172 0m-137 -75l94 0m-137 50l0 -36c0,-15 12,-14 12,-14l29 0 0 -22c2,-8 9,-9 9,-9l21 0 0 -30c-12,-1 -29,-8 -30,-19l0 -9c0,-14 19,-19 30,-19l39 0c11,0 29,5 29,19l0 9c0,11 -18,18 -29,19l0 30 20 0c0,0 7,1 9,9l0 22 30 0c0,0 12,-1 11,14l0 36 -180 0z"/>
  <path class="fil0 str1" d="M-533 599c3,3 41,27 94,0l-1 47c0,0 2,84 -94,133 -95,-49 -94,-133 -94,-133l-1 -47c53,27 92,3 95,0 0,0 0,0 1,0zm-31 79l26 26 50 -50"/>
  <path class="fil0 str2" d="M589 753c0,0 19,1 21,21m113 -21c0,0 -18,1 -21,21m21 -56c0,0 -18,-2 -21,-21m-46 68c-14,0 -26,-13 -26,-29 0,-17 12,-30 26,-30 14,0 26,13 26,30 0,16 -12,29 -26,29zm-70 -72l0 85 141 0 0 -85 -141 0zm3 25c0,0 19,-2 21,-21m130 -17c0,0 -18,-2 -21,-22m-68 24c4,-8 13,-14 22,-14 10,0 18,6 22,14m49 58l0 -86 -141 0 0 28m3 -2c0,0 19,-2 21,-22m131 -18c0,0 -18,-1 -20,-21m-69 24c4,-9 13,-15 22,-15 10,0 18,6 23,15m48 57l0 -85 -141 0 0 28m4 -3c0,0 18,-1 20,-21"/>
  <path class="fil0 str3" d="M397 664l20 20 -56 56 -20 -20 56 -56zm25 -7c-23,-23 -23,-60 0,-83 23,-23 60,-23 83,0 23,23 23,60 0,83 -23,23 -60,23 -83,0zm12 -19c-11,-15 -10,-36 4,-49 13,-13 34,-14 48,-3m8 8c10,14 9,34 -4,47 -13,13 -33,15 -48,4m-19 13l-16 16"/>
  <path class="fil1" d="M431 219l51 0c2,0 4,1 6,2l-26 26 -11 0 -27 -25c2,-2 4,-3 7,-3zm62 7c1,2 1,4 1,5l0 29c0,2 -1,4 -2,6l-23 -16 24 -24zm-6 44c-1,1 -3,2 -5,2l-51 0c-1,0 -2,-1 -3,-1l21 -18 4 3 7 0 4 -2 23 16zm-66 -3c-1,-2 -2,-4 -2,-7l0 -29c0,-1 0,-3 1,-5l23 23 -22 18z"/>
  <path class="fil1" d="M2296 370l28 -13c2,-1 4,0 4,1l24 50c1,2 0,3 -1,4l-28 14c-2,0 -3,0 -4,-2l-24 -50c-1,-1 0,-3 1,-4zm6 4l21 -10c2,-1 3,-1 3,0l16 34c1,1 0,2 -1,3l-21 10c-1,0 -2,0 -3,-1l-16 -33c-1,-1 0,-3 1,-3z"/>
  <g id="_2416633274080">
   <polygon class="fil1" points="2554,405 2662,405 2662,418 2554,418 "/>
   <polygon class="fil1" points="2554,379 2662,379 2662,392 2554,392 "/>
   <polygon class="fil1" points="2554,354 2662,354 2662,367 2554,367 "/>
  </g>
  <path class="fil0 str4" d="M811 86c0,-2 -69,64 -69,64l-8 1 -9 9 -3 8 -3 7 -5 3 -6 1 -1 5 5 3 11 3 12 -2 8 -4 5 -9 3 -9 2 -6 64 -67 0 -5 -6 -2zm-144 51l78 0 13 -13 -95 0c-3,0 -6,2 -6,6l0 78c0,3 3,5 6,5l139 0c3,0 6,-2 6,-5l0 -78c0,-4 -3,-6 -6,-6l-4 0 -13 13 11 0 0 66 -129 0 0 -66zm-10 -22l111 0 14 -13 -128 0c-10,0 -18,8 -18,17l0 101c0,10 8,17 18,17l49 0 -7 10c0,0 -2,8 5,11l61 0c0,0 9,-4 6,-13l-7 -8 49 0c10,0 17,-7 17,-17l0 -101c0,-7 -4,-13 -9,-15l-12 11 1 0c5,0 8,4 8,8l0 94c0,5 -3,8 -8,8l-150 0c-5,0 -8,-3 -8,-8l0 -94c0,-4 3,-8 8,-8zm56 123l-5 7 1 3 47 0 1 -2 -5 -8 -39 0z"/>
  <path class="fil0 str4" d="M-74 -151l20 11 23 -8 -20 -20 2 -5 11 -4 38 19 39 -14 11 1 5 5 -1 5 -92 35 -25 -2 -16 -15 0 -7 5 -1zm-9 -90l138 0c11,0 21,9 21,21l0 133c0,6 -5,11 -11,11l-158 0c-6,0 -11,-5 -11,-11l0 -133c0,-12 10,-21 21,-21zm-5 36l150 0 0 112 -150 0 0 -112zm107 -10c-4,0 -7,-3 -7,-7 0,-4 3,-7 7,-7 4,0 7,3 7,7 0,4 -3,7 -7,7zm19 0c-4,0 -7,-3 -7,-7 0,-4 3,-7 7,-7 4,0 7,3 7,7 0,4 -3,7 -7,7zm19 0c-4,0 -7,-3 -7,-7 0,-4 3,-7 7,-7 4,0 8,3 8,7 0,4 -4,7 -8,7z"/>
  <path class="fil0 str4" d="M-273 174l31 0 0 8 -31 0 0 -8zm154 0l12 0 0 8 -12 0 0 -8zm-152 19l38 0 0 -29 -51 0 0 147c0,7 5,12 11,12l170 0c6,0 11,-5 11,-12l0 -147 -110 0 0 29 94 0c1,0 3,1 3,3l0 112c0,2 -2,3 -3,3l-163 0c-1,0 -2,-1 -2,-3l0 -112c0,-2 1,-3 2,-3zm50 -48l9 0c1,0 3,1 3,3l0 90 15 -15 1 0 9 10 0 1 -30 30 -4 0 -31 -29 0 -3 9 -9 1 0 15 14 0 -89c0,-2 2,-3 3,-3zm81 99c-6,0 -11,-5 -11,-11 0,-6 5,-11 11,-11 6,0 11,5 11,11 0,6 -5,11 -11,11zm-28 -20l6 -11c0,0 1,-1 2,0l5 3c2,-2 4,-3 7,-4l0 -7c0,-1 0,-1 1,-1l13 0c1,0 1,0 1,1l0 6c3,1 5,3 7,4l6 -3c0,-1 1,0 2,0l6 11c0,1 0,2 0,2l-6 3c0,2 1,3 1,5 0,1 0,2 -1,3l6 3c1,1 1,2 1,2l-7 11c0,1 -1,1 -2,1l-5 -3c-2,1 -4,3 -7,4l0 6c0,1 0,2 -1,2l-13 0c0,0 -1,-1 -1,-2l0 -6c-3,-1 -5,-2 -7,-4l-6 4c0,0 -1,0 -1,-1l-7 -11c0,-1 0,-1 1,-2l5 -3c0,-1 0,-3 0,-4 0,-1 0,-3 0,-4l-6 -3c0,0 -1,-1 0,-2zm-96 49l149 0c1,0 1,1 1,2l0 6c0,1 0,2 -1,2l-149 0c-1,0 -2,-1 -2,-2l0 -6c0,-1 1,-2 2,-2zm0 16l149 0c1,0 1,0 1,1l0 7c0,1 0,1 -1,1l-149 0c-1,0 -2,0 -2,-1l0 -7c0,-1 1,-1 2,-1z"/>
  <path class="fil0 str4" d="M1223 -8l90 0 0 37 -9 0c-7,0 -11,5 -11,11l0 2c0,6 4,11 11,11l9 0 0 1 -9 0c-7,0 -11,5 -11,11l0 1c0,6 4,11 11,11l9 0 0 1 -9 0c-7,0 -11,5 -11,11l0 2c0,6 4,11 11,11l9 0 0 2 -9 0c-7,0 -11,5 -11,11l0 2c0,6 4,11 11,11l9 0 0 5 -90 0 0 -85 31 -25 8 -11c2,-6 -7,-14 -9,-14 -2,-1 -10,1 -10,1l-20 15 0 -22zm102 37l4 0c6,0 10,5 10,11l0 2c0,6 -4,11 -10,11l-4 0 0 1 4 0c6,0 10,5 10,11l0 1c0,6 -4,11 -10,11l-4 0 0 1 4 0c6,0 10,5 10,11l0 2c0,6 -4,11 -10,11l-4 0 0 2 4 0c6,0 10,5 10,11l0 2c0,6 -4,11 -10,11l-4 0 0 14c0,9 -8,16 -16,16l-81 0c-9,0 -16,-7 -16,-16l0 -10c-3,0 -7,0 -12,0 -24,0 -46,-19 -46,-54 -1,-36 30,-46 30,-46l28 -14 0 -39c0,-7 5,-12 12,-12l89 0c6,0 12,5 12,12l0 50zm-71 -50l29 0 0 4 -29 0 0 -4zm11 162l9 0 0 9 -9 0 0 -9z"/>
  <path class="fil0 str4" d="M-455 69l16 103c0,0 2,10 12,10l106 0c0,0 18,-11 -1,-20l-91 0 -7 0 0 -11 107 1c0,0 10,-2 11,-17 0,0 7,-60 9,-60 1,0 -12,-9 -12,-9l-128 1 -1 -10 -7 -7 -5 -2 -23 1 -7 4 -3 4 0 6 3 4 8 2 13 0zm42 150c-9,0 -16,-7 -16,-16 0,-9 7,-16 16,-16 9,0 16,7 16,16 0,9 -7,16 -16,16zm85 0c-9,0 -16,-7 -16,-16 0,-9 7,-16 16,-16 9,0 16,7 16,16 0,9 -7,16 -16,16zm-103 -131l3 16 28 0 -1 -6 0 -10 -30 0zm6 28l3 16 24 0 -2 -16 -25 0zm39 16l23 0 0 -16 -24 0 1 16zm37 0l25 0 2 -16 -27 0 0 16zm29 -28l3 -16 -32 0 0 16 29 0zm-44 -16l-24 0 1 16 23 0 0 -16z"/>
  <path class="fil0 str4" d="M276 -15l145 0c11,0 20,9 20,20l0 130c0,6 -4,10 -10,10l-165 0c-6,0 -11,-4 -11,-10l0 -130c0,-11 10,-20 21,-20zm91 26c-3,0 -6,-3 -6,-7 0,-3 3,-6 6,-6 4,0 7,3 7,6 0,4 -3,7 -7,7zm25 0c-4,0 -6,-3 -6,-7 0,-3 2,-6 6,-6 3,0 6,3 6,6 0,4 -3,7 -6,7zm22 0c-3,0 -6,-3 -6,-7 0,-3 3,-6 6,-6 4,0 7,3 7,6 0,4 -3,7 -7,7zm-143 12l155 0 0 99c0,6 -4,11 -10,11l-134 0c-6,0 -11,-5 -11,-11l0 -99zm12 12l60 0 0 61 -60 0 0 -61zm24 32c-5,-2 -8,-7 -8,-13 0,-7 6,-14 14,-14 7,0 14,7 14,14 0,6 -4,11 -9,13l4 5 2 0c3,0 6,3 6,6l0 6 -34 0 0 -6c0,-3 3,-6 6,-6l2 0 3 -5zm-24 35l60 0 0 6 -60 0 0 -6zm0 12l60 0 0 7 -60 0 0 -7zm78 0l56 0 0 7 -56 0 0 -7zm0 -12l56 0 0 6 -56 0 0 -6zm0 -13l56 0 0 7 -56 0 0 -7zm0 -12l56 0 0 7 -56 0 0 -7zm0 -12l56 0 0 7 -56 0 0 -7zm0 -12l56 0 0 6 -56 0 0 -6zm0 -13l32 0 0 7 -32 0 0 -7z"/>
  <path class="fil0 str4" d="M83 265l153 0c11,0 19,8 19,18l0 106c0,10 -8,19 -19,19l-153 0c-10,0 -18,-9 -18,-19l0 -106c0,-10 8,-18 18,-18zm-5 13l135 0 0 21 -135 0 0 -21zm155 23c-7,0 -12,-5 -12,-11 0,-7 5,-12 12,-12 6,0 11,5 11,12 0,6 -5,11 -11,11zm-151 10l158 0c2,0 3,2 3,3l0 77c0,3 -3,6 -6,6l-153 0c-3,0 -5,-3 -5,-5l0 -78c0,-1 1,-3 3,-3zm11 27l9 0 3 18 5 -18 9 0 5 18 4 -18 9 0 -7 31 -10 0 -5 -19 -6 19 -9 0 -7 -31zm44 0l9 0 3 18 5 -18 9 0 5 18 3 -18 9 0 -7 31 -9 0 -6 -19 -5 19 -9 0 -7 -31zm43 0l9 0 4 18 5 -18 9 0 5 18 3 -18 9 0 -7 31 -9 0 -6 -19 -5 19 -10 0 -7 -31z"/>
  <path class="fil0 str5" d="M-400 -180l30 0 0 8 -30 0 0 -8zm-34 24l41 0 0 7 -41 0 0 -7zm0 -12l64 0 0 8 -64 0 0 -8zm0 -12l27 0 0 8 -27 0 0 -8zm0 -11l63 0 0 7 -63 0 0 -7zm0 -13l26 0 0 7 -26 0 0 -7zm0 -12l63 0 0 8 -63 0 0 -8zm0 -12l63 0 0 8 -63 0 0 -8zm-47 58l16 0 0 8 -16 0 0 -8zm0 -11l35 0 0 7 -35 0 0 -7zm0 -23l20 0 0 7 -20 0 0 -7zm0 -12l35 0 0 8 -35 0 0 -8zm0 -12l35 0 0 8 -35 0 0 -8zm-32 47l25 0 0 31 -25 0 0 -31zm0 -47l25 0 0 32 -25 0 0 -32zm87 -33l48 -16 0 32 -48 -16zm-53 18l40 -14 43 14 -83 0zm23 -19l-51 18 0 -33 51 15zm54 -18l-41 14 -42 -14 83 0zm-111 -5l142 0 0 48 -142 0 0 -48zm-9 -10l162 0 0 156 -162 0 0 -156zm-5 -15l170 0c6,0 11,5 11,11l0 162c0,6 -5,11 -11,11l-170 0c-5,0 -10,-5 -10,-11l0 -162c0,-6 5,-11 10,-11z"/>
  <path class="fil0 str6" d="M482 24l100 0c2,0 3,1 3,3l0 100c0,2 -1,4 -3,4l-100 0c-2,0 -3,-2 -3,-4l0 -100c0,-2 1,-3 3,-3zm-1 25l103 0m-91 -14l4 0 0 4 -4 0 0 -4zm16 0l4 0 0 4 -4 0 0 -4zm11 0l4 0 0 4 -4 0 0 -4z"/>
  <path class="fil0 str6" d="M-348 -76l116 0c3,0 5,2 5,5l0 72c0,2 -2,4 -5,4l-116 0c-3,0 -5,-2 -5,-4l0 -72c0,-3 2,-5 5,-5zm17 45l17 -13 18 4 14 2 36 -22m-81 42l11 0 0 11 -11 0 0 -11zm22 -11l11 0 0 22 -11 0 0 -22zm24 7l10 0 0 15 -10 0 0 -15zm19 -18l11 0 0 33 -11 0 0 -33zm-33 46c0,2 0,5 -1,7 -1,2 -2,3 -4,5 -1,2 -3,4 -5,6 -2,2 -3,2 -3,3 -1,0 -1,0 3,0 3,0 10,0 17,0 7,0 14,0 17,0 4,0 4,0 3,0 0,-1 -1,-1 -3,-3 -2,-2 -4,-4 -6,-6 -1,-2 -2,-3 -3,-5 -1,-2 -1,-5 -1,-7"/>
  <path class="fil0 str6" d="M541 -120l38 0 0 44 -38 0c-3,0 -6,-2 -6,-5l0 -33c0,-3 3,-6 6,-6zm38 0l60 -29 0 103 -60 -30m24 11c-3,11 -13,19 -24,19 -14,0 -24,-12 -24,-26 0,-1 0,-3 0,-4"/>
  <path class="fil0 str6" d="M-25 -560c0,3 0,5 -1,7 0,2 -1,4 -3,6 -2,2 -4,4 -5,5 -2,2 -3,3 -4,3 0,0 0,0 4,0 3,0 10,0 16,0 7,0 14,0 17,0 3,0 4,0 3,0 0,0 -1,-1 -3,-3 -2,-1 -4,-3 -5,-5 -2,-2 -3,-4 -4,-6 0,-2 -1,-4 -1,-7m-66 -80l114 0c3,0 5,2 5,5l0 70c0,3 -2,5 -5,5l-114 0c-2,0 -4,-2 -4,-5l0 -70c0,-3 2,-5 4,-5zm18 62l0 -13m10 13l0 -39m10 39l0 -22m10 22l0 -30m11 30l0 -44m31 5l3 3 8 5 0 5 1 9 -4 2 -6 7 -5 -2 -9 0 -1 -5 -5 -7 2 -4 3 -9 4 -1 9 -3z"/>
  <path class="fil0 str4" d="M326 -177l-45 114 -1 4 1 4 4 4 5 1 6 0 4 -4 43 -112 0 -7 -2 -4 -5 -3 -4 0 -4 1 -2 2zm-50 30l-31 32 29 30 2 4 0 3 -2 5 -4 3 -6 0 -6 -3 -39 -40 0 -5 45 -43 4 0 5 3 4 4 1 5 -2 2zm73 0l32 32 -30 30 -2 4 0 3 2 5 5 3 6 0 5 -3 40 -40 0 -5 -45 -43 -4 0 -5 3 -5 4 -1 5 2 2z"/>
  <path class="fil0 str4" d="M22 6l117 0 27 43 24 52 -22 47 -32 49 -113 0c-7,0 -12,-6 -12,-12l0 -168c0,-6 5,-11 11,-11zm45 62l47 0 0 7 -47 0 0 -7zm0 15l47 0 0 6 -47 0 0 -6zm0 14l47 0 0 6 -47 0 0 -6zm-25 -49l97 0 0 104 -21 0 0 -30 -30 0 0 30 -19 0 0 -29 -7 0 0 29 -20 0 0 -104z"/>
  <path class="fil0 str4" d="M2723 -412c-23,-8 -41,-29 -47,-54l0 -33c6,-28 29,-50 57,-57l33 0c12,3 23,9 32,16l-22 24c-7,-5 -17,-9 -27,-9 -23,0 -42,19 -42,43 0,23 19,42 42,42 18,0 34,-11 40,-26l-43 0 0 -31 72 0 0 46c-8,18 -24,32 -42,39l-53 0z"/>
  <path class="fil0 str4" d="M-112 410c2,0 6,0 9,1 4,0 6,0 8,1 2,1 4,2 5,3 0,1 1,1 1,1 1,0 2,-1 6,-4 4,-4 11,-11 15,-15 4,-4 5,-5 7,-5 1,-1 4,-2 6,-2 2,0 5,1 7,1 2,1 4,2 6,3 2,1 3,2 5,4 1,1 2,3 3,5 1,2 1,4 1,7 0,3 -1,6 -3,8 -2,3 -4,6 -12,13 -8,8 -21,20 -28,26 -7,6 -9,7 -11,8 -2,1 -3,1 -5,1 -2,0 -4,0 -6,-2 -2,-1 -4,-3 -6,-5 -2,-1 -4,-2 -6,-3 -1,0 -3,0 -5,1 -2,0 -4,2 -6,3 -1,2 -2,3 -3,4 -1,1 -2,2 -1,4 0,1 1,3 3,5 2,2 5,5 8,7 4,2 7,4 10,5 3,1 6,1 9,1 3,1 5,1 9,0 4,0 8,-1 12,-2 4,-2 8,-3 12,-7 5,-4 11,-10 19,-19 8,-9 18,-21 24,-27 5,-6 6,-7 7,-9 1,-1 1,-4 2,-7 0,-4 0,-8 -1,-12 0,-3 -1,-7 -2,-10 -1,-3 -3,-6 -6,-9 -2,-3 -6,-6 -9,-8 -3,-2 -6,-4 -10,-5 -3,-1 -6,-1 -10,-1 -4,-1 -8,0 -12,0 -3,0 -6,1 -8,2 -3,0 -6,1 -10,4 -4,2 -9,6 -13,11 -5,5 -10,10 -14,13 -3,4 -5,6 -7,7 -1,2 -1,3 0,3zm27 91c-2,0 -6,0 -9,0 -3,0 -6,-1 -8,-2 -2,-1 -3,-2 -4,-3 -1,-1 -1,-1 -2,-1 0,1 -1,1 -5,5 -4,3 -11,10 -15,14 -4,4 -5,5 -7,6 -2,1 -4,1 -6,1 -3,0 -5,0 -7,-1 -3,0 -5,-1 -7,-2 -1,-1 -3,-3 -4,-4 -1,-2 -2,-4 -3,-6 -1,-2 -2,-4 -1,-7 0,-2 1,-5 2,-8 2,-3 5,-6 13,-13 8,-7 21,-19 28,-26 7,-6 9,-7 10,-8 2,0 4,-1 6,-1 1,0 3,1 5,2 2,1 5,4 7,5 2,2 3,3 5,3 2,0 3,0 5,0 2,-1 5,-2 6,-4 2,-1 3,-3 4,-4 1,-1 1,-2 1,-3 0,-2 -1,-4 -3,-6 -2,-2 -6,-4 -9,-6 -3,-3 -6,-4 -10,-5 -3,-1 -6,-2 -8,-2 -3,0 -6,0 -9,0 -4,1 -9,1 -13,3 -4,1 -7,3 -12,7 -4,4 -10,10 -18,18 -8,9 -19,21 -24,27 -6,7 -6,8 -7,9 -1,2 -2,4 -2,8 0,3 0,7 0,11 1,4 2,7 3,10 1,3 2,6 5,9 3,3 6,6 10,9 3,2 6,3 9,4 3,1 7,2 11,2 4,0 8,0 11,-1 4,0 6,0 9,-1 3,-1 5,-2 9,-4 4,-3 9,-7 14,-12 5,-4 10,-9 13,-13 4,-3 6,-5 7,-7 2,-1 2,-2 0,-3z"/>
  <path class="fil0 str4" d="M3123 -549c-2,1 -5,3 -6,8 -2,5 -2,13 -2,22 0,9 1,20 2,26 1,7 3,8 4,11 1,3 2,6 2,10 0,4 0,9 -2,15 -1,6 -3,13 -5,18 -3,5 -4,7 -6,10 -1,2 -1,5 -1,7 1,2 1,4 3,5 1,1 3,2 4,1 2,0 3,0 5,-2 2,-2 4,-5 6,-10 3,-6 5,-13 7,-19 2,-5 3,-8 3,-12 1,-3 0,-7 0,-10 0,-4 -1,-7 -1,-9 0,-2 1,-4 1,-4 0,0 1,0 1,2 1,2 1,5 2,9 1,4 2,10 3,15 0,6 0,11 0,15 0,4 0,8 1,10 0,2 1,2 2,3 1,0 3,1 5,1 1,-1 3,-2 4,-3 1,-2 2,-4 2,-7 1,-4 2,-8 2,-13 -1,-6 -1,-14 -3,-19 -1,-6 -3,-9 -5,-11 -1,-3 -2,-5 -3,-8 -1,-2 -1,-5 -1,-13 0,-7 0,-19 0,-25 1,-6 1,-7 2,-7 1,0 3,0 6,1 3,0 8,0 12,0 4,0 8,-1 11,-2 3,-1 5,-3 8,-4 3,-2 5,-3 7,-4 1,-1 2,-3 2,-5 0,-2 -1,-5 -2,-6 -1,-2 -3,-2 -5,-2 -2,0 -5,1 -8,2 -3,1 -6,2 -9,3 -4,1 -7,2 -10,3 -3,0 -4,1 -6,1 -1,0 -2,0 -4,0 -2,0 -4,-1 -6,-2 -1,-1 -2,-1 -4,-2 -1,-1 -3,-1 -6,-1 -2,-1 -5,-1 -7,0 -2,0 -3,0 -5,2zm9 -8c-9,0 -17,-7 -17,-16 0,-9 8,-17 17,-17 9,0 16,8 16,17 0,9 -7,16 -16,16zm29 -14l71 0 0 -8 9 0 0 8 74 0 0 9 -154 0 0 -9zm3 97l150 0 0 8 -67 0 0 8 34 38 -6 5 -28 -31 0 40 -8 0 0 -40 -28 31 -6 -5 34 -38 0 -8 -75 0 0 -8zm136 -84l0 80m-123 0l0 -52m11 11c7,-1 13,-3 17,-4 5,-1 7,-1 9,-1 3,1 6,3 8,5 3,3 5,5 7,7 3,3 5,5 7,5 1,1 2,1 4,-2 2,-2 6,-6 8,-9 2,-3 4,-5 6,-5 2,0 4,1 6,2 2,2 5,5 6,7 2,1 3,2 5,1 1,-2 4,-5 7,-9 3,-3 6,-7 10,-10"/>
  <path class="fil0 str4" d="M-258 -370c5,6 11,18 16,26 5,9 9,14 12,17 2,3 4,3 6,3 1,-1 3,-2 4,-4 1,-3 2,-7 3,-12 0,-6 0,-14 0,-18 -1,-5 -2,-6 -4,-7 -1,-1 -3,-3 -5,-4 -2,-1 -4,-2 -5,-3 -1,-1 -1,-2 1,-3 1,-1 3,-2 10,-2 7,-1 19,-1 26,0 6,0 8,0 9,0 1,1 2,2 2,3 0,2 0,4 0,11 0,8 0,21 0,28 0,6 0,7 1,8 1,0 3,1 4,1 2,0 3,0 5,-1 2,0 3,-1 8,-9 5,-7 13,-22 17,-29 5,-8 6,-9 7,-9 1,-1 2,-1 8,-1 6,0 16,0 22,0 6,1 7,1 8,2 1,1 2,2 2,3 1,2 0,3 0,5 -1,2 -3,5 -8,12 -6,7 -14,19 -19,25 -5,6 -6,8 -6,9 0,2 0,3 1,5 1,1 2,4 7,9 5,6 14,15 18,20 5,5 5,6 5,7 0,2 0,3 -1,4 0,2 -1,4 -9,4 -7,1 -20,1 -27,0 -7,0 -7,0 -9,-1 -2,-2 -4,-4 -7,-8 -3,-3 -6,-7 -8,-10 -2,-2 -3,-4 -5,-4 -1,-1 -3,-1 -5,-1 -1,0 -3,1 -4,3 -1,2 -2,4 -3,7 -1,2 -2,5 -3,7 -1,2 -2,4 -3,5 -1,1 -3,2 -8,2 -5,0 -15,0 -20,0 -6,-1 -8,-1 -11,-4 -4,-2 -10,-6 -17,-12 -6,-7 -14,-16 -21,-26 -7,-10 -14,-22 -19,-31 -5,-10 -7,-16 -9,-20 -1,-4 -1,-6 -1,-8 0,-1 1,-2 3,-3 1,-1 2,-1 5,-1 4,-1 8,-1 13,-1 4,0 9,0 14,6z"/>
  <path class="fil0 str4" d="M661 -493l167 0c5,0 9,4 9,9l0 169c0,5 -4,10 -9,10l-44 0 0 -72 23 0 4 -31 -27 0 0 -28 28 0 0 -28c0,-2 -2,-4 -5,-4l-28 0 -7 1 -5 1 -5 3 -4 3 -3 4 -3 6 -3 6 -1 6 0 30 -25 0 0 31 25 0 0 72 -88 0c-5,0 -9,-5 -9,-10l0 -167c0,-6 4,-11 10,-11z"/>
  <path class="fil0 str4" d="M142 -430l143 0c12,0 22,10 22,22l0 144c0,12 -10,22 -22,22l-143 0c-12,0 -22,-10 -22,-22l0 -144c0,-12 10,-22 22,-22zm0 78l17 0 0 25c0,2 0,3 0,4 0,26 24,48 55,48 29,0 53,-20 55,-44l0 0 0 0c0,-1 0,-3 0,-4 0,-1 0,-2 0,-3l0 -26 18 0 0 86 -145 0 0 -86zm113 -55l27 0c2,0 4,2 4,4l0 28c0,2 -2,4 -4,4l-27 0c-3,0 -4,-2 -4,-4l0 -28c0,-2 1,-4 4,-4zm-41 107c-20,0 -36,-16 -36,-36 0,-20 16,-36 36,-36 20,0 36,16 36,36 0,20 -16,36 -36,36z"/>
  <polyline class="fil0 str7" points="787,491 718,491 718,289 1351,289 1351,491 1283,491 "/>
  <path class="fil1" d="M800 561l0 -1c1,-1 2,-1 4,-2l0 -25c-1,0 -2,0 -2,0 -1,-1 -1,-1 -2,-1l0 -1 5 0c0,0 1,0 1,0 1,0 2,0 2,0 1,0 2,0 2,0 1,0 1,0 2,0 5,0 8,1 11,3 3,3 4,7 4,11 0,3 -1,5 -1,7 -1,2 -2,3 -3,5 -1,1 -3,2 -5,3 -2,1 -4,1 -7,1 0,0 -1,0 -1,0 -1,0 -2,0 -2,0 -1,0 -1,0 -2,0 -1,0 -1,0 -2,0l-4 0zm11 -28c0,0 -1,0 -2,0 -1,0 -1,0 -1,0l0 26c0,0 0,0 0,0 1,0 1,0 2,0 0,0 0,0 1,0 0,0 0,0 1,0 1,0 3,0 4,-1 2,-1 3,-2 4,-3 1,-1 1,-3 2,-4 0,-2 0,-4 0,-6 0,-1 0,-2 0,-4 -1,-1 -1,-3 -2,-4 -1,-1 -2,-2 -4,-3 -1,-1 -3,-1 -5,-1zm41 28l-11 0 0 -1c1,-1 3,-1 4,-2l0 -25c-1,0 -1,0 -2,0 -1,0 -1,-1 -2,-1l0 -1 11 0 0 1c0,0 -1,1 -2,1 0,0 -1,0 -1,0l0 25c0,1 1,1 2,1 0,0 1,0 1,1l0 1zm38 -2c0,0 -1,0 -2,1 0,0 -1,0 -2,0 -1,1 -2,1 -2,1 -1,0 -2,0 -3,0 -2,0 -4,0 -6,-1 -2,0 -3,-1 -4,-2 -2,-2 -3,-3 -3,-5 -1,-2 -1,-5 -1,-7 0,-3 0,-5 1,-7 1,-2 2,-4 3,-5 1,-1 3,-2 5,-3 1,0 3,-1 5,-1 2,0 3,0 5,1 1,0 2,0 3,1 0,0 0,1 0,1 0,1 0,2 0,2 0,1 0,2 0,2 -1,1 -1,2 -1,2l-1 0 -2 -6c0,0 -1,0 -2,0 0,0 -1,0 -2,0 -1,0 -2,0 -4,0 -1,1 -2,2 -3,3 -1,1 -2,2 -2,4 -1,2 -1,4 -1,6 0,2 0,4 1,5 0,2 1,3 2,4 1,2 2,2 3,3 2,1 3,1 5,1 0,0 1,0 1,0 1,0 1,0 2,-1 0,0 1,0 1,0 0,0 0,0 0,0l0 -9c0,0 -1,0 -2,0 0,-1 -1,-1 -2,-1l0 -1 11 0 0 1c0,0 -1,0 -1,0 -1,1 -1,1 -2,1l0 10zm27 2l-11 0 0 -1c1,-1 2,-1 3,-2l0 -25c0,0 -1,0 -2,0 0,0 -1,-1 -1,-1l0 -1 11 0 0 1c-1,0 -1,1 -2,1 -1,0 -1,0 -2,0l0 25c1,1 1,1 2,1 1,0 1,0 2,1l0 1zm31 0l-12 0 0 -1c1,-1 1,-1 2,-1 1,0 1,0 2,-1l0 -25 -6 0 -3 6 -1 0c0,0 0,-1 0,-2 0,0 0,-1 0,-2 0,-1 0,-1 0,-2 0,-1 0,-2 0,-2l24 0c0,0 0,1 0,2 0,0 0,1 0,2 0,1 0,1 0,2 0,1 0,2 0,2l-1 0 -3 -6 -6 0 0 25c1,1 1,1 2,1 1,0 1,0 2,1l0 1zm26 0l-9 0 0 -1c1,-1 2,-1 3,-2l10 -28 2 0 10 28c1,1 1,1 2,1 0,0 1,0 1,1l0 1 -10 0 0 -1c0,-1 1,-1 1,-1 1,0 1,0 2,-1l-3 -7 -10 0 -3 7c2,1 3,1 4,2l0 1zm0 -13l8 0 -3 -9 -1 -3 0 0 -1 3 -3 9zm30 -17l12 0 0 1c-1,0 -2,1 -2,1 -1,0 -2,0 -2,0l0 26 9 0 3 -7 1 0c0,0 0,1 0,2 0,1 0,1 0,2 0,1 0,2 0,3 0,0 0,1 0,2l-21 0 0 -1c1,-1 1,-1 2,-1 1,0 1,0 2,-1l0 -25c-1,0 -2,0 -2,0 -1,0 -1,-1 -2,-1l0 -1zm62 30l-10 0 0 -1c1,-1 2,-1 3,-2l11 -28 1 0 11 28c0,1 1,1 1,1 1,0 2,0 2,1l0 1 -11 0 0 -1c1,-1 1,-1 2,-1 0,0 1,0 2,-1l-3 -7 -10 0 -3 7c1,1 2,1 4,2l0 1zm0 -13l8 0 -3 -9 -1 -3 0 0 -1 3 -3 9zm54 11c0,0 -1,0 -2,1 0,0 -1,0 -2,0 -1,1 -2,1 -2,1 -1,0 -2,0 -3,0 -2,0 -4,0 -6,-1 -1,0 -3,-1 -4,-2 -2,-2 -3,-3 -3,-5 -1,-2 -1,-5 -1,-7 0,-3 0,-5 1,-7 1,-2 2,-4 3,-5 1,-1 3,-2 5,-3 1,0 3,-1 5,-1 2,0 3,0 5,1 1,0 2,0 3,1 0,0 0,1 0,1 0,1 0,2 0,2 0,1 0,2 0,2 0,1 -1,2 -1,2l-1 0 -2 -6c0,0 -1,0 -1,0 -1,0 -2,0 -3,0 -1,0 -2,0 -4,0 -1,1 -2,2 -3,3 -1,1 -2,2 -2,4 -1,2 -1,4 -1,6 0,2 0,4 1,5 0,2 1,3 2,4 1,2 2,2 3,3 2,1 3,1 5,1 0,0 1,0 1,0 1,0 1,0 2,-1 0,0 1,0 1,0 0,0 0,0 1,0l0 -9c-1,0 -2,0 -3,0 0,-1 -1,-1 -2,-1l0 -1 11 0 0 1c0,0 -1,0 -1,0 -1,1 -1,1 -2,1l0 10zm35 -28c0,1 0,2 0,3 0,1 0,3 0,4l-1 0 -2 -5 -9 0 0 11 6 0 2 -3 1 0c0,3 0,6 0,9l-1 0 -2 -3 -6 0 0 12 9 0 2 -6 1 0c1,2 1,3 1,4 0,1 0,2 0,4l-21 0 0 -1c1,-1 2,-1 4,-2l0 -25c-1,0 -2,0 -2,0 -1,0 -1,-1 -2,-1l0 -1 20 0zm34 0l9 0 0 1c-1,1 -2,1 -3,2l0 27 -2 0 -16 -23 -1 -4 -1 0 1 4 0 20c1,0 2,1 3,2l0 1 -9 0 0 -1c0,-1 1,-1 2,-1 0,-1 1,-1 1,-1l0 -24c0,-1 -1,-1 -1,-1 -1,0 -1,-1 -2,-1l0 -1 7 0 14 20 2 4 0 0 0 -4 0 -17c-1,0 -2,-1 -2,-1 -1,0 -1,-1 -2,-1l0 -1zm44 22l1 0c0,1 0,2 1,3 0,1 0,2 0,4 -1,0 -1,0 -2,0 0,1 -1,1 -2,1 0,0 -1,0 -2,0 0,0 -1,0 -2,0 -2,0 -4,0 -6,-1 -2,0 -4,-1 -5,-2 -1,-2 -2,-3 -3,-5 0,-2 -1,-5 -1,-7 0,-3 1,-5 1,-7 1,-2 2,-4 3,-5 2,-1 3,-2 5,-3 2,0 3,-1 5,-1 2,0 4,0 5,1 1,0 2,0 3,1 0,0 0,1 0,1 0,1 0,2 0,2 0,1 0,2 0,2 0,1 0,2 0,2l-1 0 -3 -6c0,0 0,0 -1,0 -1,0 -2,0 -2,0 -2,0 -3,0 -4,0 -1,1 -3,2 -3,3 -1,1 -2,2 -3,4 0,2 -1,4 -1,6 0,2 1,4 1,5 1,2 1,3 2,4 1,2 2,3 4,3 1,1 3,1 5,1 0,0 1,0 2,0 0,0 1,-1 1,-1l2 -5zm32 -22l10 0 0 1c-1,1 -2,1 -4,1l-8 15 0 10c2,1 3,1 4,2l0 1 -11 0 0 -1c1,-1 2,-1 3,-2l0 -10 -8 -15c-1,0 -1,0 -2,0 0,0 -1,-1 -2,-1l0 -1 12 0 0 1c-1,0 -1,0 -2,1 0,0 -1,0 -2,0l7 13 7 -13c-1,0 -1,0 -2,0 -1,-1 -1,-1 -2,-1l0 -1z"/>
  <path class="fil1" d="M780 552c-4,0 -7,-3 -7,-6 0,-4 3,-7 7,-7 3,0 6,3 6,7 0,3 -3,6 -6,6z"/>
  <path class="fil1" d="M1290 552c-4,0 -7,-3 -7,-6 0,-4 3,-7 7,-7 3,0 6,3 6,7 0,3 -3,6 -6,6z"/>
  <path class="fil1" d="M835 494l-36 0 0 -4c4,-2 8,-3 12,-4l41 -107 5 0 41 107c2,0 4,1 6,1 2,1 4,2 6,3l0 4 -42 0 0 -4c2,-1 5,-2 7,-2 2,-1 4,-2 6,-2l-11 -30 -38 0 -11 30c5,1 9,2 14,4l0 4zm0 -46l33 0 -13 -35 -3 -14 0 0 -4 15 -13 34zm124 35c1,2 3,3 5,4 2,1 5,1 9,1 4,0 7,0 10,-1 3,-1 6,-3 8,-4 2,-2 4,-4 5,-7 2,-2 2,-5 2,-9 0,-4 -1,-8 -4,-10 -2,-3 -6,-6 -10,-8 -4,-3 -8,-5 -13,-7 -4,-2 -8,-5 -12,-8 -4,-3 -8,-6 -10,-10 -3,-4 -4,-10 -4,-16 0,-5 1,-9 2,-12 2,-4 4,-7 7,-9 3,-3 7,-5 11,-6 4,-1 8,-2 13,-2 7,0 13,0 19,2 5,1 9,2 12,3 0,2 0,4 0,7 0,2 -1,5 -1,7 0,3 -1,5 -1,8 -1,2 -1,4 -1,6l-5 0 -6 -22c-2,-1 -5,-2 -8,-2 -3,0 -6,-1 -9,-1 -6,0 -10,2 -14,5 -3,3 -5,7 -5,13 0,4 2,8 4,11 3,3 6,6 10,8 4,3 9,5 13,7 5,2 9,5 13,8 4,3 8,6 10,10 3,4 4,9 4,15 0,5 -1,9 -2,13 -2,4 -5,8 -8,11 -3,2 -8,5 -12,6 -5,2 -11,2 -17,2 -7,0 -13,0 -18,-2 -6,-2 -9,-3 -12,-5 0,-2 1,-4 1,-7 0,-2 0,-5 1,-8 0,-3 1,-5 1,-8 0,-3 1,-5 1,-7l5 0 6 24zm161 11l-46 0 0 -4c2,-1 5,-2 7,-2 3,-1 5,-2 8,-2l0 -97 -25 0 -8 24 -4 0c-1,-3 -1,-5 -1,-8 0,-3 -1,-5 -1,-8 0,-3 0,-6 0,-9 0,-2 0,-5 0,-7l94 0c0,2 0,5 0,7 0,3 0,6 -1,9 0,2 0,5 0,8 0,3 -1,5 -1,8l-4 0 -9 -24 -24 0 0 97c3,0 5,1 8,2 2,0 4,1 7,2l0 4zm121 -113l35 0 0 5c-4,2 -8,3 -12,4l-31 56 0 40c5,0 9,2 13,4l0 4 -42 0 0 -4c4,-2 9,-3 14,-4l0 -40 -33 -56c-2,-1 -5,-1 -7,-2 -2,-1 -4,-2 -6,-2l0 -5 43 0 0 5c-2,0 -4,1 -6,2 -2,0 -4,1 -7,2l27 47 25 -47c-3,-1 -5,-1 -7,-2 -2,-1 -4,-2 -6,-2l0 -5z"/>
 </g>
</svg>
