<svg version="1.1" xmlns="http://www.w3.org/2000/svg" width="28" height="28" viewBox="0 0 28 28">
  <title>discount</title>
  <path
    d="M16.291 15.395c-0.356 0-0.651 0.12-0.855 0.348-0.183 0.204-0.283 0.482-0.283 0.783 0 0.551 0.36 1.145 1.151 1.145 0.356 0 0.651-0.12 0.855-0.349 0.183-0.204 0.283-0.482 0.283-0.782 0-0.552-0.36-1.145-1.151-1.145z"></path>
  <path
    d="M11.754 12.629c0.357 0 0.653-0.12 0.857-0.348 0.183-0.204 0.283-0.48 0.283-0.779 0-0.55-0.361-1.141-1.154-1.141-0.808 0-1.17 0.566-1.17 1.127 0 0.55 0.37 1.141 1.183 1.141z"></path>
  <path
    d="M14 4.986c-4.97 0-9.014 4.043-9.014 9.014s4.043 9.014 9.014 9.014 9.014-4.043 9.014-9.014c0-4.97-4.043-9.014-9.014-9.014zM10.099 10.038c0.401-0.438 0.969-0.669 1.643-0.669 1.447 0 2.204 1.073 2.204 2.132 0 0.556-0.197 1.076-0.554 1.464-0.403 0.437-0.974 0.668-1.649 0.668-1.44 0-2.194-1.073-2.194-2.132 0-0.556 0.196-1.076 0.551-1.463zM11.452 17.666c-0.087 0.098-0.266 0.178-0.397 0.178h-0.93c-0.131 0-0.167-0.080-0.079-0.177l6.559-7.293c0.088-0.098 0.267-0.179 0.398-0.182l0.921-0.017c0.131-0.002 0.167 0.076 0.079 0.173l-6.551 7.318zM17.909 17.975c-0.396 0.429-0.955 0.656-1.618 0.656-1.413 0-2.152-1.052-2.152-2.091 0-0.546 0.192-1.055 0.541-1.435 0.394-0.429 0.951-0.656 1.611-0.656 1.419 0 2.161 1.052 2.161 2.091 0 0.546-0.193 1.056-0.543 1.436z"></path>
  <path
    d="M25.65 17.786c0.415-1.277 2.35-2.37 2.35-3.786s-1.935-2.508-2.35-3.786c-0.43-1.324 0.478-3.342-0.323-4.444-0.81-1.113-3.016-0.869-4.129-1.679-1.102-0.802-1.547-2.98-2.871-3.409-1.277-0.415-2.912 1.072-4.327 1.072s-3.050-1.487-4.327-1.072c-1.324 0.43-1.769 2.607-2.871 3.409-1.113 0.81-3.319 0.566-4.129 1.679-0.802 1.102 0.106 3.12-0.324 4.444-0.415 1.277-2.35 2.37-2.35 3.786s1.935 2.508 2.35 3.786c0.43 1.324-0.478 3.342 0.324 4.444 0.81 1.113 3.016 0.869 4.129 1.679 1.102 0.802 1.547 2.98 2.871 3.409 1.277 0.415 2.911-1.072 4.327-1.072s3.050 1.487 4.327 1.072c1.324-0.43 1.769-2.608 2.871-3.409 1.113-0.81 3.319-0.566 4.129-1.679 0.802-1.102-0.106-3.12 0.324-4.444zM14 24.365c-5.715 0-10.365-4.649-10.365-10.365s4.649-10.365 10.365-10.365 10.365 4.649 10.365 10.365c0 5.715-4.649 10.365-10.365 10.365z"></path>
</svg>
