<svg width="17" height="17" viewBox="0 0 17 17" xmlns="http://www.w3.org/2000/svg">
<path d="M15.1139 1.88413C14.8711 1.63782 14.4756 1.64129 14.2293 1.88413L12.009 4.10439C9.25801 2.85549 6.32312 3.16078 3.52351 4.98902C1.43856 6.34892 0.172317 8.05921 0.12028 8.13206C-0.0462389 8.36103 -0.0393006 8.67325 0.137626 8.89528C1.32407 10.3523 2.56603 11.4867 3.83574 12.2777L1.88261 14.2308C1.63977 14.4737 1.63977 14.8691 1.88261 15.1155C2.00403 15.2369 2.16361 15.2993 2.32319 15.2993C2.48277 15.2993 2.64235 15.2369 2.76377 15.1155L15.1139 2.76876C15.3568 2.52592 15.3568 2.13044 15.1139 1.88413ZM6.9545 9.15893C6.8643 8.95425 6.8192 8.73223 6.8192 8.49979C6.8192 8.05227 6.99266 7.62904 7.31182 7.30988C7.81138 6.81032 8.55031 6.69237 9.16088 6.95255L6.9545 9.15893ZM10.0837 6.03323C8.94926 5.30471 7.41937 5.43654 6.43066 6.42524C5.8756 6.98031 5.57378 7.71577 5.57378 8.49633C5.57378 9.06527 5.73683 9.60992 6.03865 10.0783L4.75159 11.3653C3.62412 10.7131 2.51399 9.74869 1.43509 8.48939C1.89648 7.9482 2.87131 6.90399 4.20694 6.03323C6.51739 4.52762 8.81743 4.20152 11.0585 5.0584L10.0837 6.03323Z"/>
<path d="M16.8623 8.10431C16.0054 7.04969 15.1173 6.16159 14.2153 5.45735C13.9412 5.24573 13.5492 5.2943 13.3341 5.5649C13.1225 5.83549 13.1711 6.2275 13.4417 6.44259C14.1563 7.00112 14.871 7.69495 15.5648 8.50673C15.1554 8.98547 14.3575 9.84582 13.2752 10.6333C11.1902 12.1493 9.08442 12.6975 7.02028 12.2603C6.68377 12.1875 6.35074 12.4061 6.28135 12.7426C6.2085 13.0791 6.42706 13.4121 6.76356 13.4815C7.30128 13.596 7.84247 13.6515 8.38713 13.6515C9.20584 13.6515 10.0315 13.5231 10.8537 13.2664C11.9326 12.9299 13.0046 12.3748 14.0418 11.6186C15.7903 10.3384 16.8345 8.9265 16.8796 8.86752C17.0461 8.63856 17.0392 8.32634 16.8623 8.10431Z"/>
</svg>
