<svg width="19" height="11" viewBox="0 0 19 11" xmlns="http://www.w3.org/2000/svg">
<path d="M9.5 0C13.1302 0 16.4222 1.92896 18.8513 5.06211C19.0496 5.31881 19.0496 5.67742 18.8513 5.93411C16.4222 9.07104 13.1302 11 9.5 11C5.86985 11 2.57784 9.07104 0.148664 5.93789C-0.0495548 5.68119 -0.0495548 5.32258 0.148664 5.06589C2.57784 1.92896 5.86985 0 9.5 0ZM9.23959 9.37303C11.6493 9.52025 13.6393 7.59128 13.4877 5.24708C13.3634 3.31434 11.7504 1.74777 9.76041 1.62697C7.35067 1.47975 5.36069 3.40872 5.51227 5.75292C5.64053 7.68188 7.2535 9.24846 9.23959 9.37303ZM9.36008 7.58373C10.6582 7.66301 11.7309 6.62491 11.6454 5.3641C11.5794 4.32224 10.7088 3.48044 9.63603 3.41249C8.33788 3.33322 7.26516 4.37131 7.35067 5.63212C7.42063 6.67776 8.29124 7.51956 9.36008 7.58373Z"/>
</svg>
