<svg version="1.1" xmlns="http://www.w3.org/2000/svg" width="32" height="32" viewBox="0 0 32 32">
  <title>facebook</title>
  <path
    d="M14.9 0.5h0.991c1.050-0.017 3.175 0.371 5.161 1.059-0.504 1.836-0.883 3.696-1.226 5.587-0.961 0-3.255-1.065-4.204-0.336-0.483 0.367-0.238 1.144-0.336 1.965 1.224 0.159 2.736 0 4.070 0.067v6.242h-4.076v9.295c5.507 0.159 11.327 0 16.956 0.067v7.055h-32.432v-5.293c0-0.312-0.122-1.603 0.067-1.762 0.294-0.032 0.636-0.049 0.982-0.049s0.688 0.018 1.024 0.053l6.059-0.004v-9.362h-3.059c0.043-2.056-0.092-4.284 0.067-6.242h2.992c-0.41-5.495 2.074-8.12 6.963-8.341zM10.488 4.368c-0.991 1.561-0.452 4.051-0.747 6.443h-2.919v2.374c0.273-0.011 0.595-0.016 0.917-0.016 0.729 0 1.449 0.030 2.162 0.090l-0.093 16.271h3.592c0.043-5.428-0.092-11.015 0.067-16.345h4.002v-2.374c-1.334-0.043-2.852 0.092-4.070-0.067 0.104-1.867-0.269-3.598 0.41-4.749 0.79-1.352 2.57-1.334 4.546-1.151 0.061-0.71 0.257-1.279 0.336-1.965-3.017-0.722-6.829-0.692-8.206 1.481zM1.805 26.397c-0.053 0.649-0.083 1.404-0.083 2.166 0 0.335 0.006 0.669 0.017 1.003l6.197-0.048v-3.12h-6.12zM15.303 26.598v2.931h15.059v-3.12h-14.992c-0.092 0.013-0.092 0.104-0.092 0.201z"></path>
</svg>
