<svg version="1.1" xmlns="http://www.w3.org/2000/svg" width="32" height="32" viewBox="0 0 32 32">
  <title>figure</title>
  <path
    d="M11.309-0.001h0.609c0.32 2.092 0.187 4.199 0.156 6.306 6.119 3.255 12.238 6.533 18.349 9.811v0.82c-0.429 1.865-0.851 3.746-1.592 5.518-4.222-0.086-8.453 0.039-12.675-0.070 2.053 2.857 4.964 5.877 4.761 9.616h-18.841c-0.937-5.424-0.406-11.005 0.382-16.414 1.101-5.908 3.364-12.402 8.851-15.586zM13.229 13.245c-1.413 2.302 2.084 4.012 3.169 1.569-0.164-1.655-1.772-2.552-3.169-1.569z"></path>
</svg>
