<svg version="1.1" xmlns="http://www.w3.org/2000/svg" width="1024" height="1024" viewBox="0 0 1024 1024">
  <path
    d="M32.002 288h285.028c14.317 55.263 64.167 96.375 123.847 96.375s109.528-41.112 123.847-96.375h427.278c17.667 0 31.999-14.334 31.999-31.999s-14.334-31.999-31.999-31.999h-427.278c-14.317-55.263-64.167-96.375-123.847-96.375s-109.528 41.112-123.847 96.375h-285.028c-17.667 0-31.999 14.334-31.999 31.999s14.334 31.999 31.999 31.999zM440.876 191.625c35.5 0 64.375 28.875 64.375 64.375s-28.875 64.375-64.375 64.375-64.375-28.875-64.375-64.375 28.875-64.375 64.375-64.375z"></path>
  <path
    d="M992.001 480.001h-68.528c-14.317-55.263-64.167-96.375-123.847-96.375s-109.528 41.112-123.847 96.375h-643.778c-17.667 0-31.999 14.334-31.999 31.999s14.334 31.999 31.999 31.999h643.778c14.317 55.263 64.167 96.375 123.847 96.375s109.528-41.112 123.847-96.375h68.528c17.667 0 31.999-14.334 31.999-31.999s-14.334-31.999-31.999-31.999zM799.626 576.375c-35.5 0-64.375-28.875-64.375-64.375s28.875-64.375 64.375-64.375 64.375 28.875 64.375 64.375-28.875 64.375-64.375 64.375z"></path>
  <path
    d="M992.001 736h-620.026c-14.315-55.263-64.161-96.375-123.808-96.375-59.68 0-109.528 41.112-123.847 96.375h-92.321c-17.667 0-31.999 14.334-31.999 31.999s14.334 31.999 31.999 31.999h92.321c14.317 55.263 64.167 96.375 123.847 96.375 59.646 0 109.492-41.112 123.808-96.375h620.026c17.667 0 31.999-14.334 31.999-31.999s-14.334-31.999-31.999-31.999zM248.169 832.375c-35.5 0-64.375-28.875-64.375-64.375s28.875-64.375 64.375-64.375c35.459 0 64.334 28.875 64.334 64.375s-28.875 64.375-64.334 64.375z"></path>
</svg>
