<svg version="1.1" xmlns="http://www.w3.org/2000/svg" width="32" height="32" viewBox="0 0 32 32">
  <title>flower</title>
  <path
    d="M23.69 0.013c-4.161 0.429-8.351 3.947-8.751 8.498-0.056 0.648 0 1.376 0 2.126-0.034 0.31-0.054 0.668-0.054 1.032s0.020 0.722 0.058 1.076c0.222 0.892 1.654 1.484 2.122 2.144 0.096-2.137-0.073-4.009 0.062-5.938 0.117-2.509 1.678-4.756 3.906-5.857 2.325-1.242 5.336-0.966 8.855-0.954-0.25 3.574-2.873 6.561-6.333 7.365-1.217 0.248-2.756-0.034-4.307 0.073-0.049 0.442-0.077 0.955-0.077 1.474 0 0.229 0.005 0.457 0.016 0.684 7.459 0.678 11.502-2.575 12.81-8.22v-3.502h-8.306zM17.066 20.076c-0.108-1.952-1.2-4.102-2.869-5.633-1.194-1.284-3.354-2.416-5.774-2.691-2.815-0.219-5.38 0.154-8.42-0.004v3.502c1.359 5.639 5.255 8.785 12.811 8.249v-2.188c-1.635-0.085-3.254 0.164-4.438-0.124-3.381-0.783-5.972-3.719-6.246-7.303 2.789 0.074 5.372-0.287 7.374 0.283 1.538 0.257 3.322 1.559 4.357 3.349 1.964 3.316 0.735 9.401 1.079 14.47h2.126c-0.237-4.111 0.321-8.21 0-11.909z"></path>
</svg>
