<svg version="1.1" xmlns="http://www.w3.org/2000/svg" width="470" height="448" viewBox="0 0 470 448">
  <title></title>
  <g id="icomoon-ignore">
  </g>
  <path
    d="M469.75 238c0 6-3.75 12-7.75 16.5l-84 99c-14.5 17-44 30.5-66 30.5h-272c-9 0-21.75-2.75-21.75-14 0-6 3.75-12 7.75-16.5l84-99c14.5-17 44-30.5 66-30.5h272c9 0 21.75 2.75 21.75 14zM384 152v40h-208c-31.25 0-70 17.75-90.25 41.75l-85.5 100.5c0-2-0.25-4.25-0.25-6.25v-240c0-30.75 25.25-56 56-56h80c30.75 0 56 25.25 56 56v8h136c30.75 0 56 25.25 56 56z"></path>
</svg>
