<svg version="1.1" xmlns="http://www.w3.org/2000/svg" width="32" height="32" viewBox="0 0 32 32">
  <title>furniture</title>
  <path
    d="M6.166 6.612c0.752-2.605 2.069-5.782 5.046-6.34 3.2-0.164 6.43-0.179 9.622 0.007 2.954 0.595 4.227 3.743 4.994 6.318-1.109 1.057-2.419 2.188-2.5 3.84-0.223 3.423-0.030 6.869-0.089 10.3-4.807 0-9.615 0-14.422 0-0.060-3.431 0.141-6.869-0.089-10.292-0.104-1.66-1.444-2.776-2.56-3.833zM0.666 9.619c1.206-3.021 6.14-2.508 6.675 0.692 0.313 3.914 0.037 7.851 0.127 11.78 5.708-0.007 11.408-0.007 17.116 0 0.089-3.929-0.186-7.881 0.134-11.795 0.536-3.155 5.447-3.721 6.646-0.722 1.228 2.59-1.101 5.105-3.661 5.276 0 4.718-0.007 9.444 0.007 14.169-7.821 0.067-15.643 0.060-23.457 0.007 0.022-4.696-0.030-9.392 0.030-14.080-2.53-0.246-4.919-2.739-3.617-5.328zM5.511 31.855c-0.633-1.109-0.454-1.927 0.528-2.456 0.886 0.58 1.072 1.392 0.543 2.456h-1.072zM25.574 31.855c-0.625-1.116-0.454-1.942 0.521-2.471 0.878 0.588 1.064 1.407 0.551 2.471h-1.072z"></path>
</svg>
