<svg version="1.1" xmlns="http://www.w3.org/2000/svg" width="32" height="32" viewBox="0 0 32 32">
  <title>gas</title>
  <path
    d="M26.717 4.11c-0.279-0.279-1.423-1.709-1.649-1.715 0.723-0.598-0.231 0.067-0.982 0.915-0.965 0.966-1.829 1.924-2.781 2.782 0.542 0.595 0.994 1.060 1.583 1.649 0.452 0.452 1.435 1.113 1.583 1.649 0.185 0.679-0.053 1.405 0 1.911 0.25 2.423 2.107 4.013 5.281 3.763v5.74c0 3.114 0.732 7.531-2.572 6.865-0.633-0.098-1.236-0.585-1.513-1.242-0.6-1.514 0.042-3.735-0.136-5.491-0.279-2.751-2.685-4.167-6.335-3.763-0.274-4.12 0.375-7.364 0-11.020-0.209-1.905-1.701-3.456-3.607-3.76-1.578-0.164-3.787-0.003-5.901-0.003-4.269 0-7.406-0.483-8.931 1.983 0.090-0.312-0.342 0.605-0.584 1.596l-0.011 23.867h19.004v-10.55c1.887-0.131 3.602 0 4.090 1.387 0.595 1.726-0.185 4.209 0.196 5.954 1.036 4.674 7.972 3.941 8.383-0.399v-17.028c-1.393-1.405-3.429-3.399-5.12-5.090zM29.753 12.951c-1.893 0.167-2.977-0.422-3.167-1.911-0.096-0.715 0.238-1.649 0-2.506s-1.822-1.488-2.245-2.382c-0.009-0.088 0.279-0.464 0.654-0.722 1.686 1.466 3.193 3.103 4.77 4.681v2.84zM17.078 11.217v16.498h-14.783v-16.67c0-2.911-0.631-6.227 1.911-6.549 1.852-0.22 3.965 0 5.876 0 2.631 0 6.144-0.595 6.865 1.322 0.458 1.232 0.131 4.042 0.131 5.4zM4.409 6.812v8.252h10.561v-8.448h-10.496c-0.077 0.012-0.071 0.108-0.065 0.196zM6.588 8.729h6.269v4.221h-6.329c0.036-1.381-0.096-2.924 0.059-4.221z"></path>
</svg>
