<svg width="16" height="16" viewBox="0 0 16 16" xmlns="http://www.w3.org/2000/svg">
<path fill-rule="evenodd" clip-rule="evenodd" d="M13.9996 8.00928C13.9996 8.27518 13.9796 8.53124 13.9496 8.77745L15.6196 10.0774C15.7796 10.1956 15.8196 10.4024 15.7196 10.5797L14.1196 13.3077C14.0196 13.485 13.8096 13.5539 13.6296 13.485L11.6396 12.6971C11.2296 13.0024 10.7796 13.2683 10.2896 13.4653L9.98964 15.5531C9.96964 15.7501 9.79964 15.888 9.59964 15.888H6.39964C6.19964 15.888 6.03964 15.7501 5.99964 15.5531L5.69964 13.4653C5.20964 13.2683 4.76964 13.0122 4.34964 12.6971L2.35964 13.485C2.17964 13.5441 1.96964 13.485 1.86964 13.3077L0.269641 10.5797C0.179641 10.4123 0.219641 10.1956 0.369641 10.0774L2.05964 8.77745C2.01964 8.53124 1.99964 8.26534 1.99964 8.00928C1.99964 7.75322 2.02964 7.48731 2.06964 7.2411L0.379641 5.94112C0.219641 5.82294 0.179641 5.61612 0.279641 5.43885L1.87964 2.71086C1.97964 2.53359 2.18964 2.46465 2.36964 2.53359L4.35964 3.32146C4.76964 3.01616 5.21964 2.75025 5.70964 2.55328L6.00964 0.465429C6.03964 0.268462 6.19964 0.130585 6.39964 0.130585H9.59964C9.79964 0.130585 9.96964 0.268462 9.99964 0.465429L10.2996 2.55328C10.7896 2.75025 11.2296 3.00631 11.6496 3.32146L13.6396 2.53359C13.8196 2.4745 14.0296 2.53359 14.1296 2.71086L15.7296 5.43885C15.8196 5.60628 15.7796 5.82294 15.6296 5.94112L13.9396 7.2411C13.9796 7.48731 13.9996 7.74337 13.9996 8.00928ZM4.99938 8.00925C4.99938 9.63422 6.34938 10.9637 7.99938 10.9637C9.64938 10.9637 10.9994 9.63422 10.9994 8.00925C10.9994 6.38427 9.64938 5.05475 7.99938 5.05475C6.34938 5.05475 4.99938 6.38427 4.99938 8.00925Z"/>
</svg>
