<svg version="1.1" xmlns="http://www.w3.org/2000/svg" width="32" height="32" viewBox="0 0 32 32">
  <title>grill</title>
  <path
    d="M16.68 3.807c0.408-1.479 1.694-2.439 2.742-3.465-1.192 3.481 1.628 6.251 3.63 8.69 1.782 2.014 1.732 4.96 0.601 7.277-1.561 0.017-3.123 0.006-4.684 0.061 1.148-1.815 1.186-4.011 0.463-5.986-0.552 2.775-3.222 4.888-6.063 4.684-1.324 0-2.124-1.12-2.963-1.959 0 1.081 0.055 2.163 0.243 3.233-0.866-0.011-1.732-0.022-2.604-0.033-0.546-1.799-0.8-3.818 0.094-5.556 0.883-1.981 2.781-3.161 4.579-4.204-0.425 1.434-1.495 3.393-0.16 4.679 1.131 1.076 2.814 0.259 3.498-0.91 1.319-1.948-0.039-4.392 0.623-6.51zM7.62 17.683c5.561 0.011 11.128-0.099 16.684 0.061 0.59 3.018-1.512 5.732-3.983 7.189 0.8 1.589 1.804 3.090 2.35 4.794-0.248 0.154-0.739 0.469-0.982 0.629-1.446-1.219-1.903-3.327-2.93-4.91-0.486 0.083-1.457 0.243-1.942 0.326-0.088 1.854 0.254 3.779-0.215 5.589l-0.568 0.298c-0.193-0.116-0.574-0.342-0.767-0.458-0.154-1.804-0.039-3.625-0.061-5.434-0.59-0.105-1.175-0.21-1.76-0.314-0.921 1.749-1.743 3.559-2.847 5.203-0.27-0.237-0.817-0.712-1.092-0.949 0.651-1.666 1.583-3.2 2.394-4.789-2.439-1.512-4.806-4.143-4.281-7.233zM9.585 19.53c0.524 2.262 2.461 3.818 4.684 4.221-1.291-1.126-2.257-2.56-2.786-4.193-0.474-0.006-1.423-0.022-1.898-0.028z"></path>
</svg>
