<svg version="1.1" xmlns="http://www.w3.org/2000/svg" width="32" height="32" viewBox="0 0 32 32">
  <title>gun</title>
  <path
    d="M27.598 3.001h0.337c1.279 5.088 2.741 10.14 3.872 15.263-3.19 0.787-6.381 1.581-9.57 2.368-1.377-1.785-2.558-3.746-4.139-5.362-0.871-0.808-2.305-0.408-2.91 0.513-2.122 2.656-4.069 5.453-6.113 8.166-2.030 0.555-5.038 1.37-6.149-1.090-1.152-3.296-1.813-6.746-2.733-10.111v-1.286c0.541-0.857 1.061-1.89 2.151-2.13 3.218-0.977 6.535-1.637 9.789-2.481-0.112-0.478-0.337-1.427-0.449-1.905 1.012-0.246 2.030-0.492 3.049-0.738 0.127 0.464 0.379 1.391 0.506 1.855 4.125-0.998 8.236-2.059 12.361-3.064zM9.743 24.517c2.277-2.804 4.153-5.938 6.633-8.566 0.31 0.050 0.934 0.141 1.25 0.189 2.073 2.284 3.71 4.926 5.629 7.343 1.202 1.729 2.945 3.274 3.099 5.516h-18.762c-0.274-1.827 1.223-3.113 2.15-4.483z"></path>
</svg>
