<svg version="1.1" xmlns="http://www.w3.org/2000/svg" width="32" height="32" viewBox="0 0 32 32">
  <title>hand</title>
  <path
    d="M9.657 17.499c0.213-0.131 0.451-0.239 0.709-0.325 0.58-0.195 1.156-0.255 1.601-0.248 4.163 0.241 7.179 0.068 9.248-0.365 0.483-0.101 0.868-0.208 1.165-0.312 0.164-0.059 0.257-0.099 0.279-0.111 0.053-0.029 0.156-0.087 0.299-0.168 0.24-0.136 0.507-0.288 0.795-0.456 0.823-0.479 1.644-0.977 2.409-1.468 0.355-0.228 0.689-0.449 1-0.663 1.291-0.884 2.135-1.615 2.259-1.931 0.013-0.035 0.024-0.065 0.032-0.092-0.035-0.001-0.079-0.003-0.129-0.001-0.125 0.004-0.267 0.024-0.412 0.053-0.080 0.016-0.147 0.033-0.189 0.044l-6.324 2.701c-0.076 0.033-0.159 0.049-0.243 0.049-0.057 0-0.167-0.001-0.324-0.004-0.26-0.005-0.563-0.013-0.904-0.028-0.975-0.039-2.073-0.109-3.273-0.219-1.139-0.105-1.801-0.319-2.113-0.731-0.332-0.437-0.208-0.893 0.104-1.235 0.085-0.093 0.168-0.161 0.237-0.208 0.053-0.037 0.113-0.065 0.176-0.084l3.757-1.091c0.153-0.089 0.281-0.172 0.383-0.247-0.117-0.027-0.223-0.041-0.263-0.045-1.816 0-3.72 0.103-5.593 0.275-0.656 0.060-1.261 0.125-1.801 0.189-0.188 0.023-0.355 0.044-0.499 0.063-0.051 0.007-0.091 0.012-0.121 0.016l-3.148 0.997 0.885 5.64zM29.476 11.261c0-0.005 0-0.009 0-0.013 0 0.001 0 0.003 0 0.004v0.009zM10.76 18.344c-0.489 0.164-0.803 0.415-0.923 0.76-0.211 0.607-1.093 0.528-1.193-0.107l-1.173-7.471c-0.048-0.301 0.133-0.592 0.424-0.684l3.704-1.173 0.1-0.023c0.033-0.005 0.095-0.013 0.184-0.025 0.148-0.019 0.319-0.041 0.512-0.064 0.551-0.065 1.167-0.132 1.835-0.193 1.908-0.175 3.848-0.28 5.753-0.279 0.176 0.013 0.42 0.049 0.675 0.121 0.569 0.161 0.967 0.431 1 0.983 0.036 0.569-0.408 1.027-1.295 1.529-0.041 0.024-0.087 0.043-0.133 0.056l-3.037 0.881c0.161 0.025 0.353 0.051 0.575 0.071 1.177 0.107 2.256 0.176 3.211 0.215 0.333 0.013 0.627 0.021 0.879 0.027 0.069 0.001 0.128 0.003 0.177 0.003l6.304-2.689c0.072-0.021 0.185-0.052 0.327-0.080 0.208-0.043 0.417-0.072 0.621-0.077 0.437-0.015 0.805 0.067 1.088 0.324 0.383 0.349 0.428 0.869 0.2 1.453-0.255 0.651-1.177 1.449-2.711 2.5-0.321 0.22-0.667 0.449-1.032 0.683-0.783 0.503-1.619 1.009-2.456 1.496-0.292 0.171-0.564 0.327-0.808 0.464-0.147 0.083-0.252 0.141-0.316 0.177-0.28 0.151-0.853 0.352-1.783 0.547-2.184 0.456-5.308 0.637-9.516 0.391-0.321-0.005-0.771 0.043-1.193 0.184zM16.557 12.824c0 0 0.001-0.001 0.003-0.003l-0.003 0.003z"></path>
  <path
    d="M5.995 12.236l-3.471 0.797v8.511l5.139-1.028-1.667-8.28zM7.080 11.371l1.913 9.508c0.067 0.335-0.149 0.66-0.484 0.727l-6.483 1.296c-0.381 0.076-0.739-0.216-0.739-0.605v-9.755c0-0.288 0.199-0.537 0.479-0.601l4.569-1.049c0.339-0.077 0.675 0.139 0.744 0.48z"></path>
</svg>
