<svg version="1.1" xmlns="http://www.w3.org/2000/svg" width="1024" height="1024" viewBox="0 0 1024 1024">
  <path
    d="M816.901 585.863c-34.395-26.965-68.979-53.709-104.029-79.813-64.818-48.276-134.004-89.515-206.184-125.76-4.123-2.071-9.574-4.090-13.696-3.119-18.988 4.472-35.17 11.497-48.584 28.658-29.95 38.315-68.339 64.281-120.091 62.531-21.868-0.74-35.292-14.893-32.475-36.496 1.496-11.47 4.92-23.386 10.438-33.479 9.807-17.937 21.755-34.716 33.034-51.828 5.872-8.908 12.229-17.496 19.426-27.734-38.887-4.923-75.54-9.091-105.926-33.94-44.706 79.536-88.141 156.811-131.232 233.473 14.404 17.632 27.883 34.13 41.607 50.928 15.537-16.639 33.44-20.739 54.227-15.604 21.47 5.303 33.014 20.978 42.698 40.491 15.337-24.769 34.307-42.198 64.573-32.387 32.9 10.665 46.511 35.579 44.78 69.802 18.821 1.237 33.823 8.612 45.765 22.573 12.196 14.257 15.651 31.041 14.71 49.232 26.628 0.999 45.32 13.009 56.488 35.881 11.644 23.844 6.105 45.646-13.37 68.334 30.753 6.58 58.005 13.597 85.674 18.007 28.797 4.589 51.559-6.686 67.996-33.154-32.421-15.628-63.59-30.636-94.741-45.682-7.028-3.393-13.513-7.788-8.945-16.724 4.462-8.728 11.524-6.419 18.744-2.868 30.656 15.074 60.808 31.471 92.461 44.076 13.364 5.323 30.4 5.023 45.003 2.621 14.951-2.459 17.724-17.83 20.487-30.991 2.587-12.323-8.385-13.463-15.039-17.864-7.208-4.766-14.893-8.811-22.384-13.148-28.78-16.661-57.723-33.053-86.178-50.253-4.215-2.548-7.18-8.601-8.588-13.631-0.542-1.941 4.7-7.68 7.594-7.899 4.455-0.338 9.569 1.875 13.693 4.243 38.714 22.237 77.515 44.342 115.769 67.352 16.216 9.754 31.84 6.669 46.927-0.024 12.886-5.716 15.732-18.532 17.581-31.869 1.777-12.821-6.861-16.365-14.93-21.213-29.284-17.595-58.584-35.169-87.853-52.789-16.384-9.864-33.055-19.318-48.823-30.087-3.501-2.39-3.746-9.549-5.491-14.511 5.506-1.109 11.184-3.581 16.466-2.915 4.557 0.575 8.674 4.704 12.969 7.292 46.046 27.752 92.059 55.56 138.145 83.245 23.014 13.824 50.092 6.532 58.943-15.668 6.763-16.966 1.681-32.14-17.638-47.288z"></path>
  <path
    d="M667.591 281.358c-77.592-20.595-155.306-16.343-232.985-1.738-12.064 2.269-27.497 6.229-34.030 14.924-28.673 38.156-55.255 77.95-81.081 118.123-4.981 7.748-3.18 19.856-4.509 29.953 9.581 1.082 19.44 4.167 28.695 2.89 34.91-4.82 62.649-24.23 82.297-51.71 15.413-21.559 35.061-30.98 58.723-37.622 10.516-2.953 18.705-2.173 28.387 2.637 112.329 55.795 214.656 126.694 311.545 205.777 6.708 5.474 11.851 6.075 17.825 1.193 20.636-16.862 41.053-33.992 61.791-51.216-44.242-78.688-87.010-154.758-130.563-232.22-36.010 16.988-71.233 8.264-106.095-0.989z"></path>
  <path
    d="M1020.501 474.974c-22.442-39.063-44.346-78.434-66.4-117.719-29.849-53.17-59.617-106.387-89.559-159.504-2.29-4.064-5.685-7.504-8.609-11.289-3.901 2.047-6.375 3.177-8.684 4.582-20.988 12.773-41.746 25.943-63.008 38.241-9.437 5.459-9.741 10.641-4.609 19.714 52.653 93.079 104.994 186.335 157.134 279.703 4.616 8.264 8.652 10.065 16.96 4.741 20.295-13.006 40.809-25.726 61.764-37.627 10.177-5.781 10.401-11.46 5.011-20.842z"></path>
  <path
    d="M239.743 229.268c-21.262-12.298-42.022-25.465-63.011-38.236-2.305-1.403-4.78-2.528-8.344-4.393-2.316 2.535-5.063 4.774-6.82 7.622-4.055 6.578-7.61 13.463-11.402 20.205-48.844 86.859-97.592 173.773-146.685 260.491-5.323 9.404-5.191 15.064 4.989 20.847 20.954 11.903 41.468 24.619 61.767 37.616 8.281 5.302 12.336 3.577 16.965-4.715 52.13-93.367 104.468-186.619 157.11-279.699 5.114-9.041 4.895-14.264-4.568-19.737z"></path>
  <path
    d="M326.559 588.283c-16.807-11.912-32.993-9.073-45.943 8.434-20.551 27.784-41.090 55.584-61.183 83.698-4.070 5.696-6.139 12.821-7.507 15.78-0.41 20.569 10.588 35.971 26.664 41.682 15.071 5.354 25.299 1.409 36.958-14.465 20.724-28.219 41.64-56.301 61.966-84.805 11.465-16.078 6.237-38.137-10.957-50.323z"></path>
  <path
    d="M399.641 675.415c-6.653-13.069-17.585-20.544-36.429-21.704-2.964 1.375-10.993 2.555-14.57 7.178-19.765 25.557-39.312 51.378-57.156 78.287-9.924 14.964-1.515 36.819 15.2 47.023 16.98 10.365 31.55 7.358 43.754-9.365 15.839-21.704 31.409-43.604 47.235-65.317 8.524-11.695 8.137-23.976 1.965-36.099z"></path>
  <path
    d="M424.403 725.198c-3.364 2.005-11.417 4.452-15.807 9.868-12.883 15.896-24.862 32.608-36.133 49.7-8.868 13.447-1.957 35.273 13.113 45.588 16.564 11.339 32.632 9.229 44.298-6.147 10.187-13.427 19.988-27.147 30.1-40.631 9.045-12.061 8.635-24.816 1.82-37.235-6.995-12.748-18.061-20.225-37.389-21.142z"></path>
  <path
    d="M219.074 579.695c-16.795-11.861-32.855-9.376-45.115 7.053-5.988 8.024-12.298 15.854-17.641 24.293-3.278 5.18-5.002 11.344-6.013 13.733-0.179 20.902 11.698 36.595 28.318 41.574 10.953 3.281 21.2 2.091 28.725-6.842 8.487-10.075 16.363-20.746 23.659-31.72 9.907-14.902 4.163-36.722-11.932-48.090z"></path>
</svg>
