<svg width="32px" height="28px" viewBox="0 0 32 28" version="1.1" xmlns="http://www.w3.org/2000/svg" xmlns:xlink="http://www.w3.org/1999/xlink">
  <g id="Page-1" stroke="none" stroke-width="1" fill-rule="evenodd">
    <g id="heart-o" fill-rule="nonzero">
      <path
        d="M29.501,8.727 C29.501,3.788 26.161,2.751 23.348,2.751 C20.729,2.751 17.776,5.581 16.861,6.671 C16.439,7.181 15.56,7.181 15.138,6.671 C14.224,5.581 11.271,2.751 8.651,2.751 C5.839,2.751 2.498,3.788 2.498,8.727 C2.498,11.944 5.75,14.932 5.785,14.967 L15.998,24.811 L26.193,14.985 C26.246,14.932 29.498,11.944 29.498,8.727 L29.501,8.727 Z M31.75,8.727 C31.75,12.946 27.883,16.479 27.724,16.637 L16.773,27.184 C16.562,27.395 16.281,27.5 15.999,27.5 C15.717,27.5 15.436,27.395 15.225,27.184 L4.256,16.602 C4.115,16.479 0.248,12.946 0.248,8.727 C0.248,3.577 3.394,0.5 8.65,0.5 C11.726,0.5 14.609,2.926 15.997,4.297 C17.386,2.926 20.269,0.5 23.344,0.5 C28.6,0.5 31.746,3.576 31.746,8.727 L31.75,8.727 Z"
        id="Shape"></path>
    </g>
  </g>
</svg>