<svg version="1.1" xmlns="http://www.w3.org/2000/svg" width="32" height="32" viewBox="0 0 32 32">
  <title>heater</title>
  <path
    d="M14.777-0.001h2.453c1.509 0.574 3.037 1.092 4.607 1.478l0.005-0.538v0.935c-1.295 0.371-2.631 0.528-3.967 0.64-0.254 1.869-0.97 3.677-0.904 5.587 0.020 3.352 0.020 6.7 0.010 10.052 1.331 0.142 2.707 0.269 3.845 1.036-0.635 0.315-1.285 0.589-1.956 0.828 0.086 3.007 0.041 6.014 0.091 9.021 0.315 0.203 0.95 0.604 1.265 0.803 0.097 0.305 0.29 0.904 0.381 1.209-0.965 0.442-1.971 0.853-3.043 0.95h-3.068c-1.097-0.076-2.123-0.498-3.114-0.955 0.102-0.305 0.31-0.914 0.411-1.219 0.31-0.198 0.935-0.589 1.244-0.782 0.041-2.992 0.025-5.989 0.076-8.98-0.681-0.3-1.392-0.574-1.874-1.173 1.234-0.371 2.504-0.574 3.779-0.747-0.010-3.347-0.010-6.69 0.010-10.037 0.066-1.91-0.65-3.718-0.904-5.587-1.331-0.127-2.662-0.305-3.967-0.61v-0.411c1.559-0.442 3.103-0.909 4.617-1.498z"></path>
</svg>
