<svg width="20" height="20" viewBox="0 0 20 20" xmlns="http://www.w3.org/2000/svg">
<path fill-rule="evenodd" clip-rule="evenodd" d="M10 0.833336C4.94004 0.833336 0.833374 4.94 0.833374 10C0.833374 15.06 4.94004 19.1667 10 19.1667C15.06 19.1667 19.1667 15.06 19.1667 10C19.1667 4.94 15.06 0.833336 10 0.833336ZM9.08337 16.4167V14.5833H10.9167V16.4167H9.08337ZM11.9892 10.1558L12.8142 9.3125C13.3367 8.79 13.6667 8.05667 13.6667 7.25C13.6667 5.22417 12.0259 3.58334 10 3.58334C7.97421 3.58334 6.33337 5.22417 6.33337 7.25H8.16671C8.16671 6.24167 8.99171 5.41667 10 5.41667C11.0084 5.41667 11.8334 6.24167 11.8334 7.25C11.8334 7.75417 11.6317 8.2125 11.2925 8.5425L10.1559 9.6975C9.49587 10.3667 9.08337 11.2833 9.08337 12.2917V12.75H10.9167C10.9167 11.375 11.3292 10.825 11.9892 10.1558Z"/>
</svg>
