<svg version="1.1" xmlns="http://www.w3.org/2000/svg" width="1024" height="1024" viewBox="0 0 1024 1024">
<path d="M951.168 12.501l-225.835 225.835v-153.003c0-23.552-19.115-42.667-42.667-42.667s-42.667 19.115-42.667 42.667v256c0 0.085 0 0.171 0 0.256 0.043 5.675 1.195 11.136 3.243 16.085 4.309 10.453 12.672 18.773 23.125 23.125 4.907 2.005 10.325 3.157 16 3.2 0.085 0 0.213 0 0.299 0h256c23.552 0 42.667-19.115 42.667-42.667s-19.115-42.667-42.667-42.667h-153.003l225.835-225.835c16.683-16.683 16.683-43.691 0-60.331s-43.691-16.683-60.331 0zM981.333 721.92c0.341-14.507-2.133-29.525-6.912-43.563-4.949-14.379-12.331-27.691-21.803-39.339-9.984-12.288-22.229-22.741-36.309-30.72-13.611-7.68-28.8-12.971-45.824-15.36-34.133-4.181-72.32-13.397-110.336-27.563-18.475-6.784-38.101-9.301-57.344-7.424-14.336 1.408-28.501 5.205-41.813 11.435-12.928 6.059-25.003 14.379-35.755 25.045l-30.72 30.72c-75.52-47.659-143.36-113.792-195.541-195.797l30.976-30.976c13.739-14.080 24.021-30.976 30.165-49.323 4.565-13.653 6.869-28.16 6.613-42.88-0.256-14.293-2.944-28.672-8.277-42.923-12.331-32.128-22.101-70.144-27.477-110.72-2.176-15.061-6.955-29.227-13.824-42.112-7.083-13.141-16.341-24.96-27.307-34.859-11.691-10.539-25.344-18.944-40.363-24.619-14.507-5.504-30.251-8.448-46.123-8.277h-127.829c-3.755 0-7.765 0.171-11.648 0.512-17.195 1.536-33.365 6.485-47.872 14.080-15.061 7.893-28.203 18.645-38.869 31.403s-18.859 27.691-23.936 43.904c-4.864 15.659-6.827 32.427-5.248 49.92 12.8 131.243 58.24 266.368 137.216 388.352 64.085 102.955 155.648 197.248 268.715 269.056 109.568 72.405 242.517 122.112 387.669 137.856 3.925 0.384 8.149 0.555 12.288 0.555 17.28-0.085 33.792-3.584 48.939-9.899 15.659-6.571 29.696-16.128 41.429-27.947s21.163-25.941 27.605-41.643c6.229-15.147 9.6-31.744 9.515-48.811zM896 721.92v128c0.043 6.016-1.109 11.52-3.157 16.512-2.133 5.205-5.291 9.941-9.216 13.909s-8.661 7.168-13.824 9.344c-4.949 2.091-10.453 3.243-16.299 3.285-1.536 0-2.901-0.085-3.755-0.171-130.56-14.208-250.581-59.221-348.757-124.117-103.595-65.835-185.984-150.955-243.285-242.944-72.405-111.787-113.28-233.856-124.757-351.488-0.512-5.547 0.171-11.093 1.749-16.213 1.664-5.419 4.395-10.411 7.979-14.72s7.979-7.893 12.971-10.496c4.779-2.475 10.112-4.139 15.957-4.651 1.451-0.128 2.731-0.171 3.584-0.171h128.171c5.973-0.043 11.136 0.939 15.915 2.731 4.949 1.877 9.472 4.651 13.397 8.192 3.669 3.328 6.784 7.296 9.173 11.733 2.304 4.309 3.925 9.088 4.651 14.208 6.016 45.739 17.408 90.368 32.256 129.067 1.664 4.48 2.56 9.216 2.603 13.867 0.085 4.821-0.683 9.6-2.219 14.208-2.091 6.187-5.589 11.989-10.325 16.853l-53.803 53.803c-13.824 13.824-16.171 34.731-6.912 51.243 67.584 118.827 163.797 211.499 272.256 272.128 16.939 9.472 37.632 6.144 50.987-7.083l54.187-54.187c3.456-3.413 7.424-6.144 11.648-8.107 4.352-2.048 9.045-3.328 13.867-3.797 6.485-0.64 13.227 0.213 19.584 2.56 43.605 16.256 88.32 27.136 129.451 32.171 4.736 0.683 9.771 2.432 14.208 4.949 4.608 2.603 8.704 6.101 12.075 10.197 3.2 3.925 5.675 8.405 7.339 13.227 1.621 4.693 2.432 9.728 2.304 15.872z"></path>
</svg>
