<svg width="20" height="19" viewBox="0 0 20 19" xmlns="http://www.w3.org/2000/svg">
<path d="M10.83 12.2946L0 18.6647V14.033L11.6332 10.8226L10.83 12.2946Z" />
<path d="M9.41113 14.6802L2.93188 18.6646H7.02827L9.41113 14.6802Z" />
<path d="M11.9678 13.3478L8.86206 18.6646L13.0254 18.6899L11.9678 13.3478Z" />
<path d="M13.467 10.7465L19.2903 7.29496L17.0681 4.54138L13.467 10.7465Z" />
<path d="M18.8086 9.1095L13.3066 12.3961L14.4311 18.1697L17.229 15.3654L18.9559 15.3908L18.9693 12.4722L20.0001 12.4849L18.8086 9.1095Z" />
<path d="M14.8994 5.31543L9.46436 2.07962L12.3292 0.962952L15.542 4.2749L14.8994 5.31543Z" />
<path d="M14.1232 6.60973L13.5877 7.48529L3.03882 5.70879L7.48327 2.59991L14.1232 6.60973Z" />
<path d="M12.9451 8.44973L12.3159 9.52832L0 12.1169L1.45917 7.45996L12.9451 8.44973Z"/>
</svg>
