<svg version="1.1" xmlns="http://www.w3.org/2000/svg" width="32" height="32" viewBox="0 0 32 32">
  <title>instagram</title>
  <path
    d="M25.277 0h-18.028c-4.34 0-7.253 3.307-7.253 8.237v16.301c0 4.739 2.95 7.462 8.101 7.462h16.596c4.045-0.037 7.311-3.325 7.311-7.376 0-0.063-0.001-0.125-0.002-0.188v-16.39c-0.006-4.973-3.485-8.046-6.725-8.046zM24.662 30.070h-16.596c-4.1 0-6.178-1.844-6.178-5.532v-12.773h6.614c-0.506 1.039-0.802 2.261-0.802 3.552 0 4.566 3.701 8.267 8.267 8.267s8.267-3.701 8.267-8.267c0-1.291-0.296-2.513-0.824-3.602l6.629 0.049v12.668c0.037 3.227-2.305 5.637-5.378 5.637zM7.224 1.912h18.053c2.305 0 4.788 2.342 4.788 6.147v1.727h-7.991c-1.513-1.683-3.698-2.736-6.128-2.736s-4.615 1.054-6.122 2.729l-7.905 0.008v-1.543c0-2.92 1.395-6.319 5.329-6.319zM22.332 15.318c0 0.002 0 0.004 0 0.006 0 3.503-2.84 6.343-6.343 6.343s-6.343-2.84-6.343-6.343c0-3.503 2.84-6.343 6.343-6.343 3.5 0.004 6.336 2.838 6.343 6.337zM11.287 15.318c0 2.6 2.108 4.708 4.708 4.708s4.708-2.108 4.708-4.708c0-2.6-2.108-4.708-4.708-4.708 0 0 0 0 0 0-2.6 0-4.708 2.108-4.708 4.708zM18.804 15.318c0 1.555-1.26 2.815-2.815 2.815s-2.815-1.26-2.815-2.815c0-1.555 1.26-2.815 2.815-2.815 0.002 0 0.004 0 0.006 0 1.555 0 2.815 1.26 2.815 2.815 0 0 0 0 0 0zM23.758 8.372h2.133c0 0 0 0 0 0 0.794 0 1.438-0.644 1.438-1.438 0 0 0 0 0 0v-2.133c0-0.794-0.644-1.438-1.438-1.438 0 0 0 0 0 0h-2.133c0 0 0 0 0 0-0.794 0-1.438 0.644-1.438 1.438 0 0 0 0 0 0v2.133c0 0.794 0.644 1.438 1.438 1.438 0 0 0 0 0 0z"></path>
</svg>
