<svg version="1.1" xmlns="http://www.w3.org/2000/svg" width="28" height="28" viewBox="0 0 28 28">
  <title>invitation</title>
  <path d="M15.167 23.917h-2.333c-0.322 0-0.583 0.261-0.583 0.583s0.261 0.583 0.583 0.583h2.333c0.322 0 0.583-0.261 0.583-0.583s-0.261-0.583-0.583-0.583z"></path>
  <path d="M16.333 21.583h-4.667c-0.322 0-0.583 0.261-0.583 0.583s0.261 0.583 0.583 0.583h4.667c0.322 0 0.583-0.261 0.583-0.583s-0.261-0.583-0.583-0.583z"></path>
  <path
    d="M24.5 4.667h-21.583v-0.663l18.667-2.745v2.241c0 0.322 0.261 0.583 0.583 0.583s0.583-0.261 0.583-0.583v-2.917c0-0.17-0.074-0.331-0.202-0.441s-0.298-0.16-0.466-0.136l-19.825 2.915c-0.205 0.039-0.507 0.112-0.507 0.587v23.908c0 0.322 0.261 0.583 0.583 0.583h22.167c0.965 0 1.75-0.785 1.75-1.75v-19.833c0-0.965-0.785-1.75-1.75-1.75zM25.083 26.25c0 0.322-0.262 0.583-0.583 0.583h-21.583v-15.167h7v0.081c0 0.842 0.685 1.527 1.527 1.527 0.236 0 0.472-0.056 0.683-0.161l0.9-0.45c-0.927 2.297-2.755 3.932-5.45 4.869-0.304 0.106-0.465 0.438-0.359 0.743s0.438 0.465 0.743 0.359c2.894-1.006 4.953-2.815 6.040-5.283 1.087 2.467 3.146 4.277 6.040 5.283 0.304 0.106 0.637-0.055 0.743-0.359s-0.055-0.637-0.359-0.743c-2.695-0.937-4.523-2.572-5.45-4.869l0.9 0.45c0.211 0.105 0.447 0.161 0.683 0.161 0.842 0 1.527-0.685 1.527-1.527v-0.081h7v14.583zM11.083 11.748v-1.612c0-0.199 0.162-0.361 0.361-0.361 0.056 0 0.111 0.013 0.161 0.038l1.812 0.906v0.446l-1.812 0.906c-0.050 0.025-0.106 0.038-0.161 0.038-0.199 0-0.361-0.162-0.361-0.36zM14.583 11.165v-0.446l1.812-0.906c0.050-0.025 0.106-0.038 0.161-0.038 0.199 0 0.36 0.162 0.36 0.361v1.612c0 0.199-0.162 0.361-0.361 0.361-0.056 0-0.111-0.013-0.161-0.038l-1.812-0.906zM25.083 10.5h-7v-0.364c0-0.842-0.685-1.527-1.527-1.527-0.236 0-0.472 0.056-0.683 0.161l-1.873 0.937-1.873-0.937c-0.211-0.105-0.447-0.161-0.683-0.161-0.842 0-1.527 0.685-1.527 1.527v0.364h-7v-4.667h21.583c0.322 0 0.583 0.262 0.583 0.583h0v4.083z"></path>
</svg>
