<svg version="1.1" xmlns="http://www.w3.org/2000/svg" width="32" height="32" viewBox="0 0 32 32">
  <title>left</title>
  <path
    d="M18.24 8.8h-0.042c-2.627 2.442-5.213 4.918-7.874 7.326v0.093c2.661 2.4 5.246 4.884 7.874 7.326h0.042c0.278-0.32 0.615-0.581 0.918-0.842v-0.042c-2.333-2.105-4.564-4.312-6.905-6.4 2.248-2.223 4.598-4.337 6.905-6.493v-0.051c-0.303-0.345-0.64-0.606-0.918-0.918zM0 16c0-8.837 7.163-16 16-16s16 7.163 16 16c0 8.837-7.163 16-16 16s-16-7.163-16-16zM0.421 16c0 8.604 6.975 15.579 15.579 15.579s15.579-6.975 15.579-15.579c0-8.604-6.975-15.579-15.579-15.579-8.6 0.010-15.569 6.979-15.579 15.578z"></path>
</svg>
