<svg version="1.1" xmlns="http://www.w3.org/2000/svg" width="32" height="32" viewBox="0 0 32 32">
  <title>libra</title>
  <path
    d="M15.441 0.005h1.128c1.020 0.181 2.019 1.002 2.489 2.102l8.698 0.024c1.41 3.879 2.786 7.798 4.252 11.627v0.688c-0.378 2.402-1.257 4.466-3.062 5.374-0.648 0.311-1.409 0.492-2.213 0.492-1.659 0-3.138-0.774-4.095-1.981-0.817-1.205-1.312-2.706-1.322-4.322 0.056-0.769 0.564-1.632 0.874-2.438 0.897-2.43 1.692-4.911 2.628-7.33h-5.689c-0.188 0.623-1 1.508-2.037 1.991l-0.026 23.575c2.374 0.147 5.024 0 7.5 0.062v2.126h-17.125v-2.126h7.5v-23.547c-0.631-0.192-1.513-1.002-1.991-2.037l-5.695-0.026c0.727 2.334 1.658 4.753 2.56 7.251 0.293 0.806 0.812 1.692 0.874 2.436-0.003 1.162-0.303 2.294-0.831 3.286-0.007 0.385-0.729 1.486-1.717 2.264-0.816 0.502-1.79 0.795-2.831 0.795s-2.015-0.292-2.843-0.799c-1.442-0.985-2.074-2.642-2.474-4.926v-0.812c1.489-3.823 2.786-7.844 4.314-11.627h8.627c0.341-0.96 1.299-1.829 2.485-2.115zM14.938 3.067c-0.158 1.663 2.081 1.466 2.126 0.186 0.006-0.041 0.009-0.087 0.009-0.135 0-0.536-0.434-0.97-0.97-0.97-0.104 0-0.204 0.016-0.298 0.047-0.457 0.034-0.829 0.404-0.867 0.869zM2.189 13.882h6.315c-1.038-2.943-2.092-5.87-3.186-8.751-1.026 2.938-2.16 5.763-3.13 8.751zM23.503 13.882h6.315c-1.009-2.972-2.064-5.898-3.186-8.751-0.998 2.966-2.137 5.785-3.135 8.751zM8.002 16.008h-5.312c0.434 2.757 4.799 2.718 5.312 0zM24.063 16.194c0.615 2.633 4.861 2.402 5.25-0.186-1.748 0.039-3.665-0.085-5.312 0.062 0.040 0.012 0.068 0.049 0.068 0.092 0 0.012-0.002 0.023-0.006 0.033z"></path>
</svg>
