<svg version="1.1" xmlns="http://www.w3.org/2000/svg" width="768" height="768" viewBox="0 0 768 768">
  <path
    d="M268.8 691.2h-153.6c-10.598 0-20.16-4.262-27.148-11.251s-11.251-16.55-11.251-27.148v-537.6c0-10.598 4.262-20.16 11.251-27.149s16.55-11.251 27.148-11.251h153.6c21.197 0 38.4-17.204 38.4-38.4s-17.204-38.4-38.4-38.4h-153.6c-31.796 0-60.672 12.941-81.446 33.754s-33.754 49.651-33.754 81.446v537.6c0 31.795 12.941 60.672 33.754 81.446s49.651 33.754 81.446 33.754h153.6c21.197 0 38.4-17.203 38.4-38.4s-17.204-38.4-38.4-38.4zM636.903 345.6h-368.103c-21.196 0-38.4 17.203-38.4 38.4s17.204 38.4 38.4 38.4h368.103l-126.451 126.451c-15.015 15.015-15.015 39.322 0 54.298s39.322 15.015 54.298 0l192-192c3.686-3.686 6.452-7.91 8.333-12.442 5.76-13.901 2.995-30.528-8.333-41.856l-192-192c-15.015-15.015-39.322-15.015-54.298 0s-15.015 39.322 0 54.298z"></path>
</svg>
