<svg version="1.1" xmlns="http://www.w3.org/2000/svg" width="768" height="768" viewBox="0 0 768 768">
  <path
    d="M499.2 76.802h153.6c10.598 0 20.16 4.262 27.149 11.251s11.251 16.55 11.251 27.148v537.599c0 10.598-4.262 20.16-11.251 27.149s-16.55 11.251-27.149 11.251h-153.6c-21.196 0-38.4 17.204-38.4 38.4s17.203 38.4 38.4 38.4h153.6c31.796 0 60.672-12.941 81.446-33.754s33.754-49.651 33.754-81.446v-537.599c0-31.796-12.941-60.672-33.754-81.446s-49.651-33.754-81.446-33.754h-153.6c-21.196 0-38.4 17.203-38.4 38.4s17.203 38.4 38.4 38.4zM406.503 345.601h-368.102c-21.197 0-38.4 17.203-38.4 38.4s17.203 38.4 38.4 38.4h368.102l-126.451 126.451c-15.015 15.015-15.015 39.322 0 54.298s39.322 15.015 54.298 0l191.999-191.999c3.686-3.686 6.452-7.91 8.333-12.442s2.919-9.485 2.919-14.707c0-4.992-0.96-10.022-2.919-14.707-1.882-4.531-4.647-8.755-8.333-12.442l-191.999-191.999c-15.015-15.015-39.322-15.015-54.298 0s-15.015 39.322 0 54.298z"></path>
</svg>
