<?xml version="1.0" encoding="UTF-8"?>
<svg width="43px" height="22px" viewBox="0 0 43 22" version="1.1" xmlns="http://www.w3.org/2000/svg" xmlns:xlink="http://www.w3.org/1999/xlink">
    <!-- Generator: Sketch 48.2 (47327) - http://www.bohemiancoding.com/sketch -->
    <title>car-unloading</title>
    <desc>Created with Sketch.</desc>
    <g id="Page-1" stroke="none" stroke-width="1" fill-rule="evenodd">
        <g id="car-unloading" fill-rule="nonzero">
            <g id="delivery" transform="translate(17.000000, 0.000000)">
                <path d="M23.9124758,7.068 L17.0332017,7.068 L17.028328,5.374 L20.1938175,5.374 L20.1938175,0.283 C18.5546187,0.255 0.923889751,0.24 0.019,0.278 L0.019,18.156 C0.561608935,18.057 4.67341497,18.293 5.08686998,18.156 C5.50032499,18.019 5.950333,17.14 6.18021074,16.857 C6.27930997,16.735 6.50106482,16.627 6.42470967,16.457 L1.45593893,16.457 L1.45593893,1.975 L18.7625646,1.975 C18.7690629,2.126 18.7983053,3.263 18.7625646,3.67 L15.647437,3.67 L15.647437,16.439 L9.3302668,16.439 C9.64787173,16.712 10.2059142,17.973 10.7485231,18.133 C11.1497938,18.25 13.324291,18.133 13.9091389,18.133 L17.3110045,18.133 C17.93403,18.133 18.6293493,18.26 19.011125,18.133 C19.3929008,18.006 19.8786495,17.117 20.1044658,16.834 C20.1995036,16.717 20.4253199,16.599 20.3489647,16.434 L17.028328,16.434 C17.0551335,15.319 16.9747169,14.082 17.070567,13.042 L22.8638109,13.042 C23.4795258,13.042 24.152101,12.892 24.6069827,13.292 C24.5801772,14.322 24.6605938,15.484 24.5647437,16.435 L23.269143,16.435 C23.6208641,16.746 24.1326061,17.964 24.6873993,18.129 C25.0699874,18.242 25.4517631,18.049 25.983,18.129 L25.983,12.455 C25.2795579,12.008 24.5728666,11.538 23.9149127,11.067 L23.9124758,7.068 Z M19.451,11.317 L16.958,11.317 L16.958,8.824 L19.451,8.824 L19.451,11.317 Z M22.741,11.317 L20.195,11.317 L20.195,8.824 L22.741,8.824 L22.741,11.317 Z M21.3228237,17.3048566 C20.2823222,17.4887274 19.5,18.4134498 19.5,19.5287535 C19.5,19.8119413 19.550598,20.08305 19.6427122,20.3326848 C20.3523809,22.7350839 24.3807565,21.9392053 23.9707833,19.1100113 C23.7580124,18.0443661 22.8589257,17.2551981 21.7795027,17.2551981 C21.6173298,17.2551981 21.459049,17.2739878 21.3059577,17.3075409 L21.3228237,17.3048566 Z M7.52282352,17.3048566 C6.48232202,17.4887274 5.69999981,18.4134498 5.69999981,19.5287535 C5.69999981,19.8119413 5.75059776,20.08305 5.84271199,20.3326848 C6.55238072,22.7350839 10.5807563,21.9392053 10.1707831,19.1100113 C9.95801222,18.0443661 9.0589255,17.2551981 7.97950249,17.2551981 C7.81732956,17.2551981 7.65904878,17.2739878 7.50595754,17.3075409 L7.52282352,17.3048566 Z" id="Shape"></path>
            </g>
            <g id="arrow-left-2" transform="translate(0.000000, 3.000000)">
                <path d="M16,7.02315789 C15.9188134,7.02315789 15.843872,7.02315789 15.7626854,7.02315789 L3.7782982,7.02315789 L7.30679157,10.5852632 L5.92037471,12 L0,5.98736842 L5.92037471,0 L7.26307572,1.35789474 L3.7470726,4.90736842 L3.7470726,4.96421053 L3.95940671,4.96421053 L15.7814208,4.96421053 C15.8563622,4.96421053 15.9313037,4.96421053 16,4.96421053 L16,7.02315789 Z" id="Shape"></path>
            </g>
        </g>
    </g>
</svg>