<?xml version="1.0" encoding="UTF-8" ?>
<!DOCTYPE svg PUBLIC "-//W3C//DTD SVG 1.1//EN" "http://www.w3.org/Graphics/SVG/1.1/DTD/svg11.dtd">
<svg width="806pt" height="980pt" viewBox="0 0 806 980" version="1.1" xmlns="http://www.w3.org/2000/svg">
<g id="#ffffffff">
<path fill="#ffffff" opacity="1.00" d=" M 0.00 0.00 L 147.00 0.00 C 143.36 0.64 139.67 0.47 136.00 0.48 C 97.09 0.65 58.18 0.82 19.27 1.53 C 16.25 1.71 12.86 1.31 10.33 3.32 C 6.46 6.22 3.23 9.99 0.76 14.12 C 0.32 17.73 0.64 21.37 0.57 25.00 C 0.56 338.02 0.58 651.05 0.56 964.07 C 0.08 966.97 2.62 968.76 4.27 970.73 C 6.74 973.30 8.89 976.16 11.45 978.65 C 14.22 979.44 17.16 978.96 20.01 979.08 C 61.64 979.14 103.28 979.29 144.92 979.34 C 146.41 979.39 147.87 979.61 149.32 980.00 L 0.00 980.00 L 0.00 0.00 Z" />
</g>
<g id="#000000ff">
<path fill="#000000" opacity="1.00" d=" M 147.00 0.00 L 518.84 0.00 C 582.90 64.67 646.83 129.48 710.94 194.10 C 712.81 195.47 712.63 197.84 712.62 199.91 C 712.43 355.94 712.94 511.97 712.03 668.00 C 711.93 675.67 712.00 683.34 711.60 691.01 C 704.03 687.81 696.81 683.83 689.17 680.78 C 682.46 677.83 675.39 675.87 668.57 673.24 C 668.57 522.84 668.57 372.45 668.57 222.06 C 626.71 221.83 584.85 222.24 542.99 221.79 C 535.16 221.46 527.12 221.81 519.54 219.52 C 510.07 216.02 500.67 210.44 495.71 201.32 C 491.14 194.08 491.53 185.23 491.07 177.02 C 490.18 132.71 490.72 88.38 490.57 44.06 C 341.92 43.94 193.27 44.00 44.63 44.03 C 44.56 341.34 44.56 638.66 44.63 935.97 C 186.07 936.03 327.52 936.01 468.97 935.97 C 479.94 951.31 491.28 966.45 504.45 980.00 L 149.32 980.00 C 147.87 979.61 146.41 979.39 144.92 979.34 C 103.28 979.29 61.64 979.14 20.01 979.08 C 17.16 978.96 14.22 979.44 11.45 978.65 C 8.89 976.16 6.74 973.30 4.27 970.73 C 2.62 968.76 0.08 966.97 0.56 964.07 C 0.58 651.05 0.56 338.02 0.57 25.00 C 0.64 21.37 0.32 17.73 0.76 14.12 C 3.23 9.99 6.46 6.22 10.33 3.32 C 12.86 1.31 16.25 1.71 19.27 1.53 C 58.18 0.82 97.09 0.65 136.00 0.48 C 139.67 0.47 143.36 0.64 147.00 0.00 M 535.13 74.74 C 534.81 79.82 534.82 84.92 534.75 90.01 C 534.59 119.33 534.55 148.66 534.63 177.98 C 569.34 177.99 604.06 178.05 638.77 177.95 C 630.43 169.39 621.88 161.03 613.46 152.55 C 587.34 126.63 561.65 100.26 535.13 74.74 Z" />
<path fill="#000000" opacity="1.00" d=" M 134.59 178.02 C 223.27 178.03 311.95 177.94 400.63 178.07 C 400.60 192.69 400.60 207.32 400.63 221.94 C 311.95 222.13 223.27 222.01 134.59 222.01 C 134.52 207.34 134.52 192.68 134.59 178.02 Z" />
<path fill="#000000" opacity="1.00" d=" M 134.59 356.03 C 282.60 356.04 430.61 355.95 578.62 356.07 C 578.61 370.70 578.60 385.32 578.63 399.94 C 430.62 400.15 282.60 400.01 134.59 400.01 C 134.52 385.35 134.52 370.69 134.59 356.03 Z" />
<path fill="#000000" opacity="1.00" d=" M 134.59 534.03 C 282.60 534.04 430.61 533.94 578.62 534.08 C 578.60 549.35 578.61 564.63 578.62 579.91 C 430.61 580.03 282.60 579.95 134.59 579.95 C 134.52 564.64 134.52 549.33 134.59 534.03 Z" />
<path fill="#000000" opacity="1.00" d=" M 134.58 712.02 C 240.92 712.05 347.25 711.75 453.58 712.55 C 470.39 712.96 487.23 712.52 504.01 713.63 C 500.87 718.52 496.27 722.15 492.43 726.45 C 483.49 736.12 476.24 747.15 468.77 757.95 C 357.37 758.05 245.98 757.99 134.58 757.98 C 134.53 742.66 134.53 727.34 134.58 712.02 Z" />
<path fill="#000000" opacity="1.00" d=" M 742.28 731.25 C 763.35 752.15 784.28 773.20 805.28 794.19 C 797.97 802.23 789.97 809.61 782.39 817.39 C 739.49 860.16 696.91 903.25 653.53 945.54 C 641.40 957.26 629.50 969.27 616.47 980.00 L 615.30 980.00 C 607.41 973.86 600.18 966.94 592.97 960.03 C 575.24 943.10 557.92 925.75 540.56 908.43 C 523.69 891.34 506.35 874.69 489.79 857.32 C 510.82 836.39 531.68 815.28 552.79 794.44 C 573.97 815.29 594.75 836.55 615.96 857.37 C 658.20 815.47 700.08 773.19 742.28 731.25 Z" />
</g>
</svg>
