<?xml version="1.0" encoding="UTF-8"?>
<svg width="20px" height="20px" viewBox="0 0 20 20" version="1.1" xmlns="http://www.w3.org/2000/svg" xmlns:xlink="http://www.w3.org/1999/xlink">
    <!-- Generator: Sketch 48.2 (47327) - http://www.bohemiancoding.com/sketch -->
    <title>done-2</title>
    <desc>Created with Sketch.</desc>
    <defs></defs>
    <g id="Page-1" stroke="none" stroke-width="1" fill-rule="evenodd">
        <g id="done-2" transform="translate(1.000000, 1.000000)" fill-rule="nonzero">
            <path d="M17,8 L19,8 L19,16 C19,17.6522847 17.6522847,19 16,19 L2,19 C0.34771525,19 -1,17.6522847 -1,16 L-1,2 C-1,0.34771525 0.34771525,-1 2,-1 L11,-1 L11,1 L2,1 C1.45228475,1 1,1.45228475 1,2 L1,16 C1,16.5477153 1.45228475,17 2,17 L16,17 C16.5477153,17 17,16.5477153 17,16 L17,8 Z" id="Shape"></path>
            <polygon id="Done__x2014__Displayed_on_the_left_side_of_a_contextual_action_bar__x28_CAB_x29__to_allow_the_user_to_dismiss_it._3_" points="8.17910479 10.7648912 17.4726063 0.913779573 18.9273937 2.28622043 8.22089521 13.6351088 3.09289322 8.50710678 4.50710678 7.09289322"></polygon>
        </g>
    </g>
</svg>