<svg xmlns="http://www.w3.org/2000/svg" viewBox="0 0 3538.25 954.34"><title>logo-name</title><g id="Layer_2" data-name="Layer 2"><g id="Layer_1-2" data-name="Layer 1"><path d="M349.13,682H242.78l-112.4-316.8V303.73H230.6V87.56H102V682H0V0H270.68q61.44,0,61.43,62.73V310.67q0,43.21-29.18,55.79Q286.81,373,236.65,373L349.13,682Z"/><path d="M515.14,682h-102V0h102Z"/><path d="M936.11,619.72q0,62.32-62.32,62.25H659.71q-60.63,0-60.55-62.25v-557Q599.16-.07,661,0H874.11q62.4,0,62.33,62.73V207.87H834V86.92H700.84V594.41H833.71V403.55H757.92V316.8H936.11V619.72Z"/><path d="M1360.63,682H1257.75V376.06H1119.3V682H1017.63V0H1119.3V281.08h138.12V0h102.89Z"/><path d="M1738.06,90.15H1625.58V682H1524.07V90.15H1411.59V0h326.47Z"/><path d="M2311.1,619.72q0,62.32-62.33,62.25h-214.4q-60.54,0-60.63-62.25v-557q0-62.8,61.92-62.73h213.11q62.33,0,62.33,62.73V207.87H2208.7V86.92h-133V594.41h133V403.55h-75.88V316.8H2311.1V619.72Z"/><path d="M2733.84,619.72q0,62.32-62.73,62.25H2454.45q-61.75,0-61.84-62.25V0h101.92V594.4H2631.6V0h102Z"/><path d="M3158.76,3.87l-90.23,285q-16.61,42.33-44.91,142.55V682h-102.4V431.45a583.18,583.18,0,0,0-20-71.92q-23.1-64.95-24.84-70.63l-89.82-285V0h104.82l81.52,296.32L3054.42,0h104.82l-.48,3.87Z"/><path d="M3538.2,619.72q0,62.32-61.92,62.25H3270.75q-61.44,0-61.44-62.25V457.09h101.92V596.18h124.65V462.49L3231.81,269a71.86,71.86,0,0,1-22.17-54.42V62.73q0-62.8,61.43-62.73h205.21q61.92,0,61.92,61.84V214.4H3435.88V85.79H3311.23V209.16l204.4,192.62a72.57,72.57,0,0,1,22.57,55.31V619.72Z"/><path d="M1.05,785.26q8.46-.5,17.78-1.21t23.1-.73q23.94,0,34.34,7.38t10.41,22.37a31.42,31.42,0,0,1-5,16.57q-5,8.1-16.33,12v1q14.27,2.67,20.08,9.92t5.8,19.35q0,18.87-13.55,27.34t-40.63,8.46q-10.16,0-18.87-.6T1.05,905.72V785.26ZM20.4,889.75c3.06.32,6.09.57,9.07.73s6.49.24,10.52.24q16.21,0,24.07-4.6t7.86-15.72a17.44,17.44,0,0,0-6.65-14.15q-6.66-5.44-23.58-5.44H20.4v38.94Zm23.7-53.7a25.18,25.18,0,0,0,8.47-1.45,26.24,26.24,0,0,0,7.38-4,21.69,21.69,0,0,0,5.32-5.93,13.71,13.71,0,0,0,2.06-7.25q0-9.67-5.81-13.43T41.2,800.25q-7.74,0-12.21.24L20.4,801v35.07H44.1ZM278,898a53,53,0,0,1-17.17,8.1A76.88,76.88,0,0,1,240,908.86q-14,0-23.7-4.47a40.54,40.54,0,0,1-15.84-12.82,54.37,54.37,0,0,1-9-20.08,112.48,112.48,0,0,1-2.79-26q0-30.72,13.55-47t38.94-16.33A92.39,92.39,0,0,1,261,783.92a60.13,60.13,0,0,1,14.63,5.21L270,805.82a52.46,52.46,0,0,0-12.34-5A55.83,55.83,0,0,0,243.18,799q-34.35,0-34.35,46.45A82.29,82.29,0,0,0,210.65,863a43,43,0,0,0,6,14.76,31.79,31.79,0,0,0,11.13,10.28q6.9,3.87,17.05,3.87a43.1,43.1,0,0,0,15.6-2.66,44.28,44.28,0,0,0,11.25-6L278,898Zm183.11-1.7a54.5,54.5,0,0,1-18.26,9.19,78.89,78.89,0,0,1-23.34,3.39q-13.78,0-23.95-4.47a42.69,42.69,0,0,1-16.69-12.82,55.7,55.7,0,0,1-9.68-20,100.28,100.28,0,0,1-3.14-26.12q0-31,13.79-47.17t39.43-16.21a76,76,0,0,1,16.44,1.81,36.47,36.47,0,0,1,14.76,6.9q6.52,5.07,10.64,14.39t4.11,24.55a119.56,119.56,0,0,1-1.45,17.66H386.14a74.16,74.16,0,0,0,2.17,18.87,36.69,36.69,0,0,0,6.78,13.91,29.27,29.27,0,0,0,12,8.7q7.38,3,18,3A49,49,0,0,0,441.53,889q8.22-2.89,12.34-6.77l7.25,14ZM419.52,799q-14.28,0-22.86,7.5t-10.28,25.64h60q0-18.37-7-25.76T419.52,799ZM383,752.36a12.34,12.34,0,0,1,3.27-9,12.57,12.57,0,0,1,17.17,0,12.33,12.33,0,0,1,3.27,9,11.69,11.69,0,0,1-3.27,8.46,12.57,12.57,0,0,1-17.17,0A11.69,11.69,0,0,1,383,752.36Zm46.44,0a12.34,12.34,0,0,1,3.27-9,11.39,11.39,0,0,1,8.59-3.39,11.69,11.69,0,0,1,8.83,3.39,12.36,12.36,0,0,1,3.26,9,11.4,11.4,0,0,1-12.09,11.85,11.39,11.39,0,0,1-8.59-3.39A11.69,11.69,0,0,1,429.43,752.36ZM808.72,936.68H795.66L792,906H701.08l-3.63,30.72H684.39V889h14.27a61.84,61.84,0,0,0,5.08-9.56,113.17,113.17,0,0,0,6.17-19.35,282,282,0,0,0,5.32-31A430.5,430.5,0,0,0,718,785h73V889h17.66v47.65Zm-37-47.65V802H735.43q-.49,10.15-1.7,22.13T730.47,848a199.16,199.16,0,0,1-5.2,22.61A99.54,99.54,0,0,1,718,889ZM971.51,802H936.44q-.74,10.15-1.46,21.89t-2.17,23.46q-1.45,11.73-3.87,22.5a97,97,0,0,1-6.17,19A39.93,39.93,0,0,1,913.58,902a18.58,18.58,0,0,1-12.94,4.95,57.53,57.53,0,0,1-8-.48,22.21,22.21,0,0,1-6-1.69l2.9-16.21a19.65,19.65,0,0,0,6.29,1,11.72,11.72,0,0,0,8.71-4.11q3.87-4.11,6.77-15.6T916.12,838q1.93-20.32,2.66-53h72.08V906H971.51v-104Zm190.61,53.94-18.63,2.9L1111.56,906H1088.1l29-41.36,9.67-9a39.41,39.41,0,0,1-21.4-10.16q-8.84-8.22-8.83-22.26,0-10.87,3.75-18.62a33.8,33.8,0,0,1,10.76-12.82,46.33,46.33,0,0,1,16.69-7.38,94.57,94.57,0,0,1,21.77-2.3,107.77,107.77,0,0,1,16.69,1.21q7.74,1.21,15.24,2.66V906h-19.35V855.89Zm0-54.43a34.59,34.59,0,0,0-7-1.81,43.71,43.71,0,0,0-6.77-.61q-15.48,0-23.58,5.57t-8.11,17.65q0,10.89,8.59,16.82t22.62,5.92h2.66q1.46,0,4.11-.12l7.5-.36V801.46Zm366.7,32.66,1.45-23h-1.2l-8.71,18.62-29.27,47.41h-6.77l-30.48-47.41-8-18.62h-1l1.93,22.74V906h-17.9V785H1448l33.87,54.19,7,14h.49l7.25-14.52,31.69-53.7h19.35V906h-18.87V834.12ZM1747,896.28a54.6,54.6,0,0,1-18.26,9.19,78.9,78.9,0,0,1-23.35,3.39q-13.79,0-23.94-4.47a42.61,42.61,0,0,1-16.69-12.82,55.54,55.54,0,0,1-9.68-20,99.85,99.85,0,0,1-3.14-26.12q0-31,13.78-47.17t39.43-16.21a76.13,76.13,0,0,1,16.45,1.81,36.59,36.59,0,0,1,14.76,6.9q6.53,5.07,10.64,14.39t4.11,24.55a119.56,119.56,0,0,1-1.45,17.66H1672a74.13,74.13,0,0,0,2.18,18.87A36.83,36.83,0,0,0,1681,880.2a29.37,29.37,0,0,0,12,8.7q7.38,3,18,3a49.09,49.09,0,0,0,16.45-2.91q8.22-2.89,12.33-6.77l7.26,14ZM1705.4,799q-14.26,0-22.86,7.5t-10.28,25.64h60q0-18.37-7-25.76T1705.4,799Zm150-14h13.31l3.63,14.52h1a36.93,36.93,0,0,1,14.4-12.94,44,44,0,0,1,20.19-4.48q24.2,0,36.05,14.27t11.85,46.69a88.13,88.13,0,0,1-4,27.45,59.91,59.91,0,0,1-11.25,20.68A49.16,49.16,0,0,1,1923,904.26a55.28,55.28,0,0,1-22.86,4.6,72,72,0,0,1-14.15-1.09,56.7,56.7,0,0,1-11.24-3.75v50.32h-19.36V785Zm48.87,14q-12.35,0-19.48,6.41t-10,19.47v60a32,32,0,0,0,9.91,5.2q5.56,1.82,14.76,1.82,16.69,0,26.49-12.46t9.79-36.64a88.18,88.18,0,0,0-1.69-18,39.45,39.45,0,0,0-5.44-13.79,26,26,0,0,0-9.68-8.83q-5.92-3.15-14.63-3.15Zm149,46.45q0-30.72,13.67-47t39.3-16.33q13.56,0,23.59,4.48a42.76,42.76,0,0,1,16.57,12.82,55.33,55.33,0,0,1,9.67,20.07,100.22,100.22,0,0,1,3.15,26q0,30.72-13.67,47t-39.3,16.33q-13.56,0-23.59-4.47a43,43,0,0,1-16.57-12.82,55.46,55.46,0,0,1-9.67-20.08A100.19,100.19,0,0,1,2053.24,845.49Zm20.08,0a84,84,0,0,0,1.81,17.65,46.51,46.51,0,0,0,5.69,14.76A30.62,30.62,0,0,0,2091,888.06a28.57,28.57,0,0,0,15.24,3.87q32.89.24,32.9-46.44a85.2,85.2,0,0,0-1.81-17.9,46.51,46.51,0,0,0-5.69-14.76,28.19,28.19,0,0,0-25.4-13.79q-32.89-.24-32.89,46.45ZM2336.25,802h-53.46V906h-19.35V785h92.16V906h-19.35V802ZM2466.63,785h13.3l3.63,14.52h1a37,37,0,0,1,14.39-12.94,44,44,0,0,1,20.2-4.48q24.2,0,36,14.27T2567,843.07a87.83,87.83,0,0,1-4,27.45,60.06,60.06,0,0,1-11.24,20.68,49.25,49.25,0,0,1-17.54,13.06,55.28,55.28,0,0,1-22.86,4.6,72,72,0,0,1-14.15-1.09A56.56,56.56,0,0,1,2486,904v50.32h-19.35V785Zm48.86,14q-12.33,0-19.47,6.41t-10,19.47v60a32.15,32.15,0,0,0,9.92,5.2q5.57,1.82,14.75,1.82,16.7,0,26.49-12.46t9.8-36.64a88.14,88.14,0,0,0-1.7-18A39.26,39.26,0,0,0,2539.8,811a26,26,0,0,0-9.67-8.83c-4-2.1-8.83-3.15-14.64-3.15Zm231.25,35.32.72-15h-.72l-9.92,15.48L2682.4,906h-11.13V785h19.35v73.78l-.73,14.27h1l9.44-15,54.42-73h11.37V906h-19.35v-71.6Zm190.61,21.53-18.63,2.9L2886.79,906h-23.46l29-41.36,9.67-9a39.41,39.41,0,0,1-21.4-10.16q-8.84-8.22-8.83-22.26,0-10.87,3.75-18.62a33.62,33.62,0,0,1,10.76-12.82,46.33,46.33,0,0,1,16.69-7.38,94.57,94.57,0,0,1,21.77-2.3,107.77,107.77,0,0,1,16.69,1.21q7.74,1.21,15.24,2.66V906h-19.35V855.89Zm0-54.43a34.59,34.59,0,0,0-7-1.81,43.82,43.82,0,0,0-6.77-.61q-15.48,0-23.58,5.57t-8.11,17.65q0,10.89,8.59,16.82t22.62,5.92h2.66q1.46,0,4.11-.12l7.5-.36V801.46Zm205.36.49H3105V906h-19.35V802h-37.74V785h94.82Zm168.36,32.41.72-15h-.72l-9.92,15.48L3246.73,906H3235.6V785H3255v73.78l-.73,14.27h1l9.44-15,54.42-73h11.37V906h-19.35v-71.6Zm205.85,0,.72-15h-.72L3507,834.84,3452.57,906h-11.12V785h19.35v73.78l-.73,14.27h1l9.43-15,54.43-73h11.37V906h-19.35v-71.6Zm-47.66-98.21q2.43,11.13,8.35,15.48a22.42,22.42,0,0,0,13.67,4.36,22.19,22.19,0,0,0,13.78-4.6q6.06-4.59,8.23-15l14.51,4.6q-2.18,14-12.46,21.53t-24.55,7.5a50.42,50.42,0,0,1-12.94-1.7,38.11,38.11,0,0,1-11.49-5.08,32,32,0,0,1-8.71-8.7,31,31,0,0,1-4.83-12.58l16.44-5.81Z"/></g></g></svg>