<svg version="1.1" xmlns="http://www.w3.org/2000/svg" width="156" height="32" viewBox="0 0 156 32">
  <title>logo-simple</title>
  <path fill="#e32f26" d="M18.31 20.201l-18.31 11.364v-8.279l19.664-5.711z"></path>
  <path fill="#e32f26" d="M15.91 24.455v0l-10.966 7.11h6.937z"></path>
  <path fill="#e32f26" d="M20.213 22.076l-5.231 9.489 7.028 0.029z"></path>
  <path fill="#e32f26" d="M22.757 17.432l9.842-6.154-3.758-4.898z"></path>
  <path fill="#e32f26" d="M31.787 14.519l-9.309 5.854 1.912 10.293 4.714-4.985 2.917 0.033 0.025-5.198 1.739 0.025z"></path>
  <path fill="#e32f26" d="M25.177 7.75l-9.186-5.756 4.837-1.994 5.44 5.895z"></path>
  <path fill="#e32f26" d="M23.873 10.064l-0.923 1.563-17.817-3.167 7.52-5.547z"></path>
  <path fill="#e32f26" d="M21.879 13.342l-1.071 1.924-20.808 4.611 2.474-8.287z"></path>
  <path fill="#000"
        d="M51.729 28.291h-3.487l-3.692-10.392v-2.014h3.282v-7.085h-4.197v19.491h-3.344v-22.363h8.874c1.343 0 2.014 0.684 2.014 2.051v8.131c0 0.944-0.319 1.553-0.956 1.83-0.709 0.186-1.443 0.259-2.174 0.213l3.68 10.137z"></path>
  <path fill="#000" d="M57.173 28.291h-3.344v-22.363h3.344z"></path>
  <path fill="#000"
        d="M70.983 26.24c0 1.368-0.684 2.051-2.051 2.051h-7.024c-1.324 0-1.986-0.684-1.986-2.051v-18.252c0-1.368 0.677-2.051 2.031-2.051h6.974c1.368 0 2.051 0.684 2.051 2.051v4.775h-3.36v-3.959h-4.353v16.615h4.361v-6.256h-2.486v-2.843h5.846v9.92h-0.004z"></path>
  <path fill="#000" d="M84.903 28.291h-3.372v-10.027h-4.513v10.027h-3.344v-22.363h3.344v9.235h4.513v-9.235h3.372z"></path>
  <path fill="#000" d="M97.28 8.886h-3.692v19.405h-3.331v-19.405h-3.692v-2.958h10.704v2.958z"></path>
  <path fill="#000"
        d="M116.074 26.24c0 1.368-0.684 2.051-2.051 2.051h-7.024c-1.324 0-1.986-0.684-1.986-2.051v-18.252c0-1.368 0.677-2.051 2.031-2.051h6.974c1.368 0 2.051 0.684 2.051 2.051v4.775h-3.36v-3.959h-4.353v16.615h4.361v-6.256h-2.486v-2.843h5.846v9.92h-0.004z"></path>
  <path fill="#000" d="M129.94 26.24c0 1.368-0.684 2.051-2.051 2.051h-7.126c-1.354 0-2.031-0.684-2.031-2.051v-20.312h3.344v19.491h4.513v-19.491h3.344v20.312h0.008z"></path>
  <path fill="#000"
        d="M143.873 6.059l-2.958 9.346c-0.361 0.933-0.852 2.493-1.473 4.681v8.205h-3.36v-8.205c-0.167-0.8-0.387-1.588-0.656-2.359-0.506-1.419-0.78-2.191-0.821-2.314l-2.946-9.346c-0.011-0.042-0.011-0.086 0-0.127h3.463l2.671 9.719 2.663-9.731h3.43v0.127l-0.012 0.004z"></path>
  <path fill="#000"
        d="M156.308 26.24c0 1.368-0.677 2.051-2.031 2.051h-6.728c-1.343 0-2.014-0.684-2.014-2.051v-5.333h3.344v4.558h4.103v-4.373l-6.72-6.338c-0.486-0.464-0.751-1.113-0.73-1.785v-4.981c0-1.368 0.671-2.051 2.014-2.051h6.732c1.354 0 2.031 0.677 2.031 2.031v5.001h-3.344v-4.226h-4.103v4.045l6.704 6.318c0.492 0.472 0.758 1.132 0.73 1.813v5.333l0.012-0.012z"></path>
</svg>
