<svg version="1.1" xmlns="http://www.w3.org/2000/svg" width="32" height="32" viewBox="0 0 32 32">
  <title>mail</title>
  <path
    d="M20.555 20.547c-0.529 0.359-0.711 1.051-1.164 1.555 0.323-0.22-0.51 0.666-1.526 1.28-2.717 1.489-6.323 0.545-7.727-1.28-1.844-2.348-2.127-6.332-0.906-9.316 1.018-2.654 3.575-4.671 6.635-4.951 0.319-0.017 0.656-0.026 0.994-0.026 2.151 0 4.223 0.34 6.165 0.969-0.229 1.502-0.381 3.246-0.462 4.996-0.151 3.242-1.108 8.774 2.977 7.893 3.726-0.806 3.871-8.384 2.719-11.839-0.516-2.292-2.634-4.82-5.438-6.117-2.814-1.285-6.912-1.405-10.027-0.542-5.866 1.618-9.441 6.326-9.574 13.652s3.638 12.135 10.612 12.588c3.688 0.252 6.798-0.51 9.964-1.618v2.587c-4.047 1.888-10.776 2.241-15.27 0.453-4.192-1.668-6.968-5.218-7.761-10.285-0.913-5.816 0.629-11.059 3.147-14.364 2.675-3.5 6.735-5.828 12.16-6.143 7.22-0.422 11.607 2.757 13.847 7.119 2.467 4.809 2.172 12.878-1.813 15.849-2.511 1.882-7.358 1.271-7.553-2.461zM16.218 10.2c-3.544 0.315-4.991 3.72-4.721 7.44 0.009 0.846 0.272 1.792 0.727 2.618 0.954 1.505 3.824 1.977 5.486 0.681 2.348-1.832 1.769-6.364 2.197-10.348-0.898-0.261-1.93-0.412-2.997-0.412-0.243 0-0.485 0.008-0.724 0.023z"></path>
</svg>
