<?xml version="1.0" encoding="UTF-8"?>
<svg width="590px" height="127px" viewBox="0 0 590 127" version="1.1" xmlns="http://www.w3.org/2000/svg" xmlns:xlink="http://www.w3.org/1999/xlink">
    <!-- Generator: Sketch 48.2 (47327) - http://www.bohemiancoding.com/sketch -->
    <title>main-logo</title>
    <desc>Created with Sketch.</desc>
    <defs></defs>
    <g id="Page-1" stroke="none" stroke-width="1" fill="none" fill-rule="evenodd">
        <g id="main-logo">
            <g id="Group" fill="#DD2214" fill-rule="nonzero">
                <polygon id="Shape" points="70.99 78.33 0 122.38 0 90.29 76.25 68.14"></polygon>
                <polygon id="Shape" points="61.69 94.82 61.69 94.82 19.18 122.38 46.06 122.38"></polygon>
                <polygon id="Shape" points="78.38 85.6 58.1 122.38 85.34 122.49"></polygon>
                <polygon id="Shape" points="88.24 67.58 126.4 43.73 111.82 24.74"></polygon>
                <polygon id="Shape" points="123.24 56.3 87.15 78.99 94.57 118.9 112.84 99.58 124.15 99.7 124.25 79.54 130.99 79.65"></polygon>
                <polygon id="Shape" points="97.62 30.06 62 7.72 80.77 0 101.85 22.86"></polygon>
                <polygon id="Shape" points="92.56 39.02 88.99 45.08 19.9 32.8 49.05 11.29"></polygon>
                <polygon id="Shape" points="84.84 51.72 80.68 59.19 0 77.08 9.59 44.93"></polygon>
            </g>
            <g id="Group" transform="translate(151.000000, 8.000000)" fill="#000000" fill-rule="nonzero">
                <path d="M43.48,85.22 L30.29,85.22 L16.35,45.93 L16.35,38.31 L28.78,38.31 L28.78,11.5 L12.83,11.5 L12.83,85.22 L0.18,85.22 L0.18,0.64 L33.75,0.64 C38.83,0.64 41.37,3.23333333 41.37,8.42 L41.37,39.17 C41.37,42.7433333 40.1633333,45.05 37.75,46.09 C36.4166667,46.63 33.6766667,46.9 29.53,46.9 L43.48,85.22 Z" id="Shape"></path>
                <polygon id="Shape" points="64.07 85.22 51.42 85.22 51.42 0.64 64.07 0.64"></polygon>
                <path d="M116.28,77.5 C116.28,82.6533333 113.703333,85.2266667 108.55,85.22 L82,85.22 C76.9866667,85.22 74.4833333,82.6466667 74.49,77.5 L74.49,8.42 C74.49,3.22666667 77.0466667,0.633333333 82.16,0.64 L108.59,0.64 C113.75,0.64 116.326667,3.23333333 116.32,8.42 L116.32,26.42 L103.62,26.42 L103.62,11.42 L87.1,11.42 L87.1,74.36 L103.58,74.36 L103.58,50.69 L94.18,50.69 L94.18,39.93 L116.28,39.93 L116.28,77.5 Z" id="Shape"></path>
                <polygon id="Shape" points="168.93 85.22 156.17 85.22 156.17 47.28 139 47.28 139 85.22 126.39 85.22 126.39 0.64 139 0.64 139 35.5 156.13 35.5 156.13 0.64 168.89 0.64"></polygon>
                <polygon id="Shape" points="215.74 11.82 201.79 11.82 201.79 85.22 189.2 85.22 189.2 11.82 175.25 11.82 175.25 0.64 215.74 0.64"></polygon>
                <path d="M286.81,77.5 C286.81,82.6533333 284.233333,85.2266667 279.08,85.22 L252.49,85.22 C247.483333,85.22 244.976667,82.6466667 244.97,77.5 L244.97,8.42 C244.97,3.22666667 247.53,0.633333333 252.65,0.64 L279.08,0.64 C284.233333,0.64 286.81,3.23333333 286.81,8.42 L286.81,26.42 L274.11,26.42 L274.11,11.42 L257.62,11.42 L257.62,74.36 L274.11,74.36 L274.11,50.69 L264.7,50.69 L264.7,39.93 L286.81,39.93 L286.81,77.5 Z" id="Shape"></path>
                <path d="M339.24,77.5 C339.24,82.6533333 336.646667,85.2266667 331.46,85.22 L304.59,85.22 C299.483333,85.22 296.926667,82.6466667 296.92,77.5 L296.92,0.64 L309.56,0.64 L309.56,74.36 L326.56,74.36 L326.56,0.64 L339.21,0.64 L339.24,77.5 Z" id="Shape"></path>
                <path d="M391.94,1.12 L380.75,36.47 C379.376667,39.97 377.52,45.8633333 375.18,54.15 L375.18,85.22 L362.48,85.22 L362.48,54.15 C361.844859,51.1267107 361.016492,48.1472635 360,45.23 C358.09,39.86 357.07,36.94 356.92,36.47 L345.78,1.12 C345.78,1.12 345.78,0.93 345.78,0.64 L358.78,0.64 L368.89,37.39 L379,0.64 L392,0.64 L391.94,1.12 Z" id="Shape"></path>
                <path d="M439,77.5 C439,82.6533333 436.44,85.2266667 431.32,85.22 L405.83,85.22 C400.75,85.22 398.21,82.6466667 398.21,77.5 L398.21,57.33 L410.85,57.33 L410.85,74.58 L426.31,74.58 L426.31,58 L401,34 C399.163958,32.2442551 398.163646,29.7889435 398.25,27.25 L398.25,8.42 C398.25,3.22666667 400.79,0.633333333 405.87,0.64 L431.32,0.64 C436.44,0.64 439,3.19666667 439,8.31 L439,27.23 L426.31,27.23 L426.31,11.28 L410.85,11.28 L410.85,26.58 L436.2,50.47 C438.074973,52.2485959 439.094885,54.7473803 439,57.33 L439,77.5 Z" id="Shape"></path>
            </g>
            <path d="M151.31,106.03 C152.010004,105.99 152.744996,105.94 153.515,105.88 C154.285004,105.82 155.239994,105.79 156.38,105.79 C158.36001,105.79 159.779996,106.094997 160.64,106.705 C161.500004,107.315003 161.93,108.239994 161.93,109.48 C161.93,110.180003 161.725002,110.864997 161.315,111.535 C160.904998,112.205003 160.230005,112.699998 159.29,113.02 L159.29,113.14 C160.470006,113.360001 161.299998,113.769997 161.78,114.37 C162.260002,114.970003 162.5,115.769995 162.5,116.77 C162.5,118.330008 161.940006,119.459997 160.82,120.16 C159.699994,120.860004 158.020011,121.21 155.78,121.21 C154.939996,121.21 154.160004,121.185 153.44,121.135 C152.719996,121.085 152.010004,121.03 151.31,120.97 L151.31,106.03 Z M153.71,118.99 C154.090002,119.03 154.464998,119.06 154.835,119.08 C155.205002,119.1 155.639997,119.11 156.14,119.11 C157.480007,119.11 158.474997,118.920002 159.125,118.54 C159.775003,118.159998 160.1,117.510005 160.1,116.59 C160.1,115.869996 159.825003,115.285002 159.275,114.835 C158.724997,114.384998 157.750007,114.16 156.35,114.16 L153.71,114.16 L153.71,118.99 Z M156.65,112.33 C157.010002,112.33 157.359998,112.270001 157.7,112.15 C158.040002,112.029999 158.344999,111.865001 158.615,111.655 C158.885001,111.444999 159.104999,111.200001 159.275,110.92 C159.445001,110.639999 159.53,110.340002 159.53,110.02 C159.53,109.219996 159.290002,108.665002 158.81,108.355 C158.329998,108.044998 157.490006,107.89 156.29,107.89 C155.649997,107.89 155.145002,107.9 154.775,107.92 C154.404998,107.94 154.050002,107.96 153.71,107.98 L153.71,112.33 L156.65,112.33 Z M185.66,120.01 C185.059997,120.450002 184.350004,120.784999 183.53,121.015 C182.709996,121.245001 181.850004,121.36 180.95,121.36 C179.789994,121.36 178.810004,121.175002 178.01,120.805 C177.209996,120.434998 176.555002,119.905003 176.045,119.215 C175.534997,118.524997 175.165001,117.695005 174.935,116.725 C174.704998,115.754995 174.59,114.680006 174.59,113.5 C174.59,110.959987 175.149994,109.015007 176.27,107.665 C177.390005,106.314993 178.999989,105.64 181.1,105.64 C182.060004,105.64 182.874996,105.714999 183.545,105.865 C184.215003,106.015001 184.819997,106.229999 185.36,106.51 L184.67,108.58 C184.209997,108.319999 183.700002,108.115001 183.14,107.965 C182.579997,107.814999 181.980003,107.74 181.34,107.74 C178.499985,107.74 177.08,109.659981 177.08,113.5 C177.08,114.260004 177.154999,114.984997 177.305,115.675 C177.455,116.365003 177.704998,116.974997 178.055,117.505 C178.405001,118.035003 178.864997,118.459998 179.435,118.78 C180.005002,119.100002 180.709995,119.26 181.55,119.26 C182.270003,119.26 182.914997,119.150001 183.485,118.93 C184.055002,118.709999 184.519998,118.460001 184.88,118.18 L185.66,120.01 Z M208.369999,119.8 C207.769996,120.280002 207.015004,120.659999 206.104999,120.94 C205.194995,121.220001 204.230004,121.36 203.209999,121.36 C202.069994,121.36 201.080003,121.175002 200.239999,120.805 C199.399995,120.434998 198.710002,119.905003 198.169999,119.215 C197.629997,118.524997 197.230001,117.700005 196.969999,116.74 C196.709998,115.779995 196.579999,114.700006 196.579999,113.5 C196.579999,110.939987 197.149994,108.990007 198.289999,107.65 C199.430005,106.309993 201.059989,105.64 203.179999,105.64 C203.860003,105.64 204.539996,105.714999 205.219999,105.865 C205.900003,106.015001 206.509997,106.299998 207.049999,106.72 C207.590002,107.140002 208.029998,107.734996 208.369999,108.505 C208.710001,109.275004 208.879999,110.289994 208.879999,111.55 C208.879999,112.210003 208.82,112.939996 208.699999,113.74 L199.069999,113.74 C199.069999,114.620004 199.159998,115.399997 199.339999,116.08 C199.52,116.760003 199.799997,117.334998 200.179999,117.805 C200.560001,118.275002 201.054996,118.634999 201.664999,118.885 C202.275002,119.135001 203.019995,119.26 203.899999,119.26 C204.580003,119.26 205.259996,119.140001 205.939999,118.9 C206.620003,118.659999 207.129998,118.380002 207.469999,118.06 L208.369999,119.8 Z M203.209999,107.74 C202.029993,107.74 201.085003,108.049997 200.374999,108.67 C199.664996,109.290003 199.24,110.349992 199.099999,111.85 L206.539999,111.85 C206.539999,110.329992 206.250002,109.265003 205.669999,108.655 C205.089996,108.044997 204.270005,107.74 203.209999,107.74 Z M198.679999,101.95 C198.679999,101.489998 198.814998,101.120001 199.084999,100.84 C199.355001,100.559999 199.709997,100.42 200.149999,100.42 C200.590001,100.42 200.944998,100.559999 201.214999,100.84 C201.485001,101.120001 201.619999,101.489998 201.619999,101.95 C201.619999,102.370002 201.485001,102.719999 201.214999,103 C200.944998,103.280001 200.590001,103.42 200.149999,103.42 C199.709997,103.42 199.355001,103.280001 199.084999,103 C198.814998,102.719999 198.679999,102.370002 198.679999,101.95 Z M204.439999,101.95 C204.439999,101.489998 204.574998,101.120001 204.844999,100.84 C205.115001,100.559999 205.469997,100.42 205.909999,100.42 C206.370002,100.42 206.734998,100.559999 207.004999,100.84 C207.275001,101.120001 207.409999,101.489998 207.409999,101.95 C207.409999,102.370002 207.275001,102.719999 207.004999,103 C206.734998,103.280001 206.370002,103.42 205.909999,103.42 C205.469997,103.42 205.115001,103.280001 204.844999,103 C204.574998,102.719999 204.439999,102.370002 204.439999,101.95 Z M251.479998,124.81 L249.859998,124.81 L249.409998,121 L238.129998,121 L237.679998,124.81 L236.059998,124.81 L236.059998,118.9 L237.829998,118.9 C237.989999,118.679999 238.199997,118.285003 238.459998,117.715 C238.72,117.144997 238.974997,116.345005 239.224998,115.315 C239.475,114.284995 239.694998,113.005008 239.884998,111.475 C240.074999,109.944992 240.189998,108.120011 240.229998,106 L249.289998,106 L249.289998,118.9 L251.479998,118.9 L251.479998,124.81 Z M246.889998,118.9 L246.889998,108.1 L242.389998,108.1 C242.349998,108.940004 242.279999,109.854995 242.179998,110.845 C242.079998,111.835005 241.944999,112.824995 241.774998,113.815 C241.604998,114.805005 241.39,115.739996 241.129998,116.62 C240.869997,117.500004 240.57,118.259997 240.229998,118.9 L246.889998,118.9 Z M271.669998,108.1 L267.319998,108.1 C267.259998,108.940004 267.199998,109.844995 267.139998,110.815 C267.079998,111.785005 266.989999,112.754995 266.869998,113.725 C266.749997,114.695005 266.589999,115.624996 266.389998,116.515 C266.189997,117.405004 265.935,118.189997 265.624998,118.87 C265.314997,119.550003 264.935,120.094998 264.484998,120.505 C264.034996,120.915002 263.500001,121.12 262.879998,121.12 C262.499996,121.12 262.169999,121.1 261.889998,121.06 C261.609997,121.02 261.359999,120.95 261.139998,120.85 L261.499998,118.84 C261.739999,118.92 261.999997,118.96 262.279998,118.96 C262.68,118.96 263.039996,118.790002 263.359998,118.45 C263.68,118.109998 263.959997,117.465005 264.199998,116.515 C264.439999,115.564995 264.639997,114.250008 264.799998,112.57 C264.959999,110.889992 265.069998,108.700013 265.129998,106 L274.069998,106 L274.069998,121 L271.669998,121 L271.669998,108.1 Z M295.309998,114.79 L292.999998,115.15 L289.039998,121 L286.129998,121 L289.729998,115.87 L290.929998,114.76 C289.889993,114.599999 289.005001,114.180003 288.274998,113.5 C287.544994,112.819997 287.179998,111.900006 287.179998,110.74 C287.179998,109.839996 287.334996,109.070003 287.644998,108.43 C287.954999,107.789997 288.399995,107.260002 288.979998,106.84 C289.560001,106.419998 290.249994,106.115001 291.049998,105.925 C291.850002,105.734999 292.749993,105.64 293.749998,105.64 C294.490001,105.64 295.179995,105.689999 295.819998,105.79 C296.460001,105.89 297.089995,105.999999 297.709998,106.12 L297.709998,121 L295.309998,121 L295.309998,114.79 Z M295.309998,108.04 C295.049996,107.939999 294.759999,107.865 294.439998,107.815 C294.119996,107.765 293.839999,107.74 293.599998,107.74 C292.319991,107.74 291.345001,107.969998 290.674998,108.43 C290.004994,108.890002 289.669998,109.619995 289.669998,110.62 C289.669998,111.520004 290.024994,112.214998 290.734998,112.705 C291.445001,113.195002 292.379992,113.44 293.539998,113.44 L293.869998,113.44 C293.989998,113.44 294.159997,113.435 294.379998,113.425 C294.599999,113.415 294.909996,113.4 295.309998,113.38 L295.309998,108.04 Z M340.789997,112.09 L340.969997,109.24 L340.819997,109.24 L339.739997,111.55 L336.109997,117.43 L335.269997,117.43 L331.489997,111.55 L330.499997,109.24 L330.379997,109.24 L330.619997,112.06 L330.619997,121 L328.399997,121 L328.399997,106 L330.769997,106 L334.969997,112.72 L335.839997,114.46 L335.899997,114.46 L336.799997,112.66 L340.729997,106 L343.129997,106 L343.129997,121 L340.789997,121 L340.789997,112.09 Z M367.849997,119.8 C367.249994,120.280002 366.495001,120.659999 365.584997,120.94 C364.674992,121.220001 363.710002,121.36 362.689997,121.36 C361.549991,121.36 360.560001,121.175002 359.719997,120.805 C358.879992,120.434998 358.189999,119.905003 357.649997,119.215 C357.109994,118.524997 356.709998,117.700005 356.449997,116.74 C356.189995,115.779995 356.059997,114.700006 356.059997,113.5 C356.059997,110.939987 356.629991,108.990007 357.769997,107.65 C358.910002,106.309993 360.539986,105.64 362.659997,105.64 C363.34,105.64 364.019993,105.714999 364.699997,105.865 C365.38,106.015001 365.989994,106.299998 366.529997,106.72 C367.069999,107.140002 367.509995,107.734996 367.849997,108.505 C368.189998,109.275004 368.359997,110.289994 368.359997,111.55 C368.359997,112.210003 368.299997,112.939996 368.179997,113.74 L358.549997,113.74 C358.549997,114.620004 358.639996,115.399997 358.819997,116.08 C358.999997,116.760003 359.279995,117.334998 359.659997,117.805 C360.039998,118.275002 360.534994,118.634999 361.144997,118.885 C361.755,119.135001 362.499992,119.26 363.379997,119.26 C364.06,119.26 364.739993,119.140001 365.419997,118.9 C366.1,118.659999 366.609995,118.380002 366.949997,118.06 L367.849997,119.8 Z M362.689997,107.74 C361.509991,107.74 360.565,108.049997 359.854997,108.67 C359.144993,109.290003 358.719997,110.349992 358.579997,111.85 L366.019997,111.85 C366.019997,110.329992 365.729999,109.265003 365.149997,108.655 C364.569994,108.044997 363.750002,107.74 362.689997,107.74 Z M381.289996,106 L382.939996,106 L383.389996,107.8 L383.509996,107.8 C383.969998,107.099997 384.564993,106.565002 385.294996,106.195 C386.025,105.824998 386.859991,105.64 387.799996,105.64 C389.800006,105.64 391.289991,106.229994 392.269996,107.41 C393.250001,108.590006 393.739996,110.519987 393.739996,113.2 C393.739996,114.460006 393.574998,115.594995 393.244996,116.605 C392.914995,117.615005 392.449999,118.469997 391.849996,119.17 C391.249993,119.870003 390.525,120.409998 389.674996,120.79 C388.824992,121.170002 387.880001,121.36 386.839996,121.36 C386.099992,121.36 385.514998,121.315 385.084996,121.225 C384.654994,121.135 384.189999,120.980001 383.689996,120.76 L383.689996,127 L381.289996,127 L381.289996,106 Z M387.349996,107.74 C386.329991,107.74 385.524999,108.004997 384.934996,108.535 C384.344993,109.065003 383.929997,109.869995 383.689996,110.95 L383.689996,118.39 C384.049998,118.670001 384.459994,118.884999 384.919996,119.035 C385.379998,119.185001 385.989992,119.26 386.749996,119.26 C388.130003,119.26 389.224992,118.745005 390.034996,117.715 C390.845,116.684995 391.249996,115.17001 391.249996,113.17 C391.249996,112.349996 391.179997,111.605003 391.039996,110.935 C390.899995,110.264997 390.674998,109.695002 390.364996,109.225 C390.054995,108.754998 389.654999,108.390001 389.164996,108.13 C388.674994,107.869999 388.07,107.74 387.349996,107.74 Z M405.829996,113.5 C405.829996,110.959987 406.39499,109.015007 407.524996,107.665 C408.655001,106.314993 410.279985,105.64 412.399996,105.64 C413.520001,105.64 414.494992,105.824998 415.324996,106.195 C416.155,106.565002 416.839993,107.094997 417.379996,107.785 C417.919999,108.475003 418.319995,109.304995 418.579996,110.275 C418.839997,111.245005 418.969996,112.319994 418.969996,113.5 C418.969996,116.040013 418.405001,117.984993 417.274996,119.335 C416.14499,120.685007 414.520006,121.36 412.399996,121.36 C411.27999,121.36 410.305,121.175002 409.474996,120.805 C408.644992,120.434998 407.959999,119.905003 407.419996,119.215 C406.879993,118.524997 406.479997,117.695005 406.219996,116.725 C405.959995,115.754995 405.829996,114.680006 405.829996,113.5 Z M408.319996,113.5 C408.319996,114.260004 408.394995,114.989997 408.544996,115.69 C408.694997,116.390004 408.929994,116.999997 409.249996,117.52 C409.569997,118.040003 409.989993,118.459998 410.509996,118.78 C411.029998,119.100002 411.659992,119.26 412.399996,119.26 C415.120009,119.28 416.479996,117.360019 416.479996,113.5 C416.479996,112.719996 416.404997,111.980003 416.254996,111.28 C416.104995,110.579996 415.869997,109.970003 415.549996,109.45 C415.229994,108.929997 414.809998,108.515002 414.289996,108.205 C413.769993,107.894998 413.14,107.74 412.399996,107.74 C409.679982,107.72 408.319996,109.639981 408.319996,113.5 Z M440.929995,108.1 L434.299995,108.1 L434.299995,121 L431.899995,121 L431.899995,106 L443.329995,106 L443.329995,121 L440.929995,121 L440.929995,108.1 Z M457.099995,106 L458.749995,106 L459.199995,107.8 L459.319995,107.8 C459.779997,107.099997 460.374991,106.565002 461.104995,106.195 C461.834999,105.824998 462.66999,105.64 463.609995,105.64 C465.610005,105.64 467.09999,106.229994 468.079995,107.41 C469.06,108.590006 469.549995,110.519987 469.549995,113.2 C469.549995,114.460006 469.384997,115.594995 469.054995,116.605 C468.724993,117.615005 468.259998,118.469997 467.659995,119.17 C467.059992,119.870003 466.334999,120.409998 465.484995,120.79 C464.634991,121.170002 463.69,121.36 462.649995,121.36 C461.909991,121.36 461.324997,121.315 460.894995,121.225 C460.464993,121.135 459.999998,120.980001 459.499995,120.76 L459.499995,127 L457.099995,127 L457.099995,106 Z M463.159995,107.74 C462.13999,107.74 461.334998,108.004997 460.744995,108.535 C460.154992,109.065003 459.739996,109.869995 459.499995,110.95 L459.499995,118.39 C459.859997,118.670001 460.269993,118.884999 460.729995,119.035 C461.189997,119.185001 461.799991,119.26 462.559995,119.26 C463.940002,119.26 465.034991,118.745005 465.844995,117.715 C466.654999,116.684995 467.059995,115.17001 467.059995,113.17 C467.059995,112.349996 466.989996,111.605003 466.849995,110.935 C466.709994,110.264997 466.484997,109.695002 466.174995,109.225 C465.864993,108.754998 465.464997,108.390001 464.974995,108.13 C464.484993,107.869999 463.879999,107.74 463.159995,107.74 Z M491.839995,112.12 L491.929995,110.26 L491.839995,110.26 L490.609995,112.18 L483.859995,121 L482.479995,121 L482.479995,106 L484.879995,106 L484.879995,115.15 L484.789995,116.92 L484.909995,116.92 L486.079995,115.06 L492.829995,106 L494.239995,106 L494.239995,121 L491.839995,121 L491.839995,112.12 Z M515.479994,114.79 L513.169994,115.15 L509.209994,121 L506.299994,121 L509.899994,115.87 L511.099994,114.76 C510.059989,114.599999 509.174998,114.180003 508.444994,113.5 C507.714991,112.819997 507.349994,111.900006 507.349994,110.74 C507.349994,109.839996 507.504993,109.070003 507.814994,108.43 C508.124996,107.789997 508.569991,107.260002 509.149994,106.84 C509.729997,106.419998 510.41999,106.115001 511.219994,105.925 C512.019998,105.734999 512.919989,105.64 513.919994,105.64 C514.659998,105.64 515.349991,105.689999 515.989994,105.79 C516.629997,105.89 517.259991,105.999999 517.879994,106.12 L517.879994,121 L515.479994,121 L515.479994,114.79 Z M515.479994,108.04 C515.219993,107.939999 514.929996,107.865 514.609994,107.815 C514.289993,107.765 514.009995,107.74 513.769994,107.74 C512.489988,107.74 511.514998,107.969998 510.844994,108.43 C510.174991,108.890002 509.839994,109.619995 509.839994,110.62 C509.839994,111.520004 510.194991,112.214998 510.904994,112.705 C511.614998,113.195002 512.549988,113.44 513.709994,113.44 L514.039994,113.44 C514.159995,113.44 514.329993,113.435 514.549994,113.425 C514.769995,113.415 515.079992,113.4 515.479994,113.38 L515.479994,108.04 Z M540.949994,108.1 L536.269994,108.1 L536.269994,121 L533.869994,121 L533.869994,108.1 L529.189994,108.1 L529.189994,106 L540.949994,106 L540.949994,108.1 Z M561.829994,112.12 L561.919994,110.26 L561.829994,110.26 L560.599994,112.18 L553.849994,121 L552.469994,121 L552.469994,106 L554.869994,106 L554.869994,115.15 L554.779994,116.92 L554.899994,116.92 L556.069994,115.06 L562.819994,106 L564.229994,106 L564.229994,121 L561.829994,121 L561.829994,112.12 Z M587.359993,112.12 L587.449993,110.26 L587.359993,110.26 L586.129993,112.18 L579.379993,121 L577.999993,121 L577.999993,106 L580.399993,106 L580.399993,115.15 L580.309993,116.92 L580.429993,116.92 L581.599993,115.06 L588.349993,106 L589.759993,106 L589.759993,121 L587.359993,121 L587.359993,112.12 Z M581.449993,99.94 C581.649994,100.860005 581.994991,101.499998 582.484993,101.86 C582.974996,102.220002 583.53999,102.4 584.179993,102.4 C584.819996,102.4 585.389991,102.210002 585.889993,101.83 C586.389996,101.449998 586.729992,100.830004 586.909993,99.97 L588.709993,100.54 C588.529992,101.700006 588.014997,102.589997 587.164993,103.21 C586.314989,103.830003 585.299999,104.14 584.119993,104.14 C583.57999,104.14 583.044996,104.070001 582.514993,103.93 C581.98499,103.789999 581.509995,103.580001 581.089993,103.3 C580.669991,103.019999 580.309995,102.660002 580.009993,102.22 C579.709992,101.779998 579.509994,101.260003 579.409993,100.66 L581.449993,99.94 Z" id="всё-для-мероприятий-copy" fill="#000000"></path>
        </g>
    </g>
</svg>