<svg version="1.1" xmlns="http://www.w3.org/2000/svg" width="32" height="32" viewBox="0 0 32 32">
  <title>money-box</title>
  <path
    d="M30.951 7.485c0.090 2.447-0.536 4.173-2.126 4.94-0.338-1.308-2.638-3.872-5.564-5.4 0.974-3.729-1.293-6.531-4.451-7.033h-1.314c-2.819 0.632-4.646 2.256-4.686 5.689 0.124-0.075-0.912 0.124-1.883 0.462-2.476-1.037-5.109-1.962-7.68-2.96 0.429 1.63 0.823 3.169 1.314 4.878-0.013-0.155 0.322 0.652 0.495 1.518 0.007 0.371-0.675 1.053-0.929 1.42-0.049-0.157-0.93 1.239-1.42 2.808l-2.708 0.068v6.377h2.69c-0.042 0.586 0.999 2.583 2.501 4.13 0.37 0.403 0.984 0.787 1.057 1.187 0 0.010 0 0.021 0 0.032 0 0.565-0.068 1.113-0.196 1.639-0.216 1.605-0.554 3.11-0.678 4.768h5.312c0.53-1.184 0.942-2.475 1.5-3.626 1.155 0.27 2.481 0.424 3.843 0.424s2.688-0.155 3.961-0.447c0.372 1.218 0.874 2.408 1.319 3.649h5.374c-0.293-2.182-0.564-4.37-0.936-6.502 1.928-1.9 3.891-4.049 4.128-7.562-0.028-0.272-0.044-0.588-0.044-0.908s0.016-0.636 0.048-0.947c0.11-0.378 0.927-1.089 1.249-1.585 0.177-0.121 0.648-1.026 0.867-2.025l0.007-1.731c0.018-0.601-0.394-2.042-1.075-3.319zM21.264 6.171c-1.675-0.563-3.604-0.888-5.608-0.888-0.247 0-0.492 0.005-0.737 0.015 0.001-4.416 7.388-4.016 6.345 0.895zM23.637 24.401c0.282 1.844 0.654 3.598 0.874 5.498h-2.064c-0.564-1.342-1.162-2.628-1.692-3.998-2.515 0.97-6.874 1.026-9.377 0-0.66 1.257-1.184 2.65-1.748 3.998h-2.126c0.321-1.804 0.564-3.676 0.936-5.436-1.906-1.551-3.626-3.287-4.066-6.315h-2.188v-2.126h2.126c0.156-1.755 1.433-4.070 3.314-5.707-0.467-1.409-1.048-2.7-1.488-4.138 1.658 0.722 3.31 1.438 4.94 2.188 7.488-2.724 16.262 1.128 16.685 8.312 0.226 3.778-2.013 6-4.128 7.725zM9.76 11.821c-2.047 0.445-1.257 3.383 0.688 3.124s1.635-3.631-0.688-3.124z"></path>
</svg>
