<svg version="1.1" xmlns="http://www.w3.org/2000/svg" width="28" height="28" viewBox="0 0 28 28">
  <title>new</title>
  <path
    d="M25.222 0.011c1.575 0 2.756 1.554 2.756 3.518v20.943c0 1.963-1.181 3.518-2.756 3.518h-22.444c-1.575 0-2.756-1.554-2.756-3.518v-20.943c0-1.963 1.181-3.518 2.756-3.518h22.444zM25.878 16.833v-7.022h-1.706v6.3h-1.575v-4.922h-1.772v4.922h-1.575v-6.3h-1.772v7.022c0 0.788 0.656 1.378 1.444 1.378h5.578c0.787 0 1.378-0.591 1.378-1.378zM16.1 11.583v-1.772h-5.578v8.4h5.578v-1.772h-3.478v-1.509h3.478v-1.772h-3.478v-1.575h3.478zM9.078 18.211v-8.4h-1.706v4.922l-3.544-4.922h-1.706v8.4h1.706v-4.922l3.609 4.922h1.641z"></path>
</svg>
