<svg version="1.1" xmlns="http://www.w3.org/2000/svg" width="32" height="32" viewBox="0 0 32 32">
  <title>pdf</title>
  <path
    d="M17.151 10.409h-1.766v11.787h1.707c0.064 0.012 0.139 0.019 0.215 0.019 0.685 0 1.24-0.555 1.24-1.24 0-0.045-0.003-0.089-0.007-0.133l0.001-9.103c0.005-0.044 0.009-0.094 0.009-0.145 0-0.663-0.538-1.201-1.201-1.201-0.070 0-0.138 0.006-0.204 0.017zM6.038 10.409h2.897v6.042h-2.897v-6.042zM0.175 5.25v21.5h31.65v-21.5h-31.65zM11.337 17.017c0.010 0.060 0.015 0.13 0.015 0.2 0 0.712-0.577 1.29-1.29 1.29-0.062 0-0.122-0.004-0.181-0.013l-3.833 0.001v5.745h-2.371v-15.874h6.211c0.052-0.007 0.111-0.011 0.171-0.011 0.712 0 1.29 0.577 1.29 1.29 0 0.064-0.005 0.126-0.013 0.187l0.001 7.166zM20.921 21.253c0.003 0.046 0.004 0.101 0.004 0.155 0 0.795-0.32 1.514-0.838 2.038-0.548 0.495-1.277 0.797-2.078 0.797-0.058 0-0.115-0.001-0.172-0.005h-4.824v-15.874h4.831c0.048-0.003 0.104-0.004 0.161-0.004 0.804 0 1.535 0.307 2.084 0.81 0.515 0.533 0.834 1.262 0.834 2.067 0 0.047-0.001 0.094-0.003 0.14v9.856zM29.235 10.479h-4.108v4.693h3.503v2.054h-3.512v7.014h-2.371v-15.874h6.479v2.094z"></path>
</svg>
