<svg version="1.1" xmlns="http://www.w3.org/2000/svg" width="32" height="32" viewBox="0 0 32 32">
  <title>phone</title>
  <path
    d="M7 32.004h-0.311q-3.303-3.385-6.689-6.689v-0.065c2.57-2.429 5.11-5.222 7.627-7.498 1.502 0.933 2.828 2.048 4.312 2.998 2.584-0.599 6.075-3.427 8.085-7.169-0.103 0.265 0.408-0.59 0.714-1.538 0.013-0.534-1.195-1.808-1.489-2.236-0.587-0.804-0.992-1.432-1.502-2.124-0.654 0.707 0.421-0.783 1.796-1.922 1.877-1.874 3.825-3.863 5.703-5.764h0.065q3.303 3.385 6.689 6.689v0.311c-1.355 6.366-5.339 11.776-9.247 15.689-4.019 4.013-9.376 7.909-15.754 9.317zM7.375 29.505c2.967-0.152 9.217-3.476 13.928-8.307 0.814 0.091 5.089-5.199 7.555-11.404 0.147-0.213 0.524-1.223 0.7-2.3-0.046-0.372-0.733-0.847-1.055-1.176l-2.189-2.188c-0.27-0.27-0.921-1.132-1.127-1.127s-0.939 0.997-1.173 1.25c-1.314 1.314-2.535 2.394-3.626 3.691 0.487 0.634 0.833 1.232 1.373 2.001 0.364 0.516 1.349 1.432 1.373 2.059 0 0.463-0.622 1.432-0.874 1.936-1.238 3.441-5.265 7.389-10.309 9.206-1.473-0.886-2.752-1.878-4.066-2.834-1.537 1.672-3.268 3.151-4.752 4.876 1.414 1.432 2.758 2.934 4.242 4.312z"></path>
</svg>
