<svg version="1.1" xmlns="http://www.w3.org/2000/svg" width="32" height="32" viewBox="0 0 32 32">
  <title>plus</title>
  <path
    d="M28.812 13.127h-10.020v-10.013c0.002-0.042 0.003-0.091 0.003-0.141 0-1.583-1.283-2.866-2.866-2.866s-2.866 1.283-2.866 2.866c0 0.050 0.001 0.099 0.004 0.148l-0-0.007v10.020h-10.020c-1.528 0.077-2.739 1.336-2.739 2.876s1.21 2.799 2.732 2.876l0.007 0h10.020v10c-0.002 0.042-0.003 0.091-0.003 0.141 0 1.583 1.283 2.866 2.866 2.866s2.866-1.283 2.866-2.866c0-0.050-0.001-0.099-0.004-0.148l0 0.007v-10h10.020c1.59 0 2.88-1.289 2.88-2.88s-1.289-2.88-2.88-2.88v0z"></path>
</svg>
