<svg version="1.1" xmlns="http://www.w3.org/2000/svg" width="512" height="512" viewBox="0 0 512 512">
  <title></title>
  <g id="icomoon-ignore">
  </g>
  <path
    d="M309.072 112.080h16.496c31.984-44.032-21.952-64.048 0-112.080h-16.496c-19.184 47.232 25.936 65.648 0 112.080zM244.704 128.096h16.768c-22.304-48.032 32.496-84.064 0-128.096h-16.768c26.352 46.432-19.504 80.864 0 128.096zM487.472 406.672c-3.2-12.336-7.024-18.64-24.496-20.016-6.64-0.432-12.992-0.816-19.584-1.248 0.176-0.32 0.288-0.784 0.432-1.12h-51.040c-4.448 0-8.064-3.584-8.064-8 0-4.432 3.616-8.016 8.064-8.016h54.496c1.12-13.6-0.496-30.288-5.328-38.992-7.152-13.776-13.808-24.976-20.272-33.824-11.152-13.92-31.824-23.248-47.104-28.272-1.792-0.464-3.968-0.88-6.32-1.264-0.816 3.568-3.872 6.288-7.696 6.288h-48.336c-4.448 0-8.064-3.584-8.064-8.016 0-1.872 6.544-3.584 14.336-4.96-9.696-22.928 1.776-51.072 1.776-51.072 0-17.68-32.24-53.36-32.24-32.016s-76.688 0-76.688 0c-10.416-11.664-19.984-32.016-19.984-32.016s-28.096 15.872-31.552 36.096c-9.968 5.44-16.8 15.84-16.8 27.952v16c0 7.472 1.328 20 4.672 32.016h35.616c4.448 0 8.064 3.584 8.064 8 0 4.432-3.616 8.016-8.064 8.016h-48.304c-3.616 0-6.544-2.368-7.584-5.632-10.656-2.32-21.44-5.344-32.384-9.488-17.952 0.368-32.528 14.448-32.528 31.968v31.664c0.016 5.904 1.696 11.488 4.656 16.336 1.024-0.48 2.176-0.8 3.392-0.8h64.448c4.448 0 8.048 3.584 8.048 8s-3.6 8.016-8.048 8.016h-49.328c1.408 0.544 2.832 1.088 4.336 1.488-8.992-0.096-18-0.4-26.976-0.4-15.712 0.080-37.184 13.584-44.464 25.824-10.864 19.008-16.528 34.272-18.496 64.272-1.056 20.032 12.56 68.544 27.664 68.544s435.44-0.352 435.44-0.352 47.92-29.776 48.72-48.112c1.888-27.488-20.48-38.24-24.416-56.864zM185.728 96.064h16.768c-26.352-46.432 19.504-48.832 0-96.064h-16.768c22.288 48.032-32.48 52.032 0 96.064z"></path>
</svg>
