<svg version="1.1" xmlns="http://www.w3.org/2000/svg" width="32" height="32" viewBox="0 0 32 32">
  <title>power</title>
  <path
    d="M20.058 0h1.252c2.126 0.271 4.026 1.077 4.94 2.819-0.509-1.379 0.294 0.435 0.785 2.372 1.888 5.764 4.019 11.663 4.967 18.001v0.31c-1.838 0.835-3.62 1.804-5.498 2.752 3.634-1.569-0.85 0.726-5.699 2.178-2.246 0.703-4.688 1.453-7.174 1.453-0.088 0.001-0.192 0.002-0.297 0.002-2.462 0-4.833-0.388-7.055-1.107q-3.086 1.562-6.204 3.22c-0.049-0.454-0.077-0.981-0.077-1.515 0-0.237 0.006-0.472 0.016-0.706 1.47-0.615 3.134-1.529 4.747-2.341-0.308 0.115 0.585-0.421 1.576-0.737 0.024-0.072 0.81 0.123 1.528 0.443 1.429 0.378 3.136 0.608 4.897 0.609 1.776-0.004 4.175-0.445 6.408-1.237-3.145 1.452 4.109-0.911 10.561-4.533-0.841-4.932-2.279-9.668-3.841-14.106-0.53-1.511-0.964-3.124-1.624-4.252-0.744-1.263-1.917-1.506-3.998-1.5s-5.154 0.519-6 1.562c-1.026 1.263 0.333 2.887 1.878 2.69 1.207-0.158 1.737-1.917 3.248-2.126 1.077-0.152 2.718 0.288 3 1.060 0.242 0.671 0 2.509 0 3.564 0 1.212 0.102 2.656 0.062 3.688-0.045 1.325-0.615 2.701-0.998 3.874-0.417 1.28-0.818 2.492-1.19 3.688-1.765-2.323-3.434-4.94-7.127-5.188-4.46-0.299-7.189 2.385-8.813 5.312-0.913-1.94-2.030-3.676-4.314-4.252v-2.12c1.737 0.699 3.316 1.556 4.19 3.124 2.188-1.979 5.013-4.567 9.377-4.19 2.137 0.186 3.992 1.528 5.126 2.69 0.078 0.17 0.268 0.324 0.497 0.371 1.364-2.142 1.054-5.948 1.065-9.438-1.455-0.186-1.872 0.772-2.752 1.314-0.653 0.489-1.507 0.8-2.433 0.812-0.416-0.005-1.261-0.349-1.954-0.882-0.44-0.285-1.28-0.753-1.427-1.368-0.066-0.323-0.104-0.694-0.104-1.074 0-0.762 0.152-1.488 0.428-2.149 1.108-2.472 5.061-2.461 8.033-3.087z"></path>
</svg>
