<svg version="1.1" xmlns="http://www.w3.org/2000/svg" width="32" height="32" viewBox="0 0 32 32">
  <title>print</title>
  <path
    d="M6.751-0.001h18.563c1.294 0.531 0.427 4.233 0.686 6 2.414 0.123 5.722-0.647 6 1.625v16.751c-0.278 2.265-3.579 1.502-6 1.625-0.298 1.786 0.699 5.495-0.751 6h-18.498c-1.43-0.401-0.473-4.233-0.751-6-2.414-0.123-5.728 0.647-6-1.625v-16.751c0.272-2.265 3.579-1.502 6-1.625 0.278-1.903-0.68-5.521 0.751-6zM8 2.188v3.812h16v-4h-15.935c-0.078 0.006-0.071 0.097-0.065 0.188zM29.748 23.683c0.44-0.492 0.252-2.589 0.252-3.689v-7.935c0-1.062 0.207-3.236-0.252-3.748s-1.974-0.311-3.061-0.311h-20.362c-0.515-0.044-1.114-0.069-1.718-0.069s-1.204 0.025-1.796 0.075c-1.165 0.234-0.796 2.383-0.796 3.878v8.123c0 1.184-0.188 3.301 0.311 3.748 0.744 0.647 2.544 0 3.689 0.252v-3.812c0-1.081-0.298-3.049 0.123-3.748s3.43-0.44 5.061-0.44h9.748c1.294 0 4.052-0.272 4.686 0.188s0.375 2.68 0.375 3.935v3.884c1.249-0.22 3.1 0.388 3.741-0.33zM8 18.18v11.812h16v-12h-15.935c-0.078 0.013-0.071 0.104-0.065 0.194z"></path>
</svg>
