<svg version="1.1" xmlns="http://www.w3.org/2000/svg" width="32" height="32" viewBox="0 0 32 32">
  <title>question</title>
  <path
    d="M28.647 1.995h-25.292c-1.853 0-3.353 1.501-3.353 3.353v16.575c0 1.853 1.501 3.352 3.353 3.352h19.216l3.691 3.735c0.643 0.649 1.508 0.996 2.387 0.996 0.428 0 0.861-0.081 1.275-0.251 1.257-0.517 2.079-1.743 2.079-3.103v-21.304c-0.001-1.853-1.503-3.353-3.355-3.353zM17.511 20.409c0 1.151-0.887 2.040-2.085 2.040-1.2 0-2.087-0.888-2.087-2.040v-0.048c0-1.149 0.888-2.039 2.087-2.039s2.085 0.888 2.085 2.039v0.048zM21.708 10.315c0 3.044-2.111 4.293-4.725 4.819l-0.072 0.432c-0.097 0.623-0.599 1.176-1.295 1.176h-0.191c-0.696 0-1.2-0.531-1.296-1.176l-0.239-1.631c-0.12-0.792 0.336-1.343 1.104-1.44 2.085-0.264 3.045-0.912 3.045-2.088v-0.045c0-1.079-0.816-1.704-2.207-1.704-1.031 0-1.919 0.312-2.781 0.96-0.288 0.216-0.672 0.385-1.079 0.385-0.912 0-1.68-0.768-1.68-1.68 0-0.457 0.192-0.936 0.624-1.296 1.271-1.056 2.879-1.729 4.988-1.729 3.453 0 5.803 1.777 5.803 4.967v0.048h0.001z"></path>
</svg>
