<svg xmlns="http://www.w3.org/2000/svg" viewBox="0 0 59.75 11"><title>rating-stars</title><g id="Layer_2" data-name="Layer 2"><g id="Layer_1-2" data-name="Layer 1"><path d="M5.76.18l1.4,3.47L10.74,4a.3.3,0,0,1,.16.52L8.19,7,9,10.64a.29.29,0,0,1-.42.32L5.5,9,2.42,11A.29.29,0,0,1,2,10.64L2.82,7,.1,4.49A.29.29,0,0,1,.26,4l3.58-.33L5.24.18A.28.28,0,0,1,5.76.18Z"/><path d="M18,.18l1.4,3.47L22.93,4a.3.3,0,0,1,.16.52L20.37,7l.82,3.68a.29.29,0,0,1-.42.32L17.69,9l-3.08,2a.29.29,0,0,1-.42-.32L15,7,12.28,4.49A.3.3,0,0,1,12.45,4L16,3.65,17.43.18A.28.28,0,0,1,18,.18Z"/><path d="M30.13.18l1.4,3.47L35.11,4a.3.3,0,0,1,.17.52L32.56,7l.81,3.68A.29.29,0,0,1,33,11L29.87,9l-3.08,2a.29.29,0,0,1-.42-.32L27.19,7,24.47,4.49A.29.29,0,0,1,24.63,4l3.58-.33L29.61.18A.28.28,0,0,1,30.13.18Z"/><path d="M42.32.18l1.4,3.47L47.3,4a.3.3,0,0,1,.16.52L44.74,7l.82,3.68a.29.29,0,0,1-.42.32L42.06,9,39,11a.29.29,0,0,1-.42-.32L39.37,7,36.66,4.49A.29.29,0,0,1,36.82,4l3.58-.33L41.8.18A.28.28,0,0,1,42.32.18Z"/><path d="M54.51.18l1.4,3.47L59.49,4a.3.3,0,0,1,.16.52L56.93,7l.82,3.68a.29.29,0,0,1-.43.32L54.25,9l-3.08,2a.29.29,0,0,1-.42-.32L51.56,7,48.84,4.49A.3.3,0,0,1,49,4l3.59-.33L54,.18A.28.28,0,0,1,54.51.18Z"/></g></g></svg>