<svg version="1.1" xmlns="http://www.w3.org/2000/svg" width="32" height="32" viewBox="0 0 32 32">
  <title>right</title>
  <path
    d="M13.768 8.8h0.042c2.627 2.442 5.213 4.918 7.874 7.326v0.093c-2.661 2.4-5.246 4.884-7.874 7.326h-0.042c-0.278-0.32-0.615-0.581-0.918-0.842v-0.042c2.333-2.105 4.564-4.312 6.905-6.4-2.248-2.223-4.598-4.337-6.905-6.493v-0.084c0.303-0.312 0.64-0.573 0.918-0.884zM16 32c-8.837 0-16-7.163-16-16s7.163-16 16-16c8.837 0 16 7.163 16 16s-7.163 16-16 16zM16 0.421c-8.604 0-15.579 6.975-15.579 15.579s6.975 15.579 15.579 15.579c8.604 0 15.579-6.975 15.579-15.579-0.010-8.6-6.979-15.569-15.578-15.579z"></path>
</svg>
