<svg version="1.1" xmlns="http://www.w3.org/2000/svg" width="32" height="32" viewBox="0 0 32 32">
  <title>shopping-bag</title>
  <path
    d="M31.375 25.143l0.625 5.589q0.054 0.5-0.286 0.893-0.339 0.375-0.857 0.375h-29.714q-0.518 0-0.857-0.375-0.339-0.393-0.286-0.893l0.625-5.589h30.75zM29.714 10.16l1.536 13.839h-30.5l1.536-13.839q0.054-0.429 0.375-0.723t0.768-0.295h4.571v2.286q0 0.946 0.67 1.616t1.616 0.67 1.616-0.67 0.67-1.616v-2.286h6.857v2.286q0 0.946 0.67 1.616t1.616 0.67 1.616-0.67 0.67-1.616v-2.286h4.571q0.446 0 0.768 0.295t0.375 0.723zM22.857 6.857v4.571q0 0.464-0.339 0.804t-0.804 0.339-0.804-0.339-0.339-0.804v-4.571q0-1.893-1.339-3.232t-3.232-1.339-3.232 1.339-1.339 3.232v4.571q0 0.464-0.339 0.804t-0.804 0.339-0.804-0.339-0.339-0.804v-4.571q0-2.839 2.009-4.848t4.848-2.009 4.848 2.009 2.009 4.848z"></path>
</svg>
