<svg version="1.1" xmlns="http://www.w3.org/2000/svg" width="32" height="32" viewBox="0 0 32 32">
  <title>skype</title>
  <path
    d="M31.816 6.824c0.005-0.095 0.008-0.207 0.008-0.318 0-1.675-0.656-3.197-1.725-4.323-1.103-1.177-2.672-1.912-4.412-1.912-0.006 0-0.013 0-0.019 0-0.164 0-0.336 0-0.501 0-1.832 0.142-2.866 0.952-4.066 1.891l-0.449 0.348-0.124 0.095-0.148-0.053c-1.328-0.454-2.857-0.716-4.447-0.716-0.024 0-0.047 0-0.072 0-0.303 0-0.617 0-0.93 0-4.098 0.149-7.965 2.373-10.367 5.721-2.055 2.884-3.816 7.937-2.103 12.818l0.047 0.136-0.077 0.124c0.386-0.512-0.088 0.247-0.709 0.856 0.381-0.391-0.17 0.086-0.583 0.667-0.608 0.955-0.964 2.101-0.964 3.331 0 3.394 2.709 6.155 6.082 6.239 0.389 0 0.767-0.034 1.134-0.1 0.976-0.047 2.675-0.845 3.993-2.050l0.124-0.095 0.154 0.053c1.269 0.461 2.735 0.726 4.261 0.726 0.008 0 0.017 0 0.025 0 3.745-0.026 7.25-1.515 9.878-3.939 3.205-2.975 5.734-8.855 3.683-14.706l-0.053-0.159 0.13-0.154c1.141-1.271 2.109-2.418 2.228-4.48zM29.185 8.236c0.038 0.144-0.492 0.916-1.202 1.471-0.384 0.2-0.788 0.705-0.946 1.309 0 0.564 0.154 1.241 0.423 1.857-0.204-0.613 0.128 0.214 0.325 1.092 0.146 0.728 0.222 1.499 0.222 2.288 0 2.098-0.545 4.069-1.501 5.778-0.24 1.065-2.302 3.396-4.932 4.807-1.679 0.832-3.578 1.299-5.587 1.299-1.136 0-2.237-0.15-3.285-0.43-0.1-0.033-0.295-0.104-0.502-0.181-0.23-0.129-0.704-0.269-1.205-0.306l-0.142-0.001c-0.457 0.065-1.056 0.463-1.442 1.020-0.701 0.908-1.78 1.481-2.992 1.481-0.036 0-0.073-0.001-0.109-0.002-1.347-0.006-2.545-0.703-3.247-1.758-0.44-0.648-0.697-1.428-0.697-2.27 0-0.571 0.118-1.113 0.332-1.605-0.16 0.101 0.38-0.882 1.132-1.66-0.38 0.398-0.037-0.019 0.38-0.342 0.315-0.158 0.601-0.52 0.692-0.954-0.001-0.432-0.11-0.887-0.302-1.293-0.045-0.122-0.098-0.264-0.134-0.389-0.349-1.053-0.55-2.265-0.55-3.524 0-0.912 0.105-1.801 0.306-2.653 1.303-5.314 6.083-9.275 11.797-9.33 0.572 0 1.14 0.036 1.698 0.107-0.252-0.082 0.863 0.096 1.922 0.407 0.074 0.025 0.239 0.090 0.417 0.155 0.174 0.102 0.577 0.227 1.005 0.265l0.106 0.001c0.442-0.065 0.977-0.431 1.307-0.943-0.124 0.026 0.453-0.621 1.168-1.062 0.309-0.187 0.891-0.373 1.511-0.423 0.081-0.005 0.158-0.008 0.236-0.008s0.156 0.002 0.232 0.007c0.009-0.001 0.032-0.001 0.056-0.001 1.773 0 3.272 1.17 3.768 2.78 0.080 0.346 0.121 0.71 0.121 1.084 0 0.697-0.144 1.359-0.405 1.961zM16.953 14.702c-2.009-0.473-4.87-0.768-4.858-2.878 0-3.191 6.241-3.233 7.547-0.834 0.166 0.248 0.38 0.861 0.448 1.518 0.473-0.047 1.249-0.102 2.036-0.111-0.101-2.294-1.123-3.546-2.483-4.285-1.091-0.542-2.374-0.86-3.734-0.86-0.24 0-0.477 0.010-0.713 0.030-2.333 0.152-3.864 1.133-4.573 2.172-1.040 1.519-0.887 4.001 0.254 5.242 1.938 2.109 6.388 1.92 8.315 3.067 0.761 0.476 1.259 1.311 1.259 2.261 0 0.266-0.039 0.524-0.112 0.766-1.030 2.73-7.087 2.398-8.434-0.084-0.259-0.431-0.473-1.114-0.514-1.845-0.453-0.017-1.376 0.055-2.279 0.19 0.41 3.941 3.336 5.826 7.456 5.744 3.286-0.065 6.129-1.85 6.205-4.988 0.083-3.498-2.99-4.433-5.821-5.106z"></path>
</svg>
