<svg width="18" height="18" viewBox="0 0 18 18" xmlns="http://www.w3.org/2000/svg">
<path d="M12.15 8.1C12.87 8.1 13.5 7.47 13.5 6.75C13.5 6.03 12.87 5.4 12.15 5.4C11.43 5.4 10.8 6.03 10.8 6.75C10.8 7.47 11.43 8.1 12.15 8.1ZM5.85 8.1C6.57 8.1 7.2 7.47 7.2 6.75C7.2 6.03 6.57 5.4 5.85 5.4C5.13 5.4 4.5 6.03 4.5 6.75C4.5 7.47 5.13 8.1 5.85 8.1ZM9 14.4C11.34 14.4 13.32 12.87 14.13 10.8H3.87C4.68 12.87 6.66 14.4 9 14.4ZM9 0C4.05 0 0 4.05 0 9C0 13.95 4.05 18 9 18C13.95 18 18 13.95 18 9C18 4.05 13.95 0 9 0ZM9 16.2C5.04 16.2 1.8 12.96 1.8 9C1.8 5.04 5.04 1.8 9 1.8C12.96 1.8 16.2 5.04 16.2 9C16.2 12.96 12.96 16.2 9 16.2Z"/>
</svg>
