<svg version="1.1" xmlns="http://www.w3.org/2000/svg" width="32" height="32" viewBox="0 0 32 32">
  <title>sound</title>
  <path
    d="M18.177 4.769c-2.187 2.239-15.955 16.001-18.188 18.188 0.041 0.031 0.984 1.26 1.156 1.271-0.5 0.425 0.263-0.113 0.859-0.801 1.834-1.834 15.58-15.628 17.387-17.445 0.172 0.090-0.432-0.665-1.198-1.203zM28.064 10.434c-0.026 0.604-0.031 1.344 0 2.021h3.947v-2.021h-3.926zM28.064 17.359h3.947v-1.963h-3.869c-0.064 0.401-0.1 0.862-0.1 1.333 0 0.221 0.008 0.442 0.024 0.659zM28.007 22.263c1.213 0.136 2.671 0 3.984 0.057v-2.021h-3.869c-0.208 0.609 0.047 1.307-0.114 1.963zM4.415 14.011l3.582-0.713 2.551-2.557q-4.040 0.839-8.097 1.651v6.436l1.963-1.958v-2.869zM24.081 5.523v2.369l-5.832 1.234-2.64 2.65q4.165-0.839 8.331-1.692h0.114v12.585c-5.379-1.041-10.742-2.15-16.141-3.218l-1.677 1.682 0.193 0.037c-0.604 3.311 1.677 6.014 4.733 6.061 2.509 0.037 4.379-1.562 4.904-4.040 2.687 0.521 5.254 1.135 7.966 1.614v2.354c0.42 0.045 0.908 0.071 1.401 0.071 0.218 0 0.435-0.005 0.649-0.015l-0.030-21.629c-0.427-0.047-0.923-0.073-1.424-0.073-0.193 0-0.386 0.004-0.577 0.012zM8.383 21.628c-0.001-0.006-0.001-0.013-0.001-0.021 0-0.072 0.048-0.133 0.114-0.15 1.923 0.349 3.771 0.77 5.729 1.099-0.078 3.728-6.551 3.442-5.842-0.927z"></path>
</svg>
