<svg version="1.1" xmlns="http://www.w3.org/2000/svg" width="32" height="32" viewBox="0 0 32 32">
  <title>spray</title>
  <path
    d="M10.96 3.6v1.027c2.846 0.284 4.55 1.71 5.206 4.179h5.632c-0.109-0.94-0.656-2.027-0.486-3.146 0.24-1.59 1.879-2.409 3.086-3.026-0.546-0.803-1.377-1.366-1.999-2.12h-11.439v1.027h-1.999c-0.047 0.427-0.075 0.923-0.075 1.425 0 0.223 0.006 0.445 0.016 0.665l2.059-0.031zM21.132 2.573c0.076 0.213-0.42 0.41-0.666 0.667-0.756 0.86-1.218 1.996-1.218 3.238 0 0.076 0.002 0.15 0.005 0.225l-1.639-0.011c-0.523-1.575-2.221-3.28-4.366-4.043 2.476-0.158 5.262-0.038 7.889-0.082zM12.9 6.692c-0.416 0.508-0.934 0.934-1.573 1.573s-1.639 1.196-1.393 2.54c-7.476 4.468-1.136 1.267 4.28-3.044-0.543-0.272-0.871-0.726-1.314-1.069zM25.436 21.157c-0.047-3.345-1.192-7.181-3.145-10.485l-6.119 0.107c0.001 0.045 0.001 0.097 0.001 0.149 0 2.782-0.884 5.358-2.387 7.461-1.159 1.671-2.781 3.238-2.819 5.773-0.044 3.010 1.753 5.25 3.277 7.325h8.193c1.902-2.512 3.046-5.689 3.046-9.134 0-0.42-0.017-0.838-0.050-1.25zM16.117 18.495c0.863-1.42 1.442-3.49 1.879-5.391 0-0.087 0-0.169 0.060-0.18h3.277c0.093-0.271 1.2 2.778 1.732 6.021l-7.2 0.157c0-0.010-0.001-0.020-0.001-0.032 0-0.227 0.097-0.431 0.252-0.574zM21.323 29.454h-2.966c-0.901 0-2.097 0.257-2.906 0-0.546-0.169-1.093-1.431-1.453-2.12-0.546-1.033-1.021-1.939-0.907-3.392 0.041-0.919 0.522-1.983 1.275-2.789 2.996 0.074 6.006-0.052 9.022 0.063 0.007 0.169 0.011 0.365 0.011 0.564 0 2.829-0.773 5.476-2.12 7.744z"></path>
</svg>
