<svg version="1.1" xmlns="http://www.w3.org/2000/svg" width="32" height="32" viewBox="0 0 32 32">
  <title>squares</title>
  <path
    d="M8.207 19.111c0 0.548-0.444 0.992-0.992 0.992h-6.223c-0.548 0-0.992-0.444-0.992-0.992v-6.223c0-0.548 0.444-0.992 0.992-0.992h6.223c0.548 0 0.992 0.444 0.992 0.992v6.223z"></path>
  <path
    d="M32 19.111c0 0.548-0.444 0.992-0.992 0.992h-6.223c-0.548 0-0.992-0.444-0.992-0.992v-6.223c0-0.548 0.444-0.992 0.992-0.992h6.223c0.548 0 0.992 0.444 0.992 0.992v6.223z"></path>
  <path
    d="M19.112 0.163h-6.223c-0.548 0-0.992 0.444-0.992 0.993v6.221c0 0.548 0.444 0.992 0.992 0.992h6.223c0.548 0 0.992-0.444 0.992-0.992v-6.221c0-0.548-0.444-0.993-0.992-0.993z"></path>
  <path
    d="M7.215 0.163h-6.221c-0.548 0-0.993 0.444-0.993 0.993v6.221c0 0.548 0.444 0.992 0.993 0.992h6.221c0.548 0 0.992-0.444 0.992-0.992v-6.221c0-0.548-0.444-0.993-0.993-0.993z"></path>
  <path
    d="M31.007 0.163h-6.221c-0.548 0-0.992 0.444-0.992 0.993v6.221c0 0.548 0.444 0.992 0.992 0.992h6.221c0.548 0 0.993-0.444 0.993-0.992v-6.221c0-0.548-0.444-0.993-0.993-0.993z"></path>
  <path
    d="M19.112 11.896h-6.223c-0.548 0-0.992 0.444-0.992 0.993v6.221c0 0.548 0.444 0.992 0.992 0.992h6.223c0.548 0 0.992-0.444 0.992-0.992v-6.221c0-0.548-0.444-0.993-0.992-0.993z"></path>
  <path
    d="M19.112 23.629h-6.223c-0.548 0-0.992 0.444-0.992 0.993v6.221c0 0.548 0.444 0.992 0.992 0.992h6.223c0.548 0 0.992-0.444 0.992-0.992v-6.221c0-0.548-0.444-0.993-0.992-0.993z"></path>
  <path
    d="M8.207 30.844c0 0.548-0.444 0.992-0.992 0.992h-6.223c-0.548 0-0.992-0.444-0.992-0.992v-6.223c0-0.548 0.444-0.992 0.992-0.992h6.223c0.548 0 0.992 0.444 0.992 0.992v6.223z"></path>
  <path
    d="M32 30.844c0 0.548-0.444 0.992-0.992 0.992h-6.223c-0.548 0-0.992-0.444-0.992-0.992v-6.223c0-0.548 0.444-0.992 0.992-0.992h6.223c0.548 0 0.992 0.444 0.992 0.992v6.223z"></path>
</svg>
