<svg xmlns="http://www.w3.org/2000/svg" viewBox="0 0 1008.71 1024">
  <title>star</title>
  <g id="Layer_2">
    <g id="Layer_1-2">
      <path
        d="M521.59,18.38,650.26,340.06l330.87,27.58c18.39,0,27.58,18.38,27.58,27.57s0,9.19-9.19,18.38L742.17,643.36,815.7,983.43c0,18.38-9.19,27.57-18.39,36.76H778.93L494,836.37,209.09,1020.19c-9.19,9.19-27.57,0-36.76-9.19V992.62l82.72-349.26L6.89,413.59c-9.19-9.19-9.19-27.57,0-36.76,0-9.19,9.19-9.19,9.19-9.19L347,340.06,475.63,18.38C484.82,0,494,0,512.39,0c0,9.19,9.2,9.19,9.2,18.38Z"/>
    </g>
  </g>
</svg>