<svg version="1.1" xmlns="http://www.w3.org/2000/svg" width="32" height="32" viewBox="0 0 32 32">
  <title>system</title>
  <path
    d="M26.092 20.86c0.066-1.163 2.252-2.657 2.604-3.62 0.167-0.519 0.263-1.117 0.263-1.737s-0.096-1.218-0.275-1.779c-0.48-1.32-2.646-2.37-2.593-3.871 0.066-1.189 1.329-1.993 2.172-2.963l2.279 0.711-1.847-7.593-5.441 5.314 2.026 0.631c-1.063 1.209-2.179 2.166-2.073 4.318 0.126 2.657 2.876 3.361 2.876 5.215 0 1.149-1.933 2.292-2.465 3.474-0.238 0.549-0.398 1.267-0.412 2.021 0 2.662 2.89 3.778 2.876 5.512 0 2.039-2.139 3.109-2.797 4.458 0.033 0 1.754 0.751 2.657 1.043 1.568-2.478 4.139-4.464 2.465-7.819-0.618-1.256-2.398-1.867-2.318-3.315zM17.602 6.888l2.279 0.711-1.847-7.593-5.441 5.314 2.026 0.631c-1.063 1.209-2.179 2.166-2.073 4.318 0.126 2.657 2.876 3.361 2.876 5.215 0 1.149-1.933 2.292-2.465 3.474-0.237 0.548-0.398 1.266-0.412 2.021 0 2.663 2.89 3.779 2.876 5.512 0 2.039-2.139 3.109-2.797 4.458 0.033 0 1.754 0.751 2.657 1.043 1.568-2.478 4.139-4.464 2.465-7.819-0.664-1.269-2.411-1.88-2.332-3.322 0.066-1.163 2.252-2.657 2.604-3.62 0.167-0.52 0.263-1.117 0.263-1.737s-0.096-1.218-0.274-1.779c-0.48-1.32-2.646-2.37-2.593-3.871 0.080-1.182 1.335-1.973 2.186-2.956zM6.521 6.888l2.279 0.711-1.847-7.593-5.441 5.314 2.026 0.631c-1.063 1.209-2.179 2.166-2.073 4.318 0.126 2.657 2.876 3.361 2.876 5.215 0 1.149-1.933 2.292-2.465 3.474-0.238 0.549-0.398 1.267-0.412 2.021 0 2.662 2.89 3.778 2.876 5.512 0 2.039-2.139 3.109-2.797 4.458 0.033 0 1.754 0.751 2.657 1.043 1.568-2.478 4.139-4.464 2.465-7.819-0.664-1.269-2.411-1.88-2.332-3.322 0.066-1.163 2.252-2.657 2.604-3.62 0.167-0.519 0.263-1.117 0.263-1.737s-0.096-1.218-0.275-1.779c-0.48-1.32-2.646-2.37-2.593-3.871 0.080-1.182 1.335-1.973 2.186-2.956z"></path>
</svg>
