<svg version="1.1" xmlns="http://www.w3.org/2000/svg" width="448" height="448" viewBox="0 0 448 448">
  <path
    d="M168.001 364.001v-205.333c0-5.25-4.083-9.334-9.334-9.334h-18.666c-5.25 0-9.334 4.083-9.334 9.334v205.333c0 5.25 4.083 9.334 9.334 9.334h18.666c5.25 0 9.334-4.083 9.334-9.334zM242.667 364.001v-205.333c0-5.25-4.083-9.334-9.334-9.334h-18.666c-5.25 0-9.334 4.083-9.334 9.334v205.333c0 5.25 4.083 9.334 9.334 9.334h18.666c5.25 0 9.334-4.083 9.334-9.334zM317.334 364.001v-205.333c0-5.25-4.083-9.334-9.334-9.334h-18.666c-5.25 0-9.334 4.083-9.334 9.334v205.333c0 5.25 4.083 9.334 9.334 9.334h18.666c5.25 0 9.334-4.083 9.334-9.334zM158.668 74.668h130.666l-14-34.125c-0.875-1.167-3.5-2.916-4.958-3.209h-92.458c-1.75 0.291-4.083 2.042-4.958 3.209zM429.334 84.001v18.666c0 5.25-4.083 9.334-9.334 9.334h-28v276.5c0 32.083-21 59.5-46.667 59.5h-242.667c-25.667 0-46.667-26.25-46.667-58.334v-277.666h-28c-5.25 0-9.334-4.083-9.334-9.334v-18.666c0-5.25 4.083-9.334 9.334-9.334h90.125l20.417-48.709c5.834-14.292 23.333-25.958 38.792-25.958h93.333c15.459 0 32.958 11.666 38.792 25.958l20.417 48.709h90.125c5.25 0 9.334 4.083 9.334 9.334z"></path>
</svg>
