<svg version="1.1" xmlns="http://www.w3.org/2000/svg" width="32" height="32" viewBox="0 0 32 32">
  <title>tree</title>
  <path
    d="M10.29 1.589c3.44-2.218 8.313-0.56 10.116 3.004 2.313 0.342 4.749 1.055 6.218 3.011 3.113 3.745 1.222 10.211-3.382 11.724-2.385 0.836-4.887-0.073-7.025-1.142 0.596 4.4 1.047 8.822 1.571 13.229-1.724 0-3.44-0.007-5.164 0 0.596-4.327 1.069-8.669 1.745-12.975-1.171 1.091-2.444 2.276-4.138 2.371-3.716 0.516-7.193-3.353-6.218-6.982 0.458-1.767 1.942-2.902 3.324-3.949-0.604-3.018 0.138-6.611 2.953-8.291z"></path>
</svg>
