<svg version="1.1" xmlns="http://www.w3.org/2000/svg" width="32" height="32" viewBox="0 0 32 32">
  <title>viber</title>
  <path
    d="M27.75 3.123c-0.795-0.732-4.008-3.067-11.168-3.1 0 0-8.441-0.507-12.553 3.268-2.292 2.293-3.097 5.639-3.183 9.801-0.087 4.152-0.196 11.939 7.315 14.053h0.007l-0.007 3.221s-0.045 1.305 0.812 1.571c1.039 0.32 1.648-0.672 2.64-1.737 0.545-0.585 1.296-1.451 1.863-2.109 5.135 0.429 9.084-0.555 9.532-0.7 1.036-0.339 6.901-1.088 7.857-8.877 0.984-8.028-0.476-13.107-3.117-15.396v0.005zM28.619 17.939c-0.82 6.501-5.579 6.916-6.44 7.195-0.38 0.123-3.86 0.984-8.219 0.7 0 0-3.26 3.921-4.26 4.94-0.161 0.161-0.361 0.221-0.481 0.193-0.18-0.039-0.219-0.24-0.219-0.539l0.020-5.341c-0.020 0 0 0 0 0-6.361-1.781-5.98-8.401-5.9-11.88 0.059-3.461 0.717-6.301 2.659-8.223 3.481-3.161 10.663-2.683 10.663-2.683 6.057 0.021 8.961 1.847 9.631 2.461 2.232 1.909 3.372 6.487 2.539 13.191l0.008-0.015zM10.322 6.644c0.323 0 0.612 0.145 0.839 0.415 0.005 0.003 0.773 0.927 1.107 1.379 0.313 0.427 0.735 1.107 0.948 1.487 0.38 0.68 0.139 1.376-0.229 1.664l-0.755 0.6c-0.38 0.305-0.333 0.871-0.333 0.871s1.12 4.209 5.279 5.271c0 0 0.568 0.052 0.872-0.328l0.601-0.759c0.284-0.38 0.979-0.62 1.659-0.241 0.38 0.2 1.060 0.621 1.488 0.939 0.452 0.32 1.376 1.101 1.381 1.101 0.44 0.361 0.539 0.919 0.24 1.479v0.021c-0.307 0.54-0.721 1.040-1.245 1.521h-0.011c-0.419 0.36-0.839 0.56-1.259 0.599-0.040 0-0.1 0.021-0.181 0-0.18 0-0.36-0.039-0.539-0.081v-0.019c-0.64-0.18-1.7-0.64-3.461-1.621-1.14-0.639-2.099-1.28-2.919-1.94-0.42-0.34-0.86-0.72-1.301-1.16l-0.101-0.037-0.079-0.079c-0.441-0.44-0.82-0.88-1.161-1.307-0.64-0.812-1.28-1.769-1.919-2.919-0.98-1.76-1.44-2.82-1.62-3.461h-0.021c-0.060-0.179-0.1-0.359-0.080-0.539-0.020-0.081 0-0.14 0-0.188 0.040-0.399 0.252-0.819 0.611-1.259h0.007c0.473-0.52 0.984-0.939 1.528-1.244 0.219-0.121 0.439-0.18 0.639-0.18h0.021l-0.004 0.016zM15.782 5.733h0.155l0.101 0.003h0.027l0.119 0.007h0.681l0.18 0.020h0.099l0.2 0.021h0.040l0.139 0.020h0.021l0.099 0.020c0.061 0 0.101 0.021 0.14 0.021h0.121l0.1 0.039 0.080 0.021 0.080 0.020 0.040 0.020h0.060l0.061 0.021h0.039l0.099 0.021 0.060 0.019 0.061 0.021 0.080 0.021 0.040 0.019c0.040 0 0.080 0.021 0.121 0.021l0.059 0.020 0.061 0.021 0.159 0.059 0.081 0.041 0.18 0.080 0.060 0.020 0.060 0.021 0.12 0.060 0.081 0.020 0.039 0.020 0.101 0.041 0.039 0.019 0.081 0.041 0.060 0.019 0.060 0.040 0.079 0.040 0.061 0.039 0.040 0.021 0.081 0.040 0.059 0.040 0.1 0.060 0.060 0.021 0.099 0.059 0.021 0.020 0.060 0.041 0.12 0.099 0.061 0.040 0.059 0.040 0.041 0.019 0.060 0.041 0.099 0.099 0.081 0.060 0.060 0.040 0.021 0.020 0.039 0.021 0.099 0.081 0.061 0.059 0.040 0.040 0.060 0.039 0.060 0.041 0.039 0.020 0.16 0.16 0.080 0.081 0.18 0.18 0.041 0.039c0.021 0.021 0.060 0.060 0.081 0.1l0.039 0.040 0.221 0.259 0.060 0.080c0.019 0.021 0.019 0.041 0.039 0.041l0.12 0.18 0.060 0.060 0.12 0.16 0.101 0.16 0.060 0.12 0.079 0.14 0.060 0.12 0.021 0.039 0.039 0.081 0.101 0.2 0.099 0.199 0.041 0.1c0.079 0.18 0.139 0.36 0.219 0.56 0.099 0.26 0.18 0.539 0.24 0.84 0.060 0.22 0.101 0.42 0.14 0.64l0.039 0.36 0.060 0.4c0.021 0.161 0.041 0.341 0.041 0.5 0.019 0.161 0.019 0.32 0.019 0.479v0.341c0 0.021-0.008 0.039-0.019 0.060-0.021 0.040-0.041 0.060-0.081 0.1-0.028 0.020-0.065 0.061-0.107 0.061-0.039 0.019-0.079 0.019-0.12 0.019h-0.060c-0.039 0-0.079-0.019-0.12-0.039-0.039-0.021-0.081-0.040-0.099-0.081-0.021-0.039-0.060-0.081-0.081-0.12s-0.041-0.080-0.041-0.12v-0.479c-0.019-0.279-0.039-0.567-0.079-0.852-0.021-0.195-0.060-0.379-0.081-0.56 0-0.099-0.021-0.195-0.039-0.279l-0.039-0.2-0.051-0.188-0.021-0.12-0.060-0.2c-0.039-0.16-0.099-0.32-0.159-0.48-0.039-0.121-0.081-0.22-0.14-0.319l-0.039-0.101-0.18-0.36-0.041-0.060c-0.081-0.18-0.18-0.36-0.3-0.521l-0.060-0.099h-0.268l-0.085-0.121c-0.073-0.119-0.152-0.22-0.24-0.319l-0.167-0.2-0.020-0.021-0.061-0.076-0.047-0.060-0.1-0.099-0.020-0.040-0.093-0.080-0.060-0.061-0.111-0.1-0.053-0.049-0.061-0.060-0.020-0.021c-0.021-0.020-0.060-0.060-0.1-0.080l-0.101-0.083-0.040-0.020-0.081-0.061-0.099-0.080-0.060-0.048-0.040-0.021-0.080-0.071c0-0.021-0.021-0.021-0.041-0.021l-0.039-0.039-0.020-0.021v-0.017l-0.040-0.019-0.081-0.049-0.059-0.041-0.1-0.060-0.080-0.060-0.039-0.021-0.043-0.017h-0.12l-0.025-0.021-0.087-0.047-0.012-0.019-0.040-0.021-0.060-0.028h-0.016l-0.060-0.021-0.033-0.020-0.060-0.020-0.013-0.015-0.040-0.021-0.071-0.039-0.040-0.020-0.12-0.040-0.099-0.039-0.183-0.021-0.059-0.039c-0.020-0.013-0.040-0.021-0.061-0.021l-0.039-0.020c-0.039-0.015-0.060-0.021-0.1-0.040l-0.040-0.021h-0.039l-0.081-0.039-0.039-0.021-0.060-0.020h-0.123c-0.011 0-0.025-0.007-0.040-0.009h-0.12l-0.060-0.021h-0.020l-0.060-0.021h-0.055c-0.033-0.019-0.060-0.019-0.093-0.019l-0.013-0.021-0.080-0.020c-0.040-0.021-0.075-0.021-0.112-0.021l-0.060-0.020-0.067-0.021-0.060-0.019-0.081-0.021h-0.081l-0.239-0.029h-0.12l-0.155-0.020h-0.101l-0.091-0.011h-0.040l-0.072-0.021h-0.38l-0.013-0.020h-0.081c-0.040 0-0.085-0.020-0.12-0.040-0.040-0.021-0.081-0.039-0.108-0.080l-0.040-0.061c-0.039-0.039-0.039-0.080-0.060-0.12-0.019-0.037-0.019-0.079-0.019-0.119s0-0.080 0.020-0.12c0.021-0.039 0.039-0.080 0.081-0.1 0.020-0.040 0.059-0.059 0.099-0.080 0.039-0.021 0.081-0.040 0.12-0.040h0.081l0.020 0.088zM16.521 7.832l0.049 0.004 0.081 0.008c0.011 0 0.024 0 0.039 0.004 0.029 0 0.060 0.005 0.1 0.008l0.080 0.011 0.032 0.021 0.060 0.020 0.064 0.020 0.060 0.021h0.040l0.056 0.020 0.093 0.020 0.075 0.021 0.035 0.019h0.097l0.159 0.037 0.061 0.020 0.060 0.020 0.060 0.021s0.020 0 0.020 0.020l0.061 0.020 0.059 0.021 0.060 0.021c0.020 0 0.040 0.019 0.061 0.019 0.009 0 0.019 0.021 0.033 0.021l0.085 0.040h0.039l0.12 0.040 0.067 0.039 0.061 0.040 0.144 0.060 0.080 0.020 0.041 0.041c0.060 0.019 0.12 0.059 0.18 0.079l0.128 0.080 0.065 0.039c0.060 0.040 0.109 0.061 0.161 0.101l0.039 0.019 0.055 0.041 0.029 0.020 0.1 0.060 0.049 0.040 0.087 0.057 0.039 0.020 0.040 0.020 0.061 0.040 0.080 0.061c0.020 0.019 0.029 0.019 0.045 0.039 0.013 0.020 0.021 0.020 0.033 0.040l0.044 0.040 0.048 0.039 0.101 0.101 0.039 0.040 0.021 0.021 0.12 0.119 0.021 0.021c0 0.020 0.020 0.040 0.039 0.040l0.021 0.017 0.060 0.061 0.039 0.060 0.040 0.040 0.060 0.080 0.061 0.061 0.12 0.159 0.019 0.039 0.081 0.101 0.021 0.039 0.020 0.041 0.020 0.039 0.021 0.040c0.021 0.020 0.021 0.040 0.039 0.080l0.057 0.101 0.021 0.020 0.039 0.081 0.041 0.059c0.019 0.020 0.019 0.039 0.039 0.060l0.040 0.060 0.079 0.16 0.021 0.061c0.020 0.059 0.060 0.1 0.080 0.16 0 0.020 0.020 0.039 0.020 0.060l0.060 0.159 0.081 0.26c0 0.021 0.020 0.060 0.020 0.081l0.061 0.18 0.059 0.24 0.061 0.32c0.019 0.099 0.019 0.18 0.039 0.281 0.021 0.159 0.040 0.317 0.040 0.479l0.020 0.28v0.22c0 0.021 0 0.039-0.020 0.060l-0.059 0.057c-0.039 0.031-0.060 0.060-0.099 0.081-0.040 0.020-0.081 0.039-0.12 0.053-0.041 0.021-0.1 0.021-0.14 0.021-0.039 0-0.081-0.021-0.12-0.040-0.021 0-0.040-0.021-0.060-0.028-0.041-0.019-0.081-0.052-0.1-0.087-0.040-0.040-0.061-0.080-0.061-0.121l-0.019-0.059v-0.417c0-0.177-0.021-0.341-0.041-0.513-0.020-0.18-0.059-0.38-0.099-0.56-0.039-0.12-0.060-0.24-0.1-0.347l-0.040-0.121-0.039-0.1-0.021-0.040-0.060-0.16-0.060-0.12-0.1-0.199-0.092-0.16v-0.025l-0.039-0.063-0.040-0.051-0.060-0.1-0.061-0.081-0.119-0.159c-0.061-0.081-0.12-0.16-0.189-0.237-0.019-0.020-0.039-0.039-0.039-0.060l-0.040-0.039-0.023-0.021-0.040-0.019-0.040-0.036v-0.195l-0.159-0.151-0.1-0.091v-0.019l-0.040-0.041-0.051-0.039-0.020-0.021c0-0.020-0.021-0.020-0.039-0.020l-0.061-0.021-0.020-0.020-0.081-0.060-0.019-0.021-0.021-0.020c-0.016-0.020-0.031-0.020-0.040-0.020l-0.080-0.060-0.021-0.021-0.080-0.039-0.015-0.021-0.060-0.039-0.040-0.021-0.040-0.039-0.039-0.041h-0.021c-0.039-0.039-0.080-0.059-0.14-0.080l-0.059-0.040-0.040-0.019-0.021-0.021-0.060-0.040-0.059-0.020-0.080-0.040-0.061-0.020-0.020-0.021-0.075-0.019v-0.016l-0.121-0.040-0.12-0.060h-0.080c-0.040-0.020-0.060-0.020-0.1-0.040h-0.059l-0.060-0.021h-0.059l-0.061-0.019-0.039-0.021h-0.081l-0.081-0.020-0.039-0.021h-0.22l-0.092-0.020h-0.468l-0.061-0.021c-0.039-0.019-0.080-0.039-0.12-0.080-0.019-0.040-0.060-0.080-0.080-0.119-0.020-0.041-0.040-0.081-0.040-0.121v-0.12c0.008-0.061 0.021-0.1 0.040-0.14 0.011-0.020 0.020-0.040 0.040-0.060 0.024-0.040 0.060-0.080 0.1-0.1 0.020-0.020 0.040-0.020 0.059-0.039 0.041-0.021 0.081-0.021 0.121-0.021h0.080l-0.019 0.073zM17.126 10.004c0.020 0 0.040 0 0.059 0.005 0.021 0 0.041 0 0.061 0.003l0.069 0.007c0.139 0.012 0.284 0.032 0.424 0.061l0.139 0.031 0.035 0.011 0.152 0.039 0.079 0.027 0.061 0.021c0.060 0.019 0.121 0.060 0.18 0.080l0.021 0.020 0.080 0.040 0.12 0.061 0.039 0.019c0.021 0.021 0.041 0.021 0.061 0.040 0.020 0.021 0.060 0.040 0.080 0.060 0.081 0.040 0.14 0.1 0.2 0.14l0.14 0.12 0.12 0.121 0.081 0.099 0.039 0.039 0.040 0.041 0.059 0.080 0.121 0.18 0.1 0.18 0.080 0.16 0.061 0.14c0.059 0.139 0.080 0.26 0.12 0.399 0.039 0.121 0.060 0.261 0.080 0.38l0.020 0.2 0.021 0.181v0.079c0 0.060-0.021 0.1-0.040 0.14-0.020 0.039-0.061 0.099-0.1 0.12-0.040 0.039-0.081 0.060-0.14 0.081-0.039 0.019-0.080 0.019-0.12 0.019-0.039 0-0.080 0-0.12-0.019l-0.139-0.061c-0.040-0.040-0.080-0.060-0.121-0.121-0.020-0.039-0.039-0.080-0.060-0.139v-0.221l-0.020-0.14-0.020-0.159-0.021-0.14-0.021-0.080c0-0.020-0.019-0.060-0.019-0.080-0.040-0.161-0.12-0.32-0.2-0.48l-0.081-0.080-0.063-0.080-0.060-0.060-0.020-0.040-0.1-0.080-0.081-0.081-0.079-0.060c-0.021-0.020-0.040-0.020-0.081-0.039l-0.12-0.081-0.081-0.040-0.039-0.020h-0.021l-0.101-0.041-0.12-0.040-0.12-0.020h-0.1l-0.059-0.020-0.047-0.009h-0.060l-0.080-0.021h-0.34l-0.020-0.1h-0.052c-0.040-0.005-0.073-0.020-0.107-0.039-0.047-0.028-0.085-0.060-0.12-0.107-0.024-0.039-0.045-0.081-0.060-0.12-0.011-0.039-0.016-0.080-0.016-0.12 0-0.049 0-0.1 0.020-0.151 0.020-0.052 0.040-0.093 0.080-0.133l0.081-0.060c0.039-0.021 0.081-0.040 0.12-0.040l0.083-0.1h0.043z"></path>
</svg>
