<svg version="1.1" xmlns="http://www.w3.org/2000/svg" width="32" height="32" viewBox="0 0 32 32">
  <title>vk</title>
  <path
    d="M25.29 0h-18.041c-4.34 0-7.253 3.307-7.253 8.237v16.301c0 4.739 2.95 7.462 8.101 7.462h16.596c4.045-0.037 7.311-3.325 7.311-7.376 0-0.063-0.001-0.125-0.002-0.188v-16.39c-0.006-4.973-3.485-8.046-6.712-8.046zM24.675 30.082h-16.596c-4.1 0-6.147-1.844-6.147-5.532v-16.314c0-2.914 1.395-6.313 5.329-6.313h18.041c2.305 0 4.788 2.342 4.788 6.147v16.406c-0.012 3.184-2.33 5.594-5.403 5.594zM19.623 15.76c-0.338-0.178-0.744-0.227-1.094-0.443 1.703-0.529 2.459-3.399 1.063-4.788-0.83-0.836-2.114-0.965-3.688-1.027h-5.096v13h5.532c2.784-0.123 4.635-1.18 4.856-3.866v-0.203c0.001-0.022 0.001-0.049 0.001-0.075 0-1.123-0.631-2.099-1.559-2.591zM14.091 11.863c0.879 0.074 1.844-0.154 2.459 0.277 0.306 0.283 0.496 0.686 0.496 1.134 0 0.317-0.096 0.612-0.26 0.857-0.47 0.609-1.582 0.511-2.732 0.505-0.006-0.916-0.049-1.918 0.031-2.772zM17.649 19.356c-0.541 0.916-2.102 0.762-3.59 0.787v-3.178c0-0.049 0-0.098 0.037-0.105 1.426 0 3.141-0.203 3.627 0.787 0.094 0.225 0.148 0.485 0.148 0.759 0 0.345-0.087 0.67-0.24 0.954z"></path>
</svg>
