<!DOCTYPE svg PUBLIC "-//W3C//DTD SVG 1.1//EN" "http://www.w3.org/Graphics/SVG/1.1/DTD/svg11.dtd">
<svg width="512pt" height="512pt" viewBox="0 0 512 512" version="1.1" xmlns="http://www.w3.org/2000/svg">
<g id="#000000ff">
<path opacity="1.00" d=" M 252.73 0.00 L 258.35 0.00 C 277.31 0.51 296.72 2.65 314.07 10.82 C 329.23 17.66 341.77 29.87 349.40 44.62 C 359.86 64.34 362.68 86.82 365.14 108.68 C 370.81 109.88 376.47 112.14 380.42 116.55 C 386.60 123.33 387.91 133.07 387.33 141.89 C 386.24 155.49 382.71 169.47 374.28 180.46 C 369.32 187.05 361.67 191.23 353.52 192.24 C 346.38 210.67 336.23 228.15 322.30 242.30 C 309.49 255.42 293.05 265.24 275.02 269.02 C 252.71 273.91 228.65 269.77 209.25 257.74 C 184.98 243.03 168.28 218.42 158.44 192.23 C 152.93 191.30 147.43 189.55 143.08 185.91 C 134.03 178.58 129.52 167.24 126.82 156.23 C 124.36 144.79 122.72 132.02 128.29 121.21 C 131.87 114.14 139.33 110.09 146.88 108.69 C 148.56 96.03 149.59 83.23 152.96 70.87 C 157.73 51.31 167.21 32.04 183.55 19.64 C 203.16 4.56 228.65 0.66 252.73 0.00 M 205.40 121.50 C 195.90 127.05 185.32 130.31 174.76 133.19 C 175.75 147.32 178.02 161.41 182.36 174.92 C 188.72 194.53 199.42 213.44 215.95 226.20 C 229.41 236.75 247.04 241.80 264.03 239.58 C 280.74 237.68 296.00 228.47 306.87 215.85 C 323.18 197.06 331.54 172.72 335.46 148.47 C 308.00 146.51 281.98 134.52 260.99 117.02 C 251.68 109.60 243.28 101.06 235.90 91.73 C 229.13 104.52 218.04 114.67 205.40 121.50 Z" />
<path opacity="1.00" d=" M 116.02 290.00 C 128.83 269.61 145.94 251.73 166.64 239.29 C 187.28 303.82 207.83 368.38 228.47 432.91 C 231.73 400.36 235.02 367.81 238.23 335.25 C 231.56 329.18 227.62 320.08 228.80 311.03 C 229.83 298.52 240.46 287.49 253.10 286.65 C 266.33 285.13 279.61 294.60 282.57 307.56 C 285.17 317.52 281.47 328.44 273.82 335.20 C 276.97 367.78 280.29 400.34 283.54 432.92 C 304.12 368.36 324.65 303.78 345.23 239.22 C 375.79 257.76 397.75 287.86 411.56 320.39 C 427.23 357.21 433.83 397.23 435.99 436.99 C 436.51 447.71 432.92 458.77 425.37 466.52 C 419.98 472.26 412.39 475.77 404.54 476.23 C 393.07 476.91 381.59 477.40 370.12 478.03 C 358.91 489.87 343.91 497.39 328.55 502.33 C 306.28 509.43 282.79 511.54 259.53 512.00 L 254.48 512.00 C 228.73 511.51 202.59 509.29 178.16 500.62 C 164.67 495.77 151.56 488.84 141.88 478.03 C 129.93 477.33 117.96 476.97 106.03 476.07 C 93.84 475.06 83.47 465.98 79.04 454.86 C 75.48 446.69 75.66 437.58 76.52 428.89 C 77.22 417.06 78.61 405.28 80.30 393.56 C 85.86 357.33 96.29 321.19 116.02 290.00 M 128.40 339.41 C 115.95 371.12 110.88 405.19 109.01 439.04 C 108.95 440.51 109.48 441.92 109.88 443.32 C 125.57 444.09 141.25 444.92 156.94 445.71 C 154.96 396.45 153.02 347.20 151.02 297.94 C 141.69 310.69 134.08 324.68 128.40 339.41 M 361.02 297.97 C 358.94 347.21 357.07 396.46 355.06 445.71 C 370.76 444.91 386.47 444.12 402.18 443.29 C 402.53 441.88 403.02 440.48 403.02 439.01 C 401.45 411.19 397.76 383.33 389.60 356.61 C 383.28 335.72 374.09 315.53 361.02 297.97 M 308.73 417.23 C 308.71 421.23 308.72 425.23 308.72 429.24 C 319.73 429.25 330.74 429.25 341.74 429.24 C 341.75 425.23 341.75 421.23 341.74 417.22 C 330.74 417.22 319.74 417.21 308.73 417.23 Z" />
</g>
</svg>
