<?xml version="1.0" standalone="no"?>
<!DOCTYPE svg PUBLIC "-//W3C//DTD SVG 20010904//EN"
 "http://www.w3.org/TR/2001/REC-SVG-20010904/DTD/svg10.dtd">
<svg version="1.0" xmlns="http://www.w3.org/2000/svg"
 width="700.000000pt" height="700.000000pt" viewBox="0 0 700.000000 700.000000"
 preserveAspectRatio="xMidYMid meet">
<metadata>
Created by potrace 1.11, written by Peter Selinger 2001-2013
</metadata>
<g transform="translate(0.000000,700.000000) scale(0.100000,-0.100000)"
fill="#000000" stroke="none">
<path d="M2925 6860 c-27 -4 -72 -11 -100 -14 -167 -23 -394 -107 -570 -211
-467 -274 -783 -787 -820 -1328 -2 -33 -6 -61 -8 -63 -2 -3 -29 4 -58 15 -30
11 -67 22 -84 25 -16 4 -41 9 -55 11 -69 14 -102 17 -185 18 -163 0 -300 -29
-442 -93 -199 -90 -379 -262 -482 -460 -89 -171 -122 -317 -116 -510 4 -138 6
-154 36 -255 73 -245 209 -431 419 -573 77 -52 228 -125 283 -136 12 -3 33 -8
47 -11 52 -12 126 -24 164 -27 39 -3 42 -1 247 206 l208 208 210 -209 210
-210 98 -1 98 -2 210 211 211 210 209 -209 210 -209 100 -2 100 -1 209 211
210 210 210 -210 211 -210 98 0 98 0 211 211 210 210 210 -210 210 -211 97 0
96 0 211 211 211 210 212 -211 211 -211 58 5 c150 15 245 41 377 104 201 97
365 254 467 451 33 63 74 168 84 213 28 127 32 169 30 298 -2 69 -5 130 -8
135 -3 5 -9 27 -12 49 -27 174 -151 392 -306 538 -196 184 -437 279 -705 279
-66 -1 -131 -3 -145 -6 -86 -19 -76 -25 -89 59 -80 542 -623 888 -1145 731
-47 -14 -49 -14 -67 7 -10 12 -18 25 -19 29 0 9 -126 165 -179 222 -61 65
-200 180 -286 238 -173 114 -417 216 -585 243 -19 3 -42 8 -50 10 -61 18 -388
28 -475 15z"/>
<path d="M5384 3165 l-182 -183 -162 0 -163 0 -175 174 c-97 96 -178 174 -181
174 -4 0 -84 -78 -180 -174 l-173 -173 -164 -1 -165 0 -174 174 c-96 96 -178
174 -182 174 -5 0 -86 -78 -182 -174 l-173 -174 -163 0 -162 0 -174 174 c-96
96 -178 174 -182 174 -5 0 -87 -78 -183 -174 l-175 -174 -162 0 -162 0 -173
172 c-95 94 -177 171 -182 171 -6 0 -91 -80 -190 -178 l-180 -179 29 -121 c17
-67 48 -198 71 -292 74 -309 89 -368 130 -540 23 -93 43 -177 45 -185 2 -8 40
-166 84 -350 45 -184 84 -350 87 -368 3 -19 12 -51 19 -73 8 -22 14 -42 14
-44 0 -3 2 -18 5 -33 4 -15 9 -37 11 -50 6 -27 4 -18 55 -227 69 -286 92 -380
94 -390 1 -5 11 -45 21 -87 l19 -78 1767 0 1766 0 39 158 c21 86 39 159 39
162 0 3 6 25 13 50 19 73 171 686 176 714 3 14 7 29 10 34 3 5 8 24 11 42 3
19 20 88 37 155 17 66 31 125 32 130 1 6 5 19 9 30 3 11 8 31 11 45 2 14 77
316 165 672 l160 647 -189 188 c-105 103 -193 189 -198 189 -4 1 -89 -80 -188
-181z m-3335 -451 c5 -5 15 -40 24 -79 9 -38 37 -160 62 -270 26 -110 57 -245
70 -300 13 -55 26 -111 28 -125 3 -14 10 -45 17 -70 7 -25 14 -56 17 -70 2
-14 16 -72 29 -130 14 -58 28 -116 30 -130 3 -14 16 -70 29 -125 13 -55 44
-190 70 -300 25 -110 55 -238 66 -285 12 -47 22 -92 23 -100 1 -8 5 -26 9 -40
12 -47 67 -289 67 -295 0 -3 -58 -5 -128 -5 l-128 0 -12 48 c-10 40 -228 980
-237 1022 -2 8 -12 55 -24 103 -12 49 -23 103 -26 120 -3 18 -10 48 -16 67 -8
29 -83 349 -94 400 -2 8 -24 105 -49 214 -25 109 -48 211 -51 225 -3 14 -11
49 -19 78 -8 29 -10 53 -5 55 21 7 241 0 248 -8z m786 5 c1 -2 6 -33 10 -69 3
-36 8 -76 10 -90 3 -23 7 -53 20 -170 3 -25 7 -61 10 -80 2 -19 7 -57 10 -85
3 -27 7 -66 10 -85 2 -19 7 -60 10 -90 9 -78 14 -124 20 -167 3 -21 7 -60 10
-88 3 -27 10 -84 15 -125 5 -41 12 -97 15 -125 3 -27 7 -68 10 -90 3 -22 10
-80 15 -130 6 -49 13 -103 15 -120 12 -100 21 -176 31 -265 3 -30 7 -65 9 -78
2 -13 7 -53 10 -90 4 -37 8 -78 11 -92 4 -24 17 -126 30 -237 l6 -53 -131 0
-131 0 -1 25 c-1 14 -2 28 -3 33 -1 4 -6 39 -10 77 -4 39 -10 84 -12 100 -2
17 -6 55 -9 85 -4 30 -8 66 -10 80 -3 22 -7 52 -20 170 -2 19 -7 53 -9 75 -3
22 -8 58 -10 80 -3 22 -8 67 -12 99 -4 33 -8 71 -9 85 -7 64 -17 148 -20 171
-8 51 -15 110 -35 290 -11 102 -22 199 -25 215 -2 17 -7 57 -10 90 -4 33 -8
71 -11 85 -2 14 -6 50 -9 80 -3 30 -8 66 -10 80 -3 14 -7 57 -11 95 -3 39 -8
79 -10 90 -2 11 -7 47 -10 80 -3 33 -9 79 -14 102 -6 38 -5 42 14 45 29 4 236
1 241 -3z m783 2 c9 -1 12 -241 12 -1166 l0 -1165 -130 0 -130 0 0 1168 0
1167 118 -2 c64 0 123 -2 130 -2z m791 0 c13 -1 12 -50 -4 -156 -2 -16 -7 -50
-9 -75 -3 -25 -15 -124 -26 -220 -12 -96 -23 -193 -25 -215 -5 -43 -14 -124
-20 -165 -2 -14 -7 -54 -10 -90 -4 -36 -8 -72 -10 -80 -1 -8 -6 -46 -10 -83
-3 -37 -8 -76 -9 -85 -2 -9 -7 -44 -10 -77 -16 -141 -26 -221 -31 -255 -2 -14
-6 -56 -10 -93 -3 -37 -8 -77 -10 -88 -2 -11 -7 -48 -10 -82 -8 -77 -14 -131
-19 -166 -3 -14 -7 -53 -11 -86 -3 -33 -8 -71 -10 -85 -3 -24 -16 -129 -20
-160 -1 -8 -2 -27 -3 -42 l-2 -28 -131 0 -131 0 6 53 c4 28 13 104 21 167 8
63 17 135 19 160 6 61 17 153 31 255 3 22 7 60 9 85 3 25 7 65 10 90 3 25 8
63 11 85 17 146 21 180 30 255 2 19 11 98 20 175 9 77 18 151 20 165 2 14 7
52 10 85 3 33 12 112 20 175 8 63 17 140 20 170 3 30 8 66 10 80 3 14 7 53 10
88 4 35 8 72 10 82 2 10 7 50 10 87 4 37 9 70 10 73 2 4 179 5 244 1z m785
-17 c-1 -10 -24 -120 -53 -244 -28 -124 -53 -234 -56 -245 -2 -11 -18 -81 -35
-155 -39 -164 -40 -169 -46 -200 -3 -14 -10 -43 -16 -65 -10 -38 -13 -53 -22
-100 -2 -11 -25 -109 -50 -218 -25 -109 -48 -208 -50 -220 -2 -12 -29 -130
-60 -262 -31 -132 -62 -269 -70 -305 -8 -36 -27 -118 -42 -182 l-28 -118 -128
0 c-70 0 -128 2 -128 6 0 3 23 103 50 222 28 119 52 226 54 237 3 11 10 43 16
70 6 28 13 57 15 65 2 8 13 58 25 110 12 52 23 102 25 110 2 8 24 104 49 212
44 193 49 212 61 272 3 16 8 33 10 36 2 4 7 22 10 41 3 19 22 102 41 184 20
83 37 158 39 168 5 20 86 380 116 509 14 61 25 88 36 90 9 2 66 3 127 2 103
-1 111 -2 110 -20z"/>
</g>
</svg>
